<?xml version="1.0" encoding="utf-8"?>
<!-- Generator: Adobe Illustrator 25.3.1, SVG Export Plug-In . SVG Version: 6.00 Build 0)  -->
<svg version="1.1" id="Layer_1" xmlns="http://www.w3.org/2000/svg" xmlns:xlink="http://www.w3.org/1999/xlink" x="0px" y="0px"
	 viewBox="0 0 300 300" style="enable-background:new 0 0 300 300;" xml:space="preserve">
<style type="text/css">
	.st0{fill:url(#SVGID_1_);}
	.st1{fill:url(#SVGID_2_);}
	.st2{fill:#FFFFFF;}
</style>
<g>
	<g>
		<g>
			
				<linearGradient id="SVGID_1_" gradientUnits="userSpaceOnUse" x1="30.7971" y1="73.0308" x2="60.3702" y2="125.7828" gradientTransform="matrix(-0.9189 0 0 1 120.42 0)">
				<stop  offset="0" style="stop-color:#CBD1E6"/>
				<stop  offset="1" style="stop-color:#FFFFFF"/>
			</linearGradient>
			<path class="st0" d="M89.87,139.44l-22.16-12.03c-0.82-0.45-1.23-1.22-1.23-2V52.87l27,14.65v72.83
				C92.23,140.35,90.99,140.05,89.87,139.44z"/>
			
				<linearGradient id="SVGID_2_" gradientUnits="userSpaceOnUse" x1="22.8374" y1="61.8208" x2="7.8763" y2="125.2671" gradientTransform="matrix(-0.9189 0 0 1 120.42 0)">
				<stop  offset="0" style="stop-color:#E1E6F0"/>
				<stop  offset="1" style="stop-color:#FFFFFF"/>
			</linearGradient>
			<path class="st1" d="M119.24,127.41l-22.16,12.03c-1.11,0.61-2.36,0.91-3.6,0.91V67.52l27-14.65v72.54
				C120.47,126.19,120.06,126.97,119.24,127.41z"/>
		</g>
		<path class="st2" d="M119.24,54.87L97.08,66.9c-2.23,1.21-4.98,1.21-7.21,0L67.71,54.87c-1.64-0.89-1.64-3.12,0-4.01l22.16-12.03
			c2.23-1.21,4.98-1.21,7.21,0l22.16,12.03C120.88,51.75,120.88,53.98,119.24,54.87z"/>
	</g>
</g>
</svg>
