<?xml version="1.0" encoding="utf-8"?>
<!-- Generator: Adobe Illustrator 25.3.1, SVG Export Plug-In . SVG Version: 6.00 Build 0)  -->
<svg version="1.1" id="Layer_1" xmlns="http://www.w3.org/2000/svg" xmlns:xlink="http://www.w3.org/1999/xlink" x="0px" y="0px"
	 viewBox="0 0 300 300" style="enable-background:new 0 0 300 300;" xml:space="preserve">
<style type="text/css">
	.st0{fill:url(#SVGID_1_);}
	.st1{fill:url(#SVGID_2_);}
	.st2{fill:#FFFFFF;}
</style>
<g>
	<g>
		<g>
			
				<linearGradient id="SVGID_1_" gradientUnits="userSpaceOnUse" x1="93.3992" y1="126.6522" x2="114.1637" y2="163.6915" gradientTransform="matrix(-0.9189 0 0 1 120.42 0)">
				<stop  offset="0" style="stop-color:#CBD1E6"/>
				<stop  offset="1" style="stop-color:#FFFFFF"/>
			</linearGradient>
			<path class="st0" d="M38.85,175.97l-28.37-15.4c-1.05-0.57-1.58-1.57-1.58-2.56v-49.16l34.56,18.75v49.53
				C41.87,177.13,40.27,176.75,38.85,175.97z"/>
			
				<linearGradient id="SVGID_2_" gradientUnits="userSpaceOnUse" x1="71.0011" y1="117.3426" x2="59.9419" y2="164.242" gradientTransform="matrix(-0.9189 0 0 1 120.42 0)">
				<stop  offset="0" style="stop-color:#E1E6F0"/>
				<stop  offset="1" style="stop-color:#FFFFFF"/>
			</linearGradient>
			<path class="st1" d="M76.44,160.58l-28.37,15.4c-1.43,0.77-3.02,1.16-4.61,1.16v-49.53l34.56-18.75v49.16
				C78.02,159.01,77.49,160.01,76.44,160.58z"/>
		</g>
		<path class="st2" d="M76.44,111.42l-28.37,15.4c-2.85,1.55-6.37,1.55-9.22,0l-28.37-15.4c-2.1-1.14-2.1-3.99,0-5.13l28.37-15.4
			c2.85-1.55,6.37-1.55,9.22,0l28.37,15.4C78.54,107.43,78.54,110.28,76.44,111.42z"/>
	</g>
</g>
</svg>
