<?xml version="1.0" encoding="utf-8"?>
<!-- Generator: Adobe Illustrator 25.3.1, SVG Export Plug-In . SVG Version: 6.00 Build 0)  -->
<svg version="1.1" id="Layer_1" xmlns="http://www.w3.org/2000/svg" xmlns:xlink="http://www.w3.org/1999/xlink" x="0px" y="0px"
	 viewBox="0 0 300 300" style="enable-background:new 0 0 300 300;" xml:space="preserve">
<style type="text/css">
	.st0{fill:url(#SVGID_1_);}
	.st1{fill:url(#SVGID_2_);}
	.st2{fill:#FFFFFF;}
</style>
<g>
	<g>
		<g>
			
				<linearGradient id="SVGID_1_" gradientUnits="userSpaceOnUse" x1="-16.2366" y1="41.756" x2="23.7572" y2="113.0961" gradientTransform="matrix(-0.9189 0 0 1 120.42 0)">
				<stop  offset="0" style="stop-color:#CBD1E6"/>
				<stop  offset="1" style="stop-color:#FFFFFF"/>
			</linearGradient>
			<path class="st0" d="M124.31,127.88l-12.41-6.74c-0.46-0.25-0.69-0.69-0.69-1.12V19.48l15.12,8.21v100.7
				C125.63,128.39,124.93,128.22,124.31,127.88z"/>
			
				<linearGradient id="SVGID_2_" gradientUnits="userSpaceOnUse" x1="-3.956" y1="28.5681" x2="-23.4288" y2="111.1475" gradientTransform="matrix(-0.9189 0 0 1 120.42 0)">
				<stop  offset="0" style="stop-color:#E1E6F0"/>
				<stop  offset="1" style="stop-color:#FFFFFF"/>
			</linearGradient>
			<path class="st1" d="M140.75,121.14l-12.41,6.74c-0.62,0.34-1.32,0.51-2.02,0.51V27.68l15.12-8.21v100.54
				C141.44,120.46,141.21,120.89,140.75,121.14z"/>
		</g>
		<path class="st2" d="M140.75,20.6l-12.41,6.74c-1.25,0.68-2.79,0.68-4.04,0l-12.41-6.74c-0.92-0.5-0.92-1.75,0-2.24l12.41-6.74
			c1.25-0.68,2.79-0.68,4.04,0l12.41,6.74C141.67,18.85,141.67,20.1,140.75,20.6z"/>
	</g>
</g>
</svg>
