<?xml version="1.0" encoding="utf-8"?>
<!-- Generator: Adobe Illustrator 25.3.1, SVG Export Plug-In . SVG Version: 6.00 Build 0)  -->
<svg version="1.1" id="Layer_1" xmlns="http://www.w3.org/2000/svg" xmlns:xlink="http://www.w3.org/1999/xlink" x="0px" y="0px"
	 viewBox="0 0 300 300" style="enable-background:new 0 0 300 300;" xml:space="preserve">
<style type="text/css">
	.st0{fill:#CBD1E6;}
	.st1{fill:#E1E6F0;}
	.st2{fill:#FFFFFF;}
	.st3{fill:#7A8AC5;}
	.st4{fill:#5F65A7;}
	.st5{fill:#96A4D3;}
</style>
<g>
	<path class="st0" d="M198.72,272.61l-26.66,14.47c-2.68,1.46-5.99,1.46-8.67,0l-26.66-14.47c-1.97-1.07-1.97-3.75,0-4.82
		l26.66-14.47c2.68-1.46,5.99-1.46,8.67,0l26.66,14.47C200.7,268.86,200.7,271.54,198.72,272.61z"/>
	<g>
		<path class="st1" d="M163.39,280.25l-26.66-14.47c-0.99-0.54-1.48-1.47-1.48-2.41v-6.33l32.48,17.63v6.67
			C166.23,281.35,164.73,280.98,163.39,280.25z"/>
		<path class="st1" d="M198.72,265.78l-26.66,14.47c-1.34,0.73-2.84,1.09-4.34,1.09v-6.67l32.48-17.63v6.33
			C200.2,264.31,199.71,265.25,198.72,265.78z"/>
	</g>
	<path class="st2" d="M198.72,259.46l-26.66,14.47c-2.68,1.46-5.99,1.46-8.67,0l-26.66-14.47c-1.97-1.07-1.97-3.75,0-4.82
		l26.66-14.47c2.68-1.46,5.99-1.46,8.67,0l26.66,14.47C200.7,255.71,200.7,258.39,198.72,259.46z"/>
</g>
<g>
	<g>
		<g>
			<g>
				<path class="st3" d="M158.68,254.75h0.48v1.25c0,1.34-1.54,2.48-3.67,2.89v-5.78C156.91,253.39,158.07,253.99,158.68,254.75z"/>
				<path class="st3" d="M154.64,253v6.02c-0.29,0.03-0.59,0.04-0.9,0.04v-6.11C154.05,252.95,154.35,252.97,154.64,253z"/>
				<path class="st3" d="M153.74,252.95v6.11c-0.3,0-0.6-0.01-0.89-0.04v-6.02C153.15,252.97,153.44,252.95,153.74,252.95z"/>
				<path class="st4" d="M148.81,254.75c0.61-0.77,1.78-1.37,3.21-1.64v5.79c-2.14-0.41-3.68-1.55-3.68-2.89v-1.25H148.81z"/>
				<path class="st3" d="M152.86,252.99v6.02c-0.29-0.03-0.57-0.07-0.84-0.12v-5.79C152.29,253.06,152.57,253.02,152.86,252.99z"/>
				<path class="st3" d="M155.49,253.12v5.78c-0.27,0.05-0.55,0.09-0.84,0.12V253C154.93,253.02,155.22,253.06,155.49,253.12z"/>
			</g>
			<g>
				<ellipse class="st5" cx="153.74" cy="254.75" rx="5.41" ry="3.05"/>
			</g>
		</g>
	</g>
	<g>
		<g>
			<g>
				<path class="st3" d="M169.36,251.07h0.48v1.25c0,1.34-1.54,2.48-3.67,2.89v-5.78C167.59,249.71,168.75,250.31,169.36,251.07z"/>
				<path class="st3" d="M165.33,249.32v6.02c-0.29,0.03-0.59,0.04-0.9,0.04v-6.11C164.73,249.27,165.03,249.29,165.33,249.32z"/>
				<path class="st3" d="M164.42,249.27v6.11c-0.3,0-0.6-0.01-0.89-0.04v-6.02C163.83,249.29,164.12,249.27,164.42,249.27z"/>
				<path class="st4" d="M159.49,251.07c0.61-0.77,1.78-1.37,3.21-1.64v5.79c-2.14-0.41-3.68-1.55-3.68-2.89v-1.25H159.49z"/>
				<path class="st3" d="M163.54,249.32v6.02c-0.29-0.03-0.57-0.07-0.84-0.12v-5.79C162.97,249.38,163.25,249.34,163.54,249.32z"/>
				<path class="st3" d="M166.17,249.44v5.78c-0.27,0.05-0.55,0.09-0.84,0.12v-6.02C165.62,249.34,165.9,249.38,166.17,249.44z"/>
			</g>
			<g>
				<ellipse class="st5" cx="164.42" cy="251.07" rx="5.41" ry="3.05"/>
			</g>
			<g>
				<ellipse class="st2" cx="164.42" cy="251.07" rx="3.26" ry="1.84"/>
			</g>
		</g>
	</g>
	<g>
		<g>
			<g>
				<path class="st3" d="M169.36,249.33h0.48v1.25c0,1.34-1.54,2.48-3.67,2.89v-5.78C167.59,247.96,168.75,248.56,169.36,249.33z"/>
				<path class="st3" d="M165.33,247.57v6.02c-0.29,0.03-0.59,0.04-0.9,0.04v-6.11C164.73,247.53,165.03,247.54,165.33,247.57z"/>
				<path class="st3" d="M164.42,247.53v6.11c-0.3,0-0.6-0.01-0.89-0.04v-6.02C163.83,247.54,164.12,247.53,164.42,247.53z"/>
				<path class="st4" d="M159.49,249.33c0.61-0.77,1.78-1.37,3.21-1.64v5.79c-2.14-0.41-3.68-1.55-3.68-2.89v-1.25H159.49z"/>
				<path class="st3" d="M163.54,247.57v6.02c-0.29-0.03-0.57-0.07-0.84-0.12v-5.79C162.97,247.63,163.25,247.59,163.54,247.57z"/>
				<path class="st3" d="M166.17,247.69v5.78c-0.27,0.05-0.55,0.09-0.84,0.12v-6.02C165.62,247.6,165.9,247.64,166.17,247.69z"/>
			</g>
			<g>
				<ellipse class="st5" cx="164.42" cy="249.33" rx="5.41" ry="3.05"/>
			</g>
		</g>
	</g>
	<g>
		<g>
			<g>
				<path class="st3" d="M169.36,247.52h0.48v1.25c0,1.34-1.54,2.48-3.67,2.89v-5.78C167.59,246.16,168.75,246.75,169.36,247.52z"/>
				<path class="st3" d="M165.33,245.76v6.02c-0.29,0.03-0.59,0.04-0.9,0.04v-6.11C164.73,245.72,165.03,245.73,165.33,245.76z"/>
				<path class="st3" d="M164.42,245.72v6.11c-0.3,0-0.6-0.01-0.89-0.04v-6.02C163.83,245.73,164.12,245.72,164.42,245.72z"/>
				<path class="st4" d="M159.49,247.52c0.61-0.77,1.78-1.37,3.21-1.64v5.79c-2.14-0.41-3.68-1.55-3.68-2.89v-1.25H159.49z"/>
				<path class="st3" d="M163.54,245.76v6.02c-0.29-0.03-0.57-0.07-0.84-0.12v-5.79C162.97,245.83,163.25,245.79,163.54,245.76z"/>
				<path class="st3" d="M166.17,245.88v5.78c-0.27,0.05-0.55,0.09-0.84,0.12v-6.02C165.62,245.79,165.9,245.83,166.17,245.88z"/>
			</g>
			<g>
				<ellipse class="st5" cx="164.42" cy="247.52" rx="5.41" ry="3.05"/>
			</g>
		</g>
	</g>
	<g>
		<g>
			<g>
				<path class="st3" d="M169.36,245.71h0.48v1.25c0,1.34-1.54,2.48-3.67,2.89v-5.78C167.59,244.35,168.75,244.95,169.36,245.71z"/>
				<path class="st3" d="M165.33,243.96v6.02c-0.29,0.03-0.59,0.04-0.9,0.04v-6.11C164.73,243.91,165.03,243.93,165.33,243.96z"/>
				<path class="st3" d="M164.42,243.91v6.11c-0.3,0-0.6-0.01-0.89-0.04v-6.02C163.83,243.93,164.12,243.91,164.42,243.91z"/>
				<path class="st4" d="M159.49,245.71c0.61-0.77,1.78-1.37,3.21-1.64v5.79c-2.14-0.41-3.68-1.55-3.68-2.89v-1.25H159.49z"/>
				<path class="st3" d="M163.54,243.95v6.02c-0.29-0.03-0.57-0.07-0.84-0.12v-5.79C162.97,244.02,163.25,243.98,163.54,243.95z"/>
				<path class="st3" d="M166.17,244.08v5.78c-0.27,0.05-0.55,0.09-0.84,0.12v-6.02C165.62,243.98,165.9,244.02,166.17,244.08z"/>
			</g>
			<g>
				<ellipse class="st5" cx="164.42" cy="245.71" rx="5.41" ry="3.05"/>
			</g>
		</g>
	</g>
	<g>
		<g>
			<g>
				<path class="st3" d="M169.36,243.91h0.48v1.25c0,1.34-1.54,2.48-3.67,2.89v-5.78C167.59,242.54,168.75,243.14,169.36,243.91z"/>
				<path class="st3" d="M165.33,242.15v6.02c-0.29,0.03-0.59,0.04-0.9,0.04v-6.11C164.73,242.11,165.03,242.12,165.33,242.15z"/>
				<path class="st3" d="M164.42,242.11v6.11c-0.3,0-0.6-0.01-0.89-0.04v-6.02C163.83,242.12,164.12,242.11,164.42,242.11z"/>
				<path class="st4" d="M159.49,243.91c0.61-0.77,1.78-1.37,3.21-1.64v5.79c-2.14-0.41-3.68-1.55-3.68-2.89v-1.25H159.49z"/>
				<path class="st3" d="M163.54,242.15v6.02c-0.29-0.03-0.57-0.07-0.84-0.12v-5.79C162.97,242.22,163.25,242.18,163.54,242.15z"/>
				<path class="st3" d="M166.17,242.27v5.78c-0.27,0.05-0.55,0.09-0.84,0.12v-6.02C165.62,242.18,165.9,242.22,166.17,242.27z"/>
			</g>
			<g>
				<ellipse class="st5" cx="164.42" cy="243.91" rx="5.41" ry="3.05"/>
			</g>
		</g>
	</g>
	<g>
		<g>
			<g>
				<path class="st3" d="M169.36,242.1h0.48v1.25c0,1.34-1.54,2.48-3.67,2.89v-5.78C167.59,240.74,168.75,241.33,169.36,242.1z"/>
				<path class="st3" d="M165.33,240.34v6.02c-0.29,0.03-0.59,0.04-0.9,0.04v-6.11C164.73,240.3,165.03,240.32,165.33,240.34z"/>
				<path class="st3" d="M164.42,240.3v6.11c-0.3,0-0.6-0.01-0.89-0.04v-6.02C163.83,240.32,164.12,240.3,164.42,240.3z"/>
				<path class="st4" d="M159.49,242.1c0.61-0.77,1.78-1.37,3.21-1.64v5.79c-2.14-0.41-3.68-1.55-3.68-2.89v-1.25H159.49z"/>
				<path class="st3" d="M163.54,240.34v6.02c-0.29-0.03-0.57-0.07-0.84-0.12v-5.79C162.97,240.41,163.25,240.37,163.54,240.34z"/>
				<path class="st3" d="M166.17,240.46v5.78c-0.27,0.05-0.55,0.09-0.84,0.12v-6.02C165.62,240.37,165.9,240.41,166.17,240.46z"/>
			</g>
			<g>
				<ellipse class="st5" cx="164.42" cy="242.1" rx="5.41" ry="3.05"/>
			</g>
		</g>
	</g>
	<g>
		<g>
			<g>
				<path class="st3" d="M169.36,240.29h0.48v1.25c0,1.34-1.54,2.48-3.67,2.89v-5.78C167.59,238.93,168.75,239.53,169.36,240.29z"/>
				<path class="st3" d="M165.33,238.54v6.02c-0.29,0.03-0.59,0.04-0.9,0.04v-6.11C164.73,238.49,165.03,238.51,165.33,238.54z"/>
				<path class="st3" d="M164.42,238.49v6.11c-0.3,0-0.6-0.01-0.89-0.04v-6.02C163.83,238.51,164.12,238.49,164.42,238.49z"/>
				<path class="st4" d="M159.49,240.29c0.61-0.77,1.78-1.37,3.21-1.64v5.79c-2.14-0.41-3.68-1.55-3.68-2.89v-1.25H159.49z"/>
				<path class="st3" d="M163.54,238.54v6.02c-0.29-0.03-0.57-0.07-0.84-0.12v-5.79C162.97,238.6,163.25,238.56,163.54,238.54z"/>
				<path class="st3" d="M166.17,238.66v5.78c-0.27,0.05-0.55,0.09-0.84,0.12v-6.02C165.62,238.56,165.9,238.6,166.17,238.66z"/>
			</g>
			<g>
				<ellipse class="st5" cx="164.42" cy="240.29" rx="5.41" ry="3.05"/>
			</g>
		</g>
	</g>
	<g>
		<g>
			<g>
				<path class="st3" d="M176.97,256.55h0.48v1.25c0,1.34-1.54,2.48-3.67,2.89v-5.78C175.2,255.18,176.36,255.78,176.97,256.55z"/>
				<path class="st3" d="M172.93,254.79v6.02c-0.29,0.03-0.59,0.04-0.9,0.04v-6.11C172.34,254.75,172.64,254.76,172.93,254.79z"/>
				<path class="st3" d="M172.03,254.75v6.11c-0.3,0-0.6-0.01-0.89-0.04v-6.02C171.44,254.76,171.73,254.75,172.03,254.75z"/>
				<path class="st4" d="M167.1,256.55c0.61-0.77,1.78-1.37,3.21-1.64v5.79c-2.14-0.41-3.68-1.55-3.68-2.89v-1.25H167.1z"/>
				<path class="st3" d="M171.15,254.79v6.02c-0.29-0.03-0.57-0.07-0.84-0.12v-5.79C170.58,254.85,170.86,254.81,171.15,254.79z"/>
				<path class="st3" d="M173.78,254.91v5.78c-0.27,0.05-0.55,0.09-0.84,0.12v-6.02C173.22,254.82,173.51,254.86,173.78,254.91z"/>
			</g>
			<g>
				<ellipse class="st5" cx="172.03" cy="256.55" rx="5.41" ry="3.05"/>
			</g>
			<g>
				<ellipse class="st2" cx="172.03" cy="256.55" rx="3.26" ry="1.84"/>
			</g>
		</g>
	</g>
	<g>
		<g>
			<g>
				<path class="st3" d="M176.97,254.8h0.48v1.25c0,1.34-1.54,2.48-3.67,2.89v-5.78C175.2,253.43,176.36,254.03,176.97,254.8z"/>
				<path class="st3" d="M172.93,253.04v6.02c-0.29,0.03-0.59,0.04-0.9,0.04V253C172.34,253,172.64,253.01,172.93,253.04z"/>
				<path class="st3" d="M172.03,253v6.11c-0.3,0-0.6-0.01-0.89-0.04v-6.02C171.44,253.01,171.73,253,172.03,253z"/>
				<path class="st4" d="M167.1,254.8c0.61-0.77,1.78-1.37,3.21-1.64v5.79c-2.14-0.41-3.68-1.55-3.68-2.89v-1.25H167.1z"/>
				<path class="st3" d="M171.15,253.04v6.02c-0.29-0.03-0.57-0.07-0.84-0.12v-5.79C170.58,253.11,170.86,253.07,171.15,253.04z"/>
				<path class="st3" d="M173.78,253.16v5.78c-0.27,0.05-0.55,0.09-0.84,0.12v-6.02C173.22,253.07,173.51,253.11,173.78,253.16z"/>
			</g>
			<g>
				<ellipse class="st5" cx="172.03" cy="254.8" rx="5.41" ry="3.05"/>
			</g>
		</g>
	</g>
	<g>
		<g>
			<g>
				<path class="st3" d="M176.97,252.99h0.48v1.25c0,1.34-1.54,2.48-3.67,2.89v-5.78C175.2,251.63,176.36,252.23,176.97,252.99z"/>
				<path class="st3" d="M172.93,251.23v6.02c-0.29,0.03-0.59,0.04-0.9,0.04v-6.11C172.34,251.19,172.64,251.21,172.93,251.23z"/>
				<path class="st3" d="M172.03,251.19v6.11c-0.3,0-0.6-0.01-0.89-0.04v-6.02C171.44,251.21,171.73,251.19,172.03,251.19z"/>
				<path class="st4" d="M167.1,252.99c0.61-0.77,1.78-1.37,3.21-1.64v5.79c-2.14-0.41-3.68-1.55-3.68-2.89v-1.25H167.1z"/>
				<path class="st3" d="M171.15,251.23v6.02c-0.29-0.03-0.57-0.07-0.84-0.12v-5.79C170.58,251.3,170.86,251.26,171.15,251.23z"/>
				<path class="st3" d="M173.78,251.35v5.78c-0.27,0.05-0.55,0.09-0.84,0.12v-6.02C173.22,251.26,173.51,251.3,173.78,251.35z"/>
			</g>
			<g>
				<ellipse class="st5" cx="172.03" cy="252.99" rx="5.41" ry="3.05"/>
			</g>
		</g>
	</g>
	<g>
		<g>
			<g>
				<path class="st3" d="M176.97,251.19h0.48v1.25c0,1.34-1.54,2.48-3.67,2.89v-5.78C175.2,249.82,176.36,250.42,176.97,251.19z"/>
				<path class="st3" d="M172.93,249.43v6.02c-0.29,0.03-0.59,0.04-0.9,0.04v-6.11C172.34,249.39,172.64,249.4,172.93,249.43z"/>
				<path class="st3" d="M172.03,249.39v6.11c-0.3,0-0.6-0.01-0.89-0.04v-6.02C171.44,249.4,171.73,249.39,172.03,249.39z"/>
				<path class="st4" d="M167.1,251.19c0.61-0.77,1.78-1.37,3.21-1.64v5.79c-2.14-0.41-3.68-1.55-3.68-2.89v-1.25H167.1z"/>
				<path class="st3" d="M171.15,249.43v6.02c-0.29-0.03-0.57-0.07-0.84-0.12v-5.79C170.58,249.49,170.86,249.45,171.15,249.43z"/>
				<path class="st3" d="M173.78,249.55v5.78c-0.27,0.05-0.55,0.09-0.84,0.12v-6.02C173.22,249.46,173.51,249.5,173.78,249.55z"/>
			</g>
			<g>
				<ellipse class="st5" cx="172.03" cy="251.19" rx="5.41" ry="3.05"/>
			</g>
		</g>
	</g>
	<g>
		<g>
			<g>
				<path class="st3" d="M171.56,264.49h0.48v1.25c0,1.34-1.54,2.48-3.67,2.89v-5.78C169.79,263.13,170.94,263.72,171.56,264.49z"/>
				<path class="st3" d="M167.52,262.73v6.02c-0.29,0.03-0.59,0.04-0.9,0.04v-6.11C166.93,262.69,167.23,262.71,167.52,262.73z"/>
				<path class="st3" d="M166.62,262.69v6.11c-0.3,0-0.6-0.01-0.89-0.04v-6.02C166.02,262.71,166.32,262.69,166.62,262.69z"/>
				<path class="st4" d="M161.68,264.49c0.61-0.77,1.78-1.37,3.21-1.64v5.79c-2.14-0.41-3.68-1.55-3.68-2.89v-1.25H161.68z"/>
				<path class="st3" d="M165.73,262.73v6.02c-0.29-0.03-0.57-0.07-0.84-0.12v-5.79C165.16,262.8,165.44,262.76,165.73,262.73z"/>
				<path class="st3" d="M168.36,262.85v5.78c-0.27,0.05-0.55,0.09-0.84,0.12v-6.02C167.81,262.76,168.09,262.8,168.36,262.85z"/>
			</g>
			<g>
				<ellipse class="st5" cx="166.62" cy="264.49" rx="5.41" ry="3.05"/>
			</g>
			<g>
				<ellipse class="st2" cx="166.62" cy="264.49" rx="3.26" ry="1.84"/>
			</g>
		</g>
	</g>
	<g>
		<g>
			<g>
				<path class="st3" d="M171.56,262.6h0.48v1.25c0,1.34-1.54,2.48-3.67,2.89v-5.78C169.79,261.23,170.94,261.83,171.56,262.6z"/>
				<path class="st3" d="M167.52,260.84v6.02c-0.29,0.03-0.59,0.04-0.9,0.04v-6.11C166.93,260.8,167.23,260.81,167.52,260.84z"/>
				<path class="st3" d="M166.62,260.8v6.11c-0.3,0-0.6-0.01-0.89-0.04v-6.02C166.02,260.81,166.32,260.8,166.62,260.8z"/>
				<path class="st4" d="M161.68,262.6c0.61-0.77,1.78-1.37,3.21-1.64v5.79c-2.14-0.41-3.68-1.55-3.68-2.89v-1.25H161.68z"/>
				<path class="st3" d="M165.73,260.84v6.02c-0.29-0.03-0.57-0.07-0.84-0.12v-5.79C165.16,260.9,165.44,260.86,165.73,260.84z"/>
				<path class="st3" d="M168.36,260.96v5.78c-0.27,0.05-0.55,0.09-0.84,0.12v-6.02C167.81,260.87,168.09,260.91,168.36,260.96z"/>
			</g>
			<g>
				<ellipse class="st5" cx="166.62" cy="262.6" rx="5.41" ry="3.05"/>
			</g>
		</g>
	</g>
	<g>
		<g>
			<g>
				<path class="st3" d="M186.23,259.79h0.48v1.25c0,1.34-1.54,2.48-3.67,2.89v-5.78C184.46,258.42,185.61,259.02,186.23,259.79z"/>
				<path class="st3" d="M182.19,258.03v6.02c-0.29,0.03-0.59,0.04-0.9,0.04v-6.11C181.6,257.99,181.9,258,182.19,258.03z"/>
				<path class="st3" d="M181.29,257.99v6.11c-0.3,0-0.6-0.01-0.89-0.04v-6.02C180.69,258,180.99,257.99,181.29,257.99z"/>
				<path class="st4" d="M176.35,259.79c0.61-0.77,1.78-1.37,3.21-1.64v5.79c-2.14-0.41-3.68-1.55-3.68-2.89v-1.25H176.35z"/>
				<path class="st3" d="M180.4,258.03v6.02c-0.29-0.03-0.57-0.07-0.84-0.12v-5.79C179.83,258.1,180.11,258.06,180.4,258.03z"/>
				<path class="st3" d="M183.03,258.15v5.78c-0.27,0.05-0.55,0.09-0.84,0.12v-6.02C182.48,258.06,182.76,258.1,183.03,258.15z"/>
			</g>
			<g>
				<ellipse class="st5" cx="181.29" cy="259.79" rx="5.41" ry="3.05"/>
			</g>
		</g>
	</g>
</g>
</svg>
