<?xml version="1.0" encoding="utf-8"?>
<!-- Generator: Adobe Illustrator 25.3.1, SVG Export Plug-In . SVG Version: 6.00 Build 0)  -->
<svg version="1.1" id="Layer_1" xmlns="http://www.w3.org/2000/svg" xmlns:xlink="http://www.w3.org/1999/xlink" x="0px" y="0px"
	 viewBox="0 0 300 300" style="enable-background:new 0 0 300 300;" xml:space="preserve">
<style type="text/css">
	.st0{fill:#F58C8D;}
	.st1{fill:#CBD1E6;}
	.st2{fill:#E1E6F0;}
	.st3{fill:#FFFFFF;}
	.st4{fill:#333333;}
	.st5{fill:#7A8AC5;}
	.st6{fill:#5F65A7;}
	.st7{fill:#474664;}
	.st8{fill:url(#SVGID_1_);}
	.st9{fill:url(#SVGID_2_);}
	.st10{fill:url(#SVGID_3_);}
	.st11{fill:url(#SVGID_4_);}
	.st12{fill:url(#SVGID_5_);}
	.st13{fill:url(#SVGID_6_);}
	.st14{fill:url(#SVGID_7_);}
	.st15{fill:url(#SVGID_8_);}
</style>
<path class="st0" d="M18.72,209.72l69.53,40.14c7,4.04,15.61,4.04,22.61,0l69.53-40.14c5.15-2.97,5.15-10.4,0-13.38l-69.53-40.14
	c-7-4.04-15.61-4.04-22.61,0l-69.53,40.14C13.57,199.31,13.57,206.75,18.72,209.72z"/>
<g>
	<path class="st1" d="M98.38,215.36l36.46,21.05c1.4,0.81,3.13,0.81,4.54,0l13.95-8.05c1.03-0.6,1.03-2.09,0-2.68l-36.46-21.05
		c-1.4-0.81-3.13-0.81-4.54,0l-13.95,8.05C97.35,213.28,97.35,214.77,98.38,215.36z"/>
	<g>
		<g>
			<path class="st2" d="M139.37,230.66l13.95-8.05c0.52-0.3,0.77-0.82,0.77-1.34v-3.52l-16.99,9.81v3.71
				C137.89,231.27,138.67,231.07,139.37,230.66z"/>
			<path class="st2" d="M98.38,209.61l36.46,21.05c0.7,0.41,1.48,0.61,2.27,0.61v-3.71l-39.5-22.81v3.52
				C97.6,208.79,97.86,209.32,98.38,209.61z"/>
		</g>
		<path class="st3" d="M98.38,206.09l36.46,21.05c1.4,0.81,3.13,0.81,4.54,0l13.95-8.05c1.03-0.6,1.03-2.09,0-2.68l-36.46-21.05
			c-1.4-0.81-3.13-0.81-4.54,0l-13.95,8.05C97.35,204.01,97.35,205.5,98.38,206.09z"/>
	</g>
	<g>
		<g>
			<path class="st4" d="M148.4,210.6l2.91-2.15c0.65-0.48,0.79-1.4,0.31-2.05l0,0c-0.48-0.65-1.4-0.79-2.05-0.31l-2.91,2.15
				c-0.65,0.48-0.79,1.4-0.31,2.05h0C146.82,210.94,147.75,211.08,148.4,210.6z"/>
			<g>
				<polygon class="st5" points="141.71,209.33 138.54,206.1 130.95,213.55 135.51,215.41 				"/>
				<circle class="st6" cx="140.12" cy="207.71" r="2.26"/>
			</g>
			<g>
				<path class="st6" d="M140.41,205.47l-0.13,4.5l7.79-0.48c0.5-0.03,0.89-0.44,0.91-0.94l0,0c0.01-0.49-0.35-0.92-0.84-0.99
					L140.41,205.47z"/>
			</g>
		</g>
		<g>
			<path class="st4" d="M151.71,213.32l2.91-2.15c0.65-0.48,0.79-1.4,0.31-2.05l0,0c-0.48-0.65-1.4-0.79-2.05-0.31l-2.91,2.15
				c-0.65,0.48-0.79,1.4-0.31,2.05l0,0C150.14,213.66,151.06,213.8,151.71,213.32z"/>
			<g>
				<polygon class="st5" points="145.02,212.04 141.85,208.82 134.27,216.26 138.82,218.12 				"/>
				
					<ellipse transform="matrix(4.673096e-03 -1 1 4.673096e-03 -67.6589 352.8761)" class="st5" cx="143.44" cy="210.43" rx="2.26" ry="2.26"/>
			</g>
			<g>
				<path class="st5" d="M143.72,208.18l-0.13,4.5l7.79-0.48c0.5-0.03,0.89-0.44,0.91-0.94v0c0.01-0.49-0.35-0.92-0.84-0.99
					L143.72,208.18z"/>
			</g>
		</g>
		<g>
			<path class="st5" d="M138.82,218.12L138.82,218.12l0-7.06h-10.53v2.56C128.29,219.1,134.86,221.91,138.82,218.12z"/>
			<g>
				<g>
					
						<rect x="126.46" y="205.19" transform="matrix(-0.9359 -0.3522 0.3522 -0.9359 174.3501 446.9412)" class="st7" width="2.73" height="4.84"/>
					<circle class="st7" cx="126.98" cy="209.88" r="1.37"/>
				</g>
				<g>
					<polygon class="st7" points="128.26,210.34 125.63,209.67 124.87,215.96 125.9,216.23 					"/>
					<circle class="st7" cx="125.49" cy="215.69" r="1.16"/>
				</g>
				<path class="st1" d="M131.7,203.03l-2.09,4.75c-0.3,0.68-1.22,0.94-2.06,0.57c-0.84-0.37-1.27-1.22-0.97-1.91l2.09-4.75
					L131.7,203.03z"/>
			</g>
			<circle class="st7" cx="135.45" cy="193.26" r="3.97"/>
			<path class="st3" d="M139.31,216.23c0,0,0.14-9.61,0.14-12.42c0-2.81-3.22-4.52-5.63-4.52s-5.53,1.31-5.53,4.02
				c0,2.71-0.46,12.63-0.46,12.63L139.31,216.23z"/>
			<path class="st7" d="M136.28,196.71l-0.96,3.67c-0.14,0.53-0.97,0.77-1.85,0.54c-0.89-0.23-1.49-0.85-1.35-1.38l0.96-3.67
				L136.28,196.71z"/>
			<g>
				<path class="st1" d="M135.19,188.81c0.71,0,1.38,0.17,1.97,0.47c0.37,0.64,0.59,1.39,0.59,2.18c0,0.39-0.05,0.77-0.15,1.13
					c-0.13-0.05-0.27-0.07-0.41-0.07c-0.69,0-1.25,0.56-1.25,1.25c0,0.36,0.15,0.68,0.39,0.91c-0.77,0.7-1.8,1.13-2.93,1.13
					c-0.71,0-1.38-0.17-1.97-0.47c-0.37-0.64-0.59-1.39-0.59-2.18C130.85,190.76,132.8,188.81,135.19,188.81z"/>
			</g>
			<g>
				<g>
					
						<rect x="136.9" y="208.68" transform="matrix(-0.9915 0.1298 -0.1298 -0.9915 302.7725 402.4529)" class="st7" width="2.73" height="4.84"/>
					<path class="st7" d="M137.23,213.67c0.1,0.75,0.78,1.28,1.53,1.18c0.75-0.1,1.28-0.78,1.18-1.53c-0.1-0.75-0.78-1.28-1.53-1.18
						C137.66,212.24,137.13,212.92,137.23,213.67z"/>
				</g>
				<g>
					<polygon class="st7" points="139.93,213.3 137.3,213.95 140.06,221.99 141.09,221.74 					"/>
					
						<ellipse transform="matrix(0.9995 -0.0318 0.0318 0.9995 -6.9814 4.5859)" class="st7" cx="140.47" cy="221.46" rx="1.16" ry="1.16"/>
				</g>
				<path class="st1" d="M139.31,205.25l0.51,5.17c0.07,0.74-0.6,1.42-1.52,1.51c-0.91,0.09-1.71-0.44-1.78-1.18l-0.51-5.17
					L139.31,205.25z"/>
			</g>
		</g>
	</g>
</g>
<g>
	<g>
		<g>
			<path class="st1" d="M113.14,188.11l9.45-5.46c0.35-0.2,0.52-0.56,0.52-0.91v-54.58l-11.51,6.65v54.71
				C112.13,188.53,112.66,188.39,113.14,188.11z"/>
			<linearGradient id="SVGID_1_" gradientUnits="userSpaceOnUse" x1="111.8197" y1="132.5217" x2="100.9463" y2="178.6331">
				<stop  offset="0" style="stop-color:#E1E6F0"/>
				<stop  offset="1" style="stop-color:#FFFFFF"/>
			</linearGradient>
			<path class="st8" d="M100.62,182.66l9.45,5.46c0.48,0.27,1.01,0.41,1.54,0.41v-54.71l-11.51-6.65v54.58
				C100.09,182.1,100.27,182.46,100.62,182.66z"/>
		</g>
		<linearGradient id="SVGID_2_" gradientUnits="userSpaceOnUse" x1="100.0923" y1="127.1721" x2="123.1123" y2="127.1721">
			<stop  offset="6.300000e-07" style="stop-color:#FFFFFF"/>
			<stop  offset="1" style="stop-color:#E1E6F0"/>
		</linearGradient>
		<path class="st9" d="M100.62,128.08l9.45,5.46c0.95,0.55,2.12,0.55,3.07,0l9.45-5.46c0.7-0.4,0.7-1.41,0-1.82l-9.45-5.46
			c-0.95-0.55-2.12-0.55-3.07,0l-9.45,5.46C99.92,126.67,99.92,127.68,100.62,128.08z"/>
	</g>
	<g>
		<g>
			<path class="st1" d="M57.43,220.28l9.45-5.46c0.35-0.2,0.52-0.56,0.52-0.91v-5.54l-11.51,6.65v5.67
				C56.42,220.69,56.95,220.55,57.43,220.28z"/>
			<linearGradient id="SVGID_3_" gradientUnits="userSpaceOnUse" x1="51.1148" y1="210.389" x2="49.3215" y2="217.9941">
				<stop  offset="0" style="stop-color:#E1E6F0"/>
				<stop  offset="1" style="stop-color:#FFFFFF"/>
			</linearGradient>
			<path class="st10" d="M44.91,214.82l9.45,5.46c0.48,0.27,1.01,0.41,1.54,0.41v-5.67l-11.51-6.65v5.54
				C44.38,214.27,44.56,214.62,44.91,214.82z"/>
		</g>
		<linearGradient id="SVGID_4_" gradientUnits="userSpaceOnUse" x1="44.3826" y1="208.3753" x2="67.4026" y2="208.3753">
			<stop  offset="6.300000e-07" style="stop-color:#FFFFFF"/>
			<stop  offset="1" style="stop-color:#E1E6F0"/>
		</linearGradient>
		<path class="st11" d="M44.91,209.28l9.45,5.46c0.95,0.55,2.12,0.55,3.07,0l9.45-5.46c0.7-0.4,0.7-1.41,0-1.82l-9.45-5.46
			c-0.95-0.55-2.12-0.55-3.07,0l-9.45,5.46C44.21,207.87,44.21,208.88,44.91,209.28z"/>
	</g>
	<g>
		<g>
			<path class="st1" d="M94.57,198.84l9.45-5.46c0.35-0.2,0.52-0.56,0.52-0.91V166.9l-11.51,6.65v25.71
				C93.56,199.25,94.09,199.11,94.57,198.84z"/>
			<linearGradient id="SVGID_5_" gradientUnits="userSpaceOnUse" x1="90.2956" y1="170.2725" x2="84.7922" y2="193.6108">
				<stop  offset="0" style="stop-color:#E1E6F0"/>
				<stop  offset="1" style="stop-color:#FFFFFF"/>
			</linearGradient>
			<path class="st12" d="M82.05,193.38l9.45,5.46c0.48,0.27,1.01,0.41,1.54,0.41v-25.71l-11.51-6.65v25.58
				C81.52,192.83,81.7,193.18,82.05,193.38z"/>
		</g>
		<linearGradient id="SVGID_6_" gradientUnits="userSpaceOnUse" x1="81.5224" y1="166.8958" x2="104.5424" y2="166.8958">
			<stop  offset="6.300000e-07" style="stop-color:#FFFFFF"/>
			<stop  offset="1" style="stop-color:#E1E6F0"/>
		</linearGradient>
		<path class="st13" d="M82.05,167.8l9.45,5.46c0.95,0.55,2.12,0.55,3.07,0l9.45-5.46c0.7-0.4,0.7-1.41,0-1.82l-9.45-5.46
			c-0.95-0.55-2.12-0.55-3.07,0l-9.45,5.46C81.35,166.39,81.35,167.4,82.05,167.8z"/>
	</g>
	<g>
		<g>
			<path class="st1" d="M76,209.56l9.45-5.46c0.35-0.2,0.52-0.56,0.52-0.91v-14.05l-11.51,6.65v14.18
				C74.99,209.97,75.52,209.83,76,209.56z"/>
			<linearGradient id="SVGID_7_" gradientUnits="userSpaceOnUse" x1="70.5515" y1="191.7373" x2="67.1826" y2="206.0239">
				<stop  offset="0" style="stop-color:#E1E6F0"/>
				<stop  offset="1" style="stop-color:#FFFFFF"/>
			</linearGradient>
			<path class="st14" d="M63.48,204.1l9.45,5.46c0.48,0.27,1.01,0.41,1.54,0.41v-14.18l-11.51-6.65v14.05
				C62.95,203.55,63.13,203.9,63.48,204.1z"/>
		</g>
		<linearGradient id="SVGID_8_" gradientUnits="userSpaceOnUse" x1="62.9525" y1="189.1448" x2="85.9725" y2="189.1448">
			<stop  offset="6.300000e-07" style="stop-color:#FFFFFF"/>
			<stop  offset="1" style="stop-color:#E1E6F0"/>
		</linearGradient>
		<path class="st15" d="M63.48,190.05l9.45,5.46c0.95,0.55,2.12,0.55,3.07,0l9.45-5.46c0.7-0.4,0.7-1.41,0-1.82L76,182.78
			c-0.95-0.55-2.12-0.55-3.07,0l-9.45,5.46C62.78,188.64,62.78,189.65,63.48,190.05z"/>
	</g>
</g>
</svg>
