<?xml version="1.0" encoding="utf-8"?>
<!-- Generator: Adobe Illustrator 25.3.1, SVG Export Plug-In . SVG Version: 6.00 Build 0)  -->
<svg version="1.1" id="Layer_1" xmlns="http://www.w3.org/2000/svg" xmlns:xlink="http://www.w3.org/1999/xlink" x="0px" y="0px"
	 viewBox="0 0 300 300" style="enable-background:new 0 0 300 300;" xml:space="preserve">
<style type="text/css">
	.st0{fill:#5F65A7;}
	.st1{fill:#96A4D3;}
</style>
<g>
	<g>
		<g>
			<path class="st0" d="M46.17,96.24c0-2.61-2.02-5.82-4.51-7.17c-1.3-0.71-2.47-0.76-3.3-0.29l0,0l-3.29,1.79l6.56,10.04l3.29-1.79
				l0,0C45.7,98.4,46.17,97.51,46.17,96.24z"/>
			<ellipse transform="matrix(0.7766 -0.63 0.63 0.7766 -51.6068 45.75)" class="st0" cx="38.7" cy="95.64" rx="2.95" ry="4.51"/>
			<path class="st1" d="M38.26,90.92c-2.49-1.35-4.51-0.33-4.51,2.27c0,2.61,2.02,5.82,4.51,7.17c2.49,1.35,4.51,0.33,4.51-2.27
				C42.77,95.48,40.75,92.27,38.26,90.92z M38.26,98.23c-1.37-0.74-2.48-2.5-2.48-3.94c0-1.43,1.11-1.99,2.48-1.25
				c1.37,0.74,2.48,2.5,2.48,3.94C40.74,98.42,39.63,98.97,38.26,98.23z"/>
		</g>
		<polygon class="st1" points="48.12,96.08 33.55,108.05 38.12,110.53 52.68,98.56 		"/>
		<polygon class="st0" points="48.12,96.08 51.51,94.23 56.08,96.71 52.68,98.56 		"/>
		<polygon class="st0" points="38.12,110.53 52.68,98.56 56.08,96.71 41.51,108.69 		"/>
		<g>
			<path class="st0" d="M55.99,111.51c0-2.61-2.02-5.82-4.51-7.17c-1.3-0.71-2.47-0.76-3.3-0.29l0,0l-3.29,1.79l6.56,10.04
				l3.29-1.79l0,0C55.51,113.66,55.99,112.77,55.99,111.51z"/>
			
				<ellipse transform="matrix(0.7766 -0.63 0.63 0.7766 -59.0295 55.3465)" class="st0" cx="48.52" cy="110.9" rx="2.95" ry="4.51"/>
			<path class="st1" d="M48.08,106.18c-2.49-1.35-4.51-0.33-4.51,2.27c0,2.61,2.02,5.82,4.51,7.17c2.49,1.35,4.51,0.33,4.51-2.27
				S50.57,107.53,48.08,106.18z M48.08,113.5c-1.37-0.74-2.48-2.5-2.48-3.94c0-1.43,1.11-1.99,2.48-1.25
				c1.37,0.74,2.48,2.5,2.48,3.94C50.56,113.68,49.45,114.24,48.08,113.5z"/>
		</g>
	</g>
</g>
</svg>
