<?xml version="1.0" encoding="utf-8"?>
<!-- Generator: Adobe Illustrator 25.3.1, SVG Export Plug-In . SVG Version: 6.00 Build 0)  -->
<svg version="1.1" id="Layer_1" xmlns="http://www.w3.org/2000/svg" xmlns:xlink="http://www.w3.org/1999/xlink" x="0px" y="0px"
	 viewBox="0 0 300 300" style="enable-background:new 0 0 300 300;" xml:space="preserve">
<style type="text/css">
	.st0{fill:#CBD1E6;}
	.st1{fill:#FFFFFF;}
	.st2{fill:#5F65A7;}
</style>
<g>
	<ellipse class="st0" cx="77.8" cy="262.79" rx="8.04" ry="5.25"/>
	<path class="st0" d="M81.15,243.95l0,9.46c0,0.91,0.74,1.65,1.65,1.65s1.65-0.74,1.65-1.65l0-9.46c0-0.91-0.74-1.65-1.65-1.65
		C81.89,242.31,81.15,243.04,81.15,243.95z"/>
	<path class="st1" d="M68.96,247.35c0,4.88,3.96,15.44,8.84,15.44c4.88,0,8.84-10.56,8.84-15.44c0-4.88-3.96-8.84-8.84-8.84
		C72.92,238.52,68.96,242.47,68.96,247.35z"/>
	<circle class="st2" cx="72.79" cy="260.13" r="2.58"/>
	<ellipse class="st0" cx="77.8" cy="242.85" rx="4.41" ry="2.88"/>
	<path class="st0" d="M71.14,249.73l0,9.46c0,0.91,0.74,1.65,1.65,1.65c0.91,0,1.65-0.74,1.65-1.65l0-9.46
		c0-0.91-0.74-1.65-1.65-1.65C71.88,248.08,71.14,248.82,71.14,249.73z"/>
	<ellipse class="st1" cx="77.8" cy="238.42" rx="6.65" ry="5.15"/>
	<path class="st2" d="M82.23,236.72l-3.62,2.09c-0.87,0.5-1.48,1.8-1.36,2.9c0.12,1.1,0.93,1.57,1.8,1.07l3.62-2.09
		c0.87-0.5,1.48-1.8,1.36-2.9C83.91,236.7,83.1,236.22,82.23,236.72z"/>
</g>
</svg>
