<?xml version="1.0" encoding="utf-8"?>
<!-- Generator: Adobe Illustrator 25.3.1, SVG Export Plug-In . SVG Version: 6.00 Build 0)  -->
<svg version="1.1" id="Layer_1" xmlns="http://www.w3.org/2000/svg" xmlns:xlink="http://www.w3.org/1999/xlink" x="0px" y="0px"
	 viewBox="0 0 300 300" style="enable-background:new 0 0 300 300;" xml:space="preserve">
<style type="text/css">
	.st0{fill:url(#SVGID_1_);}
	.st1{fill:url(#SVGID_2_);}
	.st2{fill:url(#SVGID_3_);}
	.st3{fill:url(#SVGID_4_);}
	.st4{fill:url(#SVGID_5_);}
	.st5{fill:#E1E6F0;}
	.st6{fill:#7A8AC5;}
	.st7{fill:#5F65A7;}
	.st8{fill:#96A4D3;}
</style>
<g>
	<g>
		<linearGradient id="SVGID_1_" gradientUnits="userSpaceOnUse" x1="172.935" y1="225.5054" x2="170.5568" y2="221.2248">
			<stop  offset="0" style="stop-color:#DFE7F5"/>
			<stop  offset="1" style="stop-color:#7A8AC5"/>
		</linearGradient>
		<path class="st0" d="M172.48,225.21c0.06-0.22,0.13-0.43,0.22-0.64C172.62,224.78,172.54,224.99,172.48,225.21z"/>
		<linearGradient id="SVGID_2_" gradientUnits="userSpaceOnUse" x1="215.94" y1="199.123" x2="213.6641" y2="195.0264">
			<stop  offset="0" style="stop-color:#DFE7F5"/>
			<stop  offset="1" style="stop-color:#7A8AC5"/>
		</linearGradient>
		<path class="st1" d="M228.67,191.46c-1.19,0.36-2.35,0.86-3.46,1.49l-22.47,12.97l22.47-12.97
			C226.31,192.32,227.47,191.82,228.67,191.46z"/>
		<linearGradient id="SVGID_3_" gradientUnits="userSpaceOnUse" x1="215.9006" y1="233.0357" x2="137.9689" y2="92.7584">
			<stop  offset="0" style="stop-color:#DFE7F5"/>
			<stop  offset="1" style="stop-color:#7A8AC5"/>
		</linearGradient>
		<path class="st2" d="M233.37,190.77c-1.58,0-3.17,0.23-4.7,0.69c-1.19,0.36-2.35,0.86-3.46,1.49l-22.47,12.97l-27.69,15.98
			c-1.12,0.65-1.91,1.59-2.35,2.65c-0.09,0.21-0.16,0.42-0.22,0.64c-0.02,0.07-0.04,0.14-0.06,0.21c-0.54,2.26,0.33,4.82,2.63,6.14
			l5.4,3.12l52.92-30.55V190.77z"/>
		<linearGradient id="SVGID_4_" gradientUnits="userSpaceOnUse" x1="242.7604" y1="192.1881" x2="236.963" y2="192.1881">
			<stop  offset="6.300000e-07" style="stop-color:#FFFFFF"/>
			<stop  offset="1" style="stop-color:#E1E6F0"/>
		</linearGradient>
		<path class="st3" d="M237.92,191.42c1.24,0.36,2.45,0.87,3.6,1.53C240.37,192.29,239.16,191.78,237.92,191.42z"/>
		<linearGradient id="SVGID_5_" gradientUnits="userSpaceOnUse" x1="294.4692" y1="226.5481" x2="294.4472" y2="226.5481">
			<stop  offset="6.300000e-07" style="stop-color:#FFFFFF"/>
			<stop  offset="1" style="stop-color:#E1E6F0"/>
		</linearGradient>
		<path class="st4" d="M294.45,226.36c0.01,0.13,0.01,0.25,0.01,0.38l0,0C294.46,226.61,294.46,226.48,294.45,226.36z"/>
		<path class="st5" d="M291.68,221.91l-50.16-28.96c-1.15-0.66-2.36-1.17-3.6-1.53c-1.49-0.43-3.02-0.65-4.55-0.65v13.36
			l52.92,30.55l5.4-3.12c1.86-1.07,2.79-2.95,2.79-4.82c0-0.13-0.01-0.25-0.01-0.38C294.33,224.61,293.41,222.91,291.68,221.91z"/>
	</g>
	<path class="st6" d="M241.52,260.52l47.55-27.45l-47.55-27.45c-5.05-2.91-11.26-2.91-16.31,0l-47.55,27.45l47.55,27.45
		C230.26,263.44,236.47,263.44,241.52,260.52z"/>
	<g>
		<g>
			<g>
				<path class="st7" d="M226.91,245.28c-0.3-0.06-0.57-0.17-0.79-0.3c0.22-0.13,0.48-0.24,0.76-0.3l0.24-0.06v-2.13
					c-0.24-0.71-0.64-1.37-1.19-1.97l-0.21,0.07c-0.78,0.3-1.79,0.22-2.45-0.24c-0.1-0.07-0.18-0.14-0.25-0.22v-1.62
					c-0.87-0.38-1.83-0.65-2.86-0.82l-0.08,0.15c-0.25,0.59-1.04,1.03-1.98,1.03c-0.93,0-1.71-0.42-1.97-1.01l-0.09-0.17
					c-1.03,0.16-1.99,0.44-2.85,0.82v1.63c-0.07,0.07-0.15,0.14-0.25,0.21c-0.66,0.45-1.64,0.54-2.42,0.25l-0.23-0.08
					c-0.54,0.6-0.95,1.26-1.18,1.98v2.13l0.22,0.05c0.3,0.06,0.57,0.17,0.79,0.3c-0.22,0.13-0.48,0.24-0.76,0.3l-0.24,0.06v2.13
					c0.24,0.71,0.64,1.37,1.19,1.97l0.21-0.07c0.78-0.3,1.79-0.22,2.45,0.24c0.1,0.07,0.18,0.14,0.25,0.22v1.62
					c0.87,0.38,1.83,0.65,2.86,0.82l0.08-0.15c0.25-0.59,1.04-1.03,1.98-1.03c0.93,0,1.71,0.42,1.97,1.01l0.09,0.17
					c1.03-0.16,1.99-0.44,2.85-0.82v-1.63c0.07-0.07,0.15-0.14,0.25-0.21c0.66-0.45,1.64-0.54,2.42-0.25l0.23,0.08
					c0.54-0.6,0.95-1.26,1.18-1.98v-2.13L226.91,245.28z M218.12,247.22c-2.1,0-3.88-0.94-4.52-2.24c0.64-1.3,2.42-2.24,4.52-2.24
					c2.1,0,3.88,0.94,4.52,2.24C222,246.28,220.22,247.22,218.12,247.22z"/>
				<path class="st8" d="M226.91,245.28c-0.86-0.17-1.49-0.72-1.49-1.37c0-0.64,0.61-1.18,1.46-1.36l0.24-0.06
					c-0.24-0.71-0.64-1.37-1.19-1.97l-0.21,0.07c-0.78,0.3-1.79,0.22-2.45-0.24c-0.66-0.45-0.78-1.14-0.37-1.68l0.11-0.16
					c-0.87-0.38-1.83-0.65-2.86-0.82l-0.08,0.15c-0.25,0.59-1.04,1.03-1.98,1.03c-0.93,0-1.71-0.42-1.97-1.01l-0.09-0.17
					c-1.03,0.16-1.99,0.44-2.85,0.82l0.1,0.14c0.43,0.54,0.31,1.24-0.35,1.7c-0.66,0.45-1.64,0.54-2.42,0.25l-0.23-0.08
					c-0.54,0.6-0.95,1.26-1.18,1.98l0.22,0.05c0.86,0.17,1.49,0.72,1.49,1.37c0,0.64-0.61,1.18-1.46,1.36l-0.24,0.06
					c0.24,0.71,0.64,1.37,1.19,1.97l0.21-0.07c0.78-0.3,1.79-0.22,2.45,0.24c0.66,0.45,0.78,1.14,0.37,1.68l-0.11,0.16
					c0.87,0.38,1.83,0.65,2.86,0.82l0.08-0.15c0.25-0.59,1.04-1.03,1.98-1.03c0.93,0,1.71,0.42,1.97,1.01l0.09,0.17
					c1.03-0.16,1.99-0.44,2.85-0.82l-0.1-0.14c-0.43-0.54-0.31-1.24,0.35-1.7c0.66-0.45,1.64-0.54,2.42-0.25l0.23,0.08
					c0.54-0.6,0.95-1.26,1.18-1.98L226.91,245.28z M218.12,247.22c-2.64,0-4.77-1.48-4.77-3.3c0-1.82,2.14-3.3,4.77-3.3
					c2.64,0,4.77,1.48,4.77,3.3C222.9,245.74,220.76,247.22,218.12,247.22z"/>
			</g>
			<g>
				<path class="st7" d="M257.58,230.83c-0.59-0.12-1.12-0.33-1.57-0.6c0.43-0.27,0.94-0.47,1.51-0.59l0.48-0.12v-4.22
					c-0.47-1.41-1.27-2.72-2.35-3.91l-0.41,0.14c-1.55,0.59-3.54,0.43-4.86-0.48c-0.19-0.13-0.36-0.28-0.51-0.43v-3.21
					c-1.72-0.74-3.62-1.3-5.66-1.62l-0.15,0.3c-0.5,1.18-2.06,2.04-3.93,2.04c-1.84,0-3.39-0.84-3.91-2l-0.17-0.34
					c-2.03,0.32-3.94,0.88-5.65,1.63v3.23c-0.14,0.15-0.31,0.29-0.49,0.42c-1.3,0.9-3.26,1.07-4.8,0.5l-0.46-0.15
					c-1.08,1.19-1.88,2.51-2.34,3.91v4.22l0.44,0.1c0.59,0.12,1.12,0.33,1.57,0.6c-0.43,0.27-0.94,0.47-1.51,0.59l-0.48,0.12v4.22
					c0.47,1.41,1.27,2.72,2.35,3.91l0.41-0.14c1.55-0.59,3.54-0.43,4.86,0.48c0.19,0.13,0.36,0.28,0.5,0.43v3.21
					c1.72,0.74,3.62,1.3,5.66,1.62l0.15-0.3c0.5-1.18,2.06-2.04,3.93-2.04c1.84,0,3.39,0.84,3.91,2l0.17,0.34
					c2.03-0.32,3.94-0.88,5.65-1.63v-3.23c0.14-0.15,0.31-0.29,0.49-0.42c1.3-0.9,3.26-1.07,4.8-0.5l0.46,0.15
					c1.08-1.19,1.88-2.51,2.34-3.91v-4.22L257.58,230.83z M240.17,234.67c-4.15,0-7.68-1.85-8.95-4.43c1.27-2.58,4.8-4.43,8.95-4.43
					c4.15,0,7.68,1.85,8.95,4.43C247.84,232.82,244.32,234.67,240.17,234.67z"/>
				<path class="st8" d="M257.58,230.83c-1.7-0.34-2.94-1.43-2.94-2.71c0-1.27,1.21-2.35,2.88-2.7l0.48-0.12
					c-0.47-1.41-1.27-2.72-2.35-3.91l-0.41,0.14c-1.55,0.59-3.54,0.43-4.86-0.48c-1.3-0.9-1.54-2.25-0.72-3.32l0.22-0.32
					c-1.72-0.74-3.62-1.3-5.66-1.62l-0.15,0.3c-0.5,1.18-2.06,2.04-3.93,2.04c-1.84,0-3.39-0.84-3.91-2l-0.17-0.34
					c-2.03,0.32-3.94,0.88-5.65,1.63l0.2,0.29c0.85,1.07,0.62,2.45-0.69,3.36c-1.3,0.9-3.26,1.07-4.8,0.5l-0.46-0.15
					c-1.08,1.19-1.88,2.51-2.34,3.91l0.44,0.1c1.7,0.34,2.94,1.43,2.94,2.71c0,1.27-1.21,2.35-2.88,2.7l-0.48,0.12
					c0.47,1.41,1.27,2.72,2.35,3.91l0.41-0.14c1.55-0.59,3.54-0.43,4.86,0.48c1.3,0.9,1.54,2.25,0.72,3.32l-0.22,0.32
					c1.72,0.74,3.62,1.3,5.66,1.62l0.15-0.3c0.5-1.18,2.06-2.04,3.93-2.04c1.84,0,3.39,0.84,3.91,2l0.17,0.34
					c2.03-0.32,3.94-0.88,5.65-1.63l-0.2-0.29c-0.85-1.07-0.62-2.45,0.69-3.36c1.3-0.9,3.26-1.07,4.8-0.5l0.46,0.15
					c1.08-1.19,1.88-2.51,2.34-3.91L257.58,230.83z M240.17,234.67c-5.22,0-9.46-2.93-9.46-6.54c0-3.61,4.23-6.54,9.46-6.54
					c5.22,0,9.46,2.93,9.46,6.54C249.62,231.75,245.39,234.67,240.17,234.67z"/>
			</g>
		</g>
	</g>
</g>
</svg>
