<?xml version="1.0" encoding="utf-8"?>
<!-- Generator: Adobe Illustrator 25.3.1, SVG Export Plug-In . SVG Version: 6.00 Build 0)  -->
<svg version="1.1" id="Layer_1" xmlns="http://www.w3.org/2000/svg" xmlns:xlink="http://www.w3.org/1999/xlink" x="0px" y="0px"
	 viewBox="0 0 300 300" style="enable-background:new 0 0 300 300;" xml:space="preserve">
<style type="text/css">
	.st0{fill:#96A4D3;}
	.st1{fill:#CBD1E6;}
	.st2{fill:#E1E6F0;}
	.st3{fill:#FFFFFF;}
	.st4{fill:#7A8AC5;}
	.st5{fill:#F9E566;}
	.st6{fill:#FDC892;}
	.st7{fill:#474664;}
	.st8{fill:#272A72;}
	.st9{fill:#E36F6F;}
	.st10{fill:#5F65A7;}
</style>
<g>
	<path class="st0" d="M123.88,146.53l67.82,39.15c6.82,3.94,15.23,3.94,22.05,0l67.82-39.15c5.02-2.9,5.02-10.15,0-13.05
		l-67.82-39.15c-6.82-3.94-15.23-3.94-22.05,0l-67.82,39.15C118.86,136.39,118.86,143.63,123.88,146.53z"/>
	<g>
		<g>
			<path class="st1" d="M244.02,92.47c-1.19-2.06-2.91-3.81-5.04-5.04l-60.12-34.71c-1.57-0.9-3.33-0.79-4.7,0l-2.76,1.59
				l69.36,40.04l0,59.56l2.76-1.59c1.37-0.79,2.35-2.26,2.35-4.07V99.35C245.86,96.89,245.21,94.53,244.02,92.47z"/>
			<path class="st2" d="M176.1,54.31l60.12,34.71c4.26,2.46,6.88,7,6.88,11.92l0,48.89c0,3.62-3.92,5.88-7.05,4.07l-60.12-34.71
				c-4.26-2.46-6.88-7-6.88-11.92l0-48.89C169.04,54.76,172.96,52.5,176.1,54.31z"/>
			<path class="st3" d="M179.81,60.14l49.82,28.76c2.31,1.33,3.73,3.8,3.73,6.47l0,48.56c0,2.11-2.28,3.43-4.11,2.37l-49.82-28.76
				c-2.31-1.33-3.73-3.8-3.73-6.47l0-48.56C175.7,60.4,177.99,59.09,179.81,60.14z"/>
			<ellipse transform="matrix(0.866 -0.5 0.5 0.866 -29.1795 135.4032)" class="st4" cx="238.08" cy="122.15" rx="2.8" ry="4.7"/>
			<path class="st1" d="M172.38,73.71c-0.78-0.45-1.41-0.18-1.41,0.6v16.43c0,0.78,0.63,1.77,1.41,2.22s1.41,0.18,1.41-0.6V75.93
				C173.79,75.15,173.16,74.16,172.38,73.71z"/>
		</g>
		<g>
			<g>
				<polygon class="st4" points="210.21,122.6 210.21,98.05 214.21,100.36 214.21,124.91 				"/>
				<polygon class="st4" points="203.58,117.3 203.58,101.05 207.58,103.36 207.58,119.61 				"/>
				<polygon class="st4" points="196.95,113.47 196.95,102.82 200.95,105.13 200.95,115.78 				"/>
				<polygon class="st4" points="190.32,109.64 190.32,102.82 194.32,105.13 194.32,111.95 				"/>
				<polygon class="st4" points="183.69,105.81 183.69,102.86 187.69,105.17 187.69,108.12 				"/>
			</g>
			<path class="st5" d="M181.28,64.35l22.15,12.79c1.57,0.91,2.54,2.58,2.54,4.39v13.66c0,1.33-1.44,2.17-2.6,1.5L181.22,83.9
				c-1.57-0.91-2.54-2.58-2.54-4.39V65.85C178.68,64.51,180.12,63.68,181.28,64.35z"/>
			<path class="st1" d="M178.82,86.85c0-0.48,0.29-0.7,0.65-0.49l8.43,4.87c0.36,0.21,0.65,0.76,0.65,1.24
				c0,0.48-0.29,0.7-0.65,0.49l-8.43-4.87C179.11,87.88,178.82,87.33,178.82,86.85z"/>
			<path class="st2" d="M183.37,92.91c0-0.48,0.29-0.7,0.65-0.49l8.43,4.87c0.36,0.21,0.65,0.76,0.65,1.24
				c0,0.48-0.29,0.7-0.65,0.49l-8.43-4.87C183.66,93.94,183.37,93.39,183.37,92.91z"/>
			<path class="st2" d="M208.78,83.05c0-1.32,0.8-1.93,1.79-1.36l18.45,10.65c0.99,0.57,1.79,2.11,1.79,3.43
				c0,1.32-0.8,1.93-1.79,1.36l-18.45-10.65C209.59,85.91,208.78,84.37,208.78,83.05z"/>
			<path class="st2" d="M189.61,93.08c0-0.48,0.29-0.7,0.65-0.49l2.31,1.34c0.36,0.21,0.65,0.76,0.65,1.24
				c0,0.48-0.29,0.7-0.65,0.49l-2.31-1.34C189.89,94.11,189.61,93.56,189.61,93.08z"/>
			<path class="st2" d="M178.82,90.23c0-0.48,0.29-0.7,0.65-0.49l2.31,1.34c0.36,0.21,0.65,0.76,0.65,1.24s-0.29,0.7-0.65,0.49
				l-2.31-1.34C179.11,91.26,178.82,90.7,178.82,90.23z"/>
		</g>
	</g>
	<g>
		<ellipse class="st1" cx="172.02" cy="152.1" rx="8.34" ry="4.64"/>
		<g>
			
				<rect x="173.48" y="120.07" transform="matrix(0.4377 0.8991 -0.8991 0.4377 207.8448 -88.3538)" class="st6" width="2.16" height="3.83"/>
			<path class="st6" d="M176.75,122.12c0.54-0.26,0.76-0.91,0.5-1.44c-0.26-0.54-0.91-0.76-1.44-0.5c-0.54,0.26-0.76,0.91-0.5,1.44
				C175.57,122.16,176.21,122.38,176.75,122.12z"/>
		</g>
		<g>
			<polygon class="st6" points="175.43,120.47 177.24,121.65 180.39,115.71 179.69,115.25 			"/>
			<path class="st6" d="M175.37,120.56c-0.33,0.5-0.18,1.17,0.32,1.49c0.5,0.33,1.17,0.18,1.49-0.32c0.33-0.5,0.18-1.17-0.32-1.49
				C176.37,119.92,175.7,120.06,175.37,120.56z"/>
			<circle class="st6" cx="179.86" cy="115.76" r="0.92"/>
		</g>
		
			<rect x="169.99" y="132.27" transform="matrix(-1 -1.224647e-16 1.224647e-16 -1 346.3726 271.8142)" class="st7" width="6.39" height="7.27"/>
		<path class="st8" d="M169.85,122.52l3.78-1.59c0.54-0.23,1.21,0.13,1.49,0.79c0.28,0.67,0.07,1.39-0.48,1.62l-3.78,1.59
			L169.85,122.52z"/>
		<g>
			<path class="st7" d="M170.2,152.86l2.47-1.43c0.55-0.32,0.74-1.03,0.42-1.58l0,0c-0.32-0.55-1.03-0.74-1.58-0.42l-2.47,1.43
				c-0.55,0.32-0.74,1.03-0.42,1.58l0,0C168.93,152.99,169.64,153.18,170.2,152.86z"/>
			<g>
				
					<rect x="169.75" y="131.24" transform="matrix(-1 -1.224647e-16 1.224647e-16 -1 343.0706 272.1345)" class="st6" width="3.57" height="9.65"/>
				<circle class="st6" cx="171.54" cy="140.89" r="1.79"/>
			</g>
			<g>
				<path class="st6" d="M173.25,141.4l-3.49-0.67l-1.04,10.37c-0.04,0.39,0.23,0.75,0.62,0.83l0,0c0.38,0.07,0.76-0.15,0.87-0.53
					L173.25,141.4z"/>
				<circle class="st6" cx="171.54" cy="140.89" r="1.79"/>
			</g>
		</g>
		<g>
			<path class="st7" d="M173.38,154.9l2.47-1.43c0.55-0.32,0.74-1.03,0.42-1.58l0,0c-0.32-0.55-1.03-0.74-1.58-0.42l-2.47,1.43
				c-0.55,0.32-0.74,1.03-0.42,1.58l0,0C172.11,155.02,172.83,155.22,173.38,154.9z"/>
			<g>
				
					<rect x="172.93" y="133.27" transform="matrix(-1 -1.224647e-16 1.224647e-16 -1 349.4362 276.2023)" class="st6" width="3.57" height="9.65"/>
				<circle class="st6" cx="174.72" cy="142.93" r="1.79"/>
			</g>
			<g>
				<path class="st6" d="M176.43,143.43l-3.49-0.67l-1.04,10.37c-0.04,0.39,0.23,0.75,0.62,0.83l0,0c0.38,0.07,0.76-0.15,0.87-0.53
					L176.43,143.43z"/>
				<path class="st6" d="M176.47,143.26c0.18-0.97-0.45-1.9-1.42-2.09c-0.97-0.18-1.9,0.45-2.09,1.42c-0.18,0.97,0.45,1.9,1.42,2.09
					C175.35,144.87,176.29,144.23,176.47,143.26z"/>
			</g>
		</g>
		<circle class="st6" cx="172.02" cy="115.15" r="3.17"/>
		<path class="st9" d="M176.88,123.77c-0.37-2.66-2.54-3.58-4.45-3.58s-3.95,1.9-4.24,4.03c-0.44,3.2,1.47,4.14,1.26,8.08
			c-0.28,5.52-3.87,11.26-3.87,11.26l10.79,3.55C176.37,147.11,178.44,135.1,176.88,123.77z"/>
		<path class="st6" d="M173.32,117.76l0.01,3c0,0.43-0.58,0.78-1.31,0.79c-0.72,0-1.31-0.34-1.31-0.78l-0.01-3L173.32,117.76z"/>
		<g>
			
				<rect x="176.27" y="125.84" transform="matrix(-0.9109 0.4127 -0.4127 -0.9109 391.6233 170.9205)" class="st6" width="2.16" height="3.83"/>
			<path class="st6" d="M177.16,129.94c0.25,0.54,0.89,0.78,1.43,0.54c0.54-0.25,0.78-0.89,0.54-1.43s-0.89-0.78-1.43-0.54
				C177.15,128.76,176.91,129.4,177.16,129.94z"/>
		</g>
		<g>
			<polygon class="st6" points="178.84,128.67 177.62,130.44 183.47,133.76 183.94,133.07 			"/>
			<path class="st6" d="M178.76,128.61c-0.49-0.34-1.16-0.22-1.5,0.27c-0.34,0.49-0.22,1.16,0.27,1.5c0.49,0.34,1.16,0.22,1.5-0.27
				S179.25,128.94,178.76,128.61z"/>
			<circle class="st6" cx="183.43" cy="133.23" r="0.92"/>
		</g>
		<path class="st9" d="M176.79,123.09l1.58,3.79c0.23,0.55-0.13,1.21-0.8,1.49c-0.67,0.28-1.39,0.06-1.62-0.48l-1.58-3.79
			L176.79,123.09z"/>
		<g>
			<g>
				<path class="st7" d="M171.82,111.6c0.57,0,1.1,0.14,1.57,0.38c0.3,0.51,0.47,1.11,0.47,1.74c0,0.31-0.04,0.61-0.12,0.9
					c-0.1-0.04-0.21-0.06-0.33-0.06c-0.55,0-1,0.45-1,1c0,0.29,0.12,0.54,0.31,0.72c-0.62,0.56-1.44,0.91-2.34,0.91
					c-0.57,0-1.1-0.14-1.57-0.38c-0.3-0.51-0.47-1.11-0.47-1.74C168.35,113.15,169.9,111.6,171.82,111.6z"/>
			</g>
			<circle class="st7" cx="169.15" cy="116.76" r="1.42"/>
			<circle class="st7" cx="168.46" cy="118.59" r="1.83"/>
			<circle class="st7" cx="167.89" cy="120.75" r="2.54"/>
		</g>
	</g>
	<g>
		<ellipse class="st1" cx="188.54" cy="167.74" rx="7.04" ry="4.59"/>
		<path class="st1" d="M185.61,151.25l0,8.28c0,0.8-0.65,1.44-1.44,1.44c-0.8,0-1.44-0.65-1.44-1.44l0-8.28
			c0-0.8,0.65-1.44,1.44-1.44C184.96,149.81,185.61,150.45,185.61,151.25z"/>
		<path class="st3" d="M196.28,154.23c0,4.27-3.46,13.51-7.73,13.51c-4.27,0-7.73-9.24-7.73-13.51c0-4.27,3.46-7.73,7.73-7.73
			C192.81,146.49,196.28,149.96,196.28,154.23z"/>
		<circle class="st10" cx="192.92" cy="165.41" r="2.26"/>
		<ellipse class="st1" cx="188.54" cy="150.29" rx="3.86" ry="2.52"/>
		<path class="st1" d="M194.36,156.31l0,8.28c0,0.8-0.65,1.44-1.44,1.44s-1.44-0.65-1.44-1.44l0-8.28c0-0.8,0.65-1.44,1.44-1.44
			C193.72,154.86,194.36,155.51,194.36,156.31z"/>
		<ellipse class="st3" cx="188.54" cy="146.41" rx="5.82" ry="4.51"/>
		<path class="st10" d="M184.66,144.92l3.17,1.83c0.76,0.44,1.3,1.58,1.19,2.53c-0.1,0.96-0.81,1.38-1.57,0.94l-3.17-1.83
			c-0.76-0.44-1.3-1.58-1.19-2.53S183.9,144.48,184.66,144.92z"/>
	</g>
</g>
</svg>
