<?xml version="1.0" encoding="utf-8"?>
<!-- Generator: Adobe Illustrator 25.3.1, SVG Export Plug-In . SVG Version: 6.00 Build 0)  -->
<svg version="1.1" id="Layer_1" xmlns="http://www.w3.org/2000/svg" xmlns:xlink="http://www.w3.org/1999/xlink" x="0px" y="0px"
	 viewBox="0 0 300 300" style="enable-background:new 0 0 300 300;" xml:space="preserve">
<style type="text/css">
	.st0{display:none;}
	.st1{display:inline;opacity:0.5;fill:#6DCACE;enable-background:new    ;}
	.st2{display:inline;fill:#6DCACE;}
	.st3{fill:url(#SVGID_1_);}
	.st4{fill:url(#SVGID_2_);}
	.st5{fill:url(#SVGID_3_);}
	.st6{fill:url(#SVGID_4_);}
	.st7{fill:url(#SVGID_5_);}
	.st8{fill:#FFFFFF;}
</style>
<g id="Layer_1_1_">
	<g class="st0">
		<polygon class="st1" points="170.37,42.2 160.93,37.88 160.93,35.82 170.37,40.14 		"/>
		<polygon class="st1" points="175.21,44.41 171.81,42.86 171.81,40.8 175.21,42.35 		"/>
		<polygon class="st1" points="178.96,46.13 176.65,45.07 176.65,43.01 178.96,44.07 		"/>
		<polygon class="st1" points="166.08,44.93 160.93,42.58 160.93,40.52 166.08,42.87 		"/>
		<polygon class="st1" points="173.82,48.48 167.52,45.59 167.52,43.53 173.82,46.42 		"/>
		<polygon class="st1" points="177.57,50.19 175.26,49.14 175.26,47.08 177.57,48.13 		"/>
		<polygon class="st1" points="181.14,51.83 178.83,50.77 178.83,48.71 181.14,49.77 		"/>
		<polygon class="st2" points="164.65,48.99 160.93,47.28 160.93,45.23 164.65,46.93 		"/>
		<polygon class="st2" points="167.37,50.23 166.1,49.65 166.1,47.59 167.37,48.17 		"/>
		<polygon class="st1" points="171.12,51.94 168.81,50.89 168.81,48.83 171.12,49.89 		"/>
		<polygon class="st1" points="174.66,58.27 160.93,51.99 160.93,49.93 174.66,56.21 		"/>
		<polygon class="st1" points="179.5,60.49 176.11,58.93 176.11,56.87 179.5,58.43 		"/>
		<polygon class="st1" points="164.65,58.39 160.93,56.69 160.93,54.63 164.65,56.33 		"/>
		<polygon class="st1" points="173.38,62.39 166.1,59.05 166.1,56.99 173.38,60.33 		"/>
		<polygon class="st1" points="177.13,64.11 174.83,63.05 174.83,60.99 177.13,62.05 		"/>
		<polygon class="st1" points="168.55,64.88 160.93,61.4 160.93,59.34 168.55,62.82 		"/>
		<polygon class="st2" points="175.49,68.06 169.99,65.54 169.99,63.48 175.49,66 		"/>
		<polygon class="st1" points="180.65,70.42 176.93,68.72 176.93,66.66 180.65,68.36 		"/>
		<polygon class="st1" points="163.5,67.28 160.93,66.1 160.93,64.04 163.5,65.22 		"/>
		<polygon class="st1" points="168.34,69.49 164.95,67.93 164.95,65.88 168.34,67.43 		"/>
		<polygon class="st1" points="175.26,72.65 169.78,70.15 169.78,68.09 175.26,70.6 		"/>
		<polygon class="st1" points="168.81,74.41 160.93,70.8 160.93,68.74 168.81,72.35 		"/>
		<polygon class="st1" points="177.63,78.44 170.25,75.07 170.25,73.01 177.63,76.38 		"/>
		<polygon class="st2" points="181.38,80.16 179.07,79.1 179.07,77.04 181.38,78.1 		"/>
		<polygon class="st1" points="184.98,81.81 182.67,80.75 182.67,78.69 184.98,79.75 		"/>
		<polygon class="st1" points="165.65,77.67 160.93,75.51 160.93,73.45 165.65,75.61 		"/>
		<polygon class="st2" points="185.38,49.07 191.92,52.06 191.92,50 185.38,47.01 		"/>
		<polygon class="st1" points="186.78,54.41 191.92,56.76 191.92,54.71 186.78,52.35 		"/>
		<polygon class="st1" points="188.2,59.77 191.92,61.47 191.92,59.41 188.2,57.71 		"/>
		<polygon class="st1" points="186.51,63.7 191.92,66.17 191.92,64.11 186.51,61.64 		"/>
		<polygon class="st1" points="188.2,69.17 191.92,70.88 191.92,68.82 188.2,67.11 		"/>
		<polygon class="st1" points="187.21,73.42 191.92,75.58 191.92,73.52 187.21,71.36 		"/>
		<polygon class="st1" points="189.35,79.11 191.92,80.28 191.92,78.22 189.35,77.05 		"/>
		<polygon class="st1" points="186.94,82.71 191.92,84.99 191.92,82.93 186.94,80.65 		"/>
		<polygon class="st1" points="187.21,87.53 191.92,89.69 191.92,87.63 187.21,85.47 		"/>
		<polygon class="st1" points="169.1,79.24 167.09,78.32 167.09,76.27 169.1,77.18 		"/>
		<polygon class="st1" points="175.06,81.97 170.54,79.9 170.54,77.84 175.06,79.91 		"/>
		<polygon class="st1" points="206.96,58.86 197.52,54.54 197.52,52.48 206.96,56.8 		"/>
		<polygon class="st1" points="211.8,61.08 208.4,59.52 208.4,57.46 211.8,59.02 		"/>
		<polygon class="st2" points="215.55,62.79 213.24,61.73 213.24,59.68 215.55,60.73 		"/>
		<polygon class="st1" points="202.66,61.6 197.52,59.25 197.52,57.19 202.66,59.54 		"/>
		<polygon class="st1" points="210.41,65.14 204.11,62.26 204.11,60.2 210.41,63.08 		"/>
		<polygon class="st2" points="214.16,66.86 211.85,65.8 211.85,63.74 214.16,64.8 		"/>
		<polygon class="st1" points="217.72,68.49 215.42,67.43 215.42,65.38 217.72,66.43 		"/>
		<polygon class="st1" points="201.24,65.65 197.52,63.95 197.52,61.89 201.24,63.59 		"/>
		<polygon class="st1" points="203.96,66.89 202.68,66.31 202.68,64.25 203.96,64.83 		"/>
		<polygon class="st1" points="207.71,68.61 205.4,67.55 205.4,65.49 207.71,66.55 		"/>
		<polygon class="st1" points="211.25,74.94 197.52,68.65 197.52,66.59 211.25,72.88 		"/>
		<polygon class="st1" points="216.09,77.15 212.69,75.6 212.69,73.54 216.09,75.09 		"/>
		<polygon class="st1" points="201.24,75.06 197.52,73.36 197.52,71.3 201.24,73 		"/>
		<polygon class="st1" points="209.97,79.05 202.68,75.72 202.68,73.66 209.97,77 		"/>
		<polygon class="st1" points="213.72,80.77 211.41,79.71 211.41,77.66 213.72,78.71 		"/>
		<polygon class="st2" points="205.13,81.54 197.52,78.06 197.52,76 205.13,79.48 		"/>
		<polygon class="st1" points="212.08,84.72 206.58,82.2 206.58,80.14 212.08,82.66 		"/>
		<polygon class="st1" points="217.24,87.08 213.52,85.38 213.52,83.32 217.24,85.03 		"/>
		<polygon class="st1" points="200.09,83.94 197.52,82.76 197.52,80.7 200.09,81.88 		"/>
		<polygon class="st1" points="204.93,86.15 201.53,84.6 201.53,82.54 204.93,84.1 		"/>
		<polygon class="st2" points="211.85,89.32 206.37,86.81 206.37,84.76 211.85,87.26 		"/>
		<polygon class="st1" points="205.4,91.07 197.52,87.47 197.52,85.41 205.4,89.01 		"/>
		<polygon class="st1" points="214.22,95.11 206.84,91.73 206.84,89.67 214.22,93.05 		"/>
		<polygon class="st1" points="217.97,96.82 215.66,95.77 215.66,93.71 217.97,94.76 		"/>
		<polygon class="st1" points="221.56,98.47 219.26,97.41 219.26,95.36 221.56,96.41 		"/>
		<polygon class="st1" points="202.24,94.33 197.52,92.17 197.52,90.11 202.24,92.27 		"/>
		<polygon class="st2" points="221.97,65.73 228.51,68.73 228.51,66.67 221.97,63.67 		"/>
		<polygon class="st1" points="223.37,71.08 228.51,73.43 228.51,71.37 223.37,69.02 		"/>
		<polygon class="st1" points="224.79,76.43 228.51,78.13 228.51,76.07 224.79,74.37 		"/>
		<polygon class="st1" points="223.1,80.36 228.51,82.84 228.51,80.78 223.1,78.3 		"/>
		<polygon class="st1" points="224.79,85.84 228.51,87.54 228.51,85.48 224.79,83.78 		"/>
		<polygon class="st1" points="223.8,90.08 228.51,92.24 228.51,90.18 223.8,88.03 		"/>
		<polygon class="st1" points="225.94,95.77 228.51,96.95 228.51,94.89 225.94,93.71 		"/>
		<polygon class="st1" points="223.53,99.37 228.51,101.65 228.51,99.59 223.53,97.31 		"/>
		<polygon class="st1" points="223.8,104.2 228.51,106.35 228.51,104.3 223.8,102.14 		"/>
		<polygon class="st2" points="205.69,95.91 203.68,94.99 203.68,92.93 205.69,93.85 		"/>
		<polygon class="st1" points="211.65,98.63 207.13,96.57 207.13,94.51 211.65,96.58 		"/>
		<polygon class="st1" points="170.37,84.56 160.93,80.24 160.93,78.18 170.37,82.5 		"/>
		<polygon class="st1" points="175.21,86.77 171.81,85.21 171.81,83.16 175.21,84.71 		"/>
		<polygon class="st1" points="178.96,88.49 176.65,87.43 176.65,85.37 178.96,86.43 		"/>
		<polygon class="st1" points="166.08,87.29 160.93,84.94 160.93,82.88 166.08,85.23 		"/>
		<polygon class="st1" points="173.82,90.84 167.52,87.95 167.52,85.89 173.82,88.78 		"/>
		<polygon class="st1" points="177.57,92.55 175.26,91.5 175.26,89.44 177.57,90.49 		"/>
		<polygon class="st1" points="181.14,94.19 178.83,93.13 178.83,91.07 181.14,92.13 		"/>
		<polygon class="st1" points="164.65,91.35 160.93,89.64 160.93,87.58 164.65,89.29 		"/>
		<polygon class="st1" points="167.37,92.59 166.1,92.01 166.1,89.95 167.37,90.53 		"/>
		<polygon class="st1" points="171.12,94.3 168.81,93.25 168.81,91.19 171.12,92.25 		"/>
		<polygon class="st1" points="174.66,100.63 160.93,94.35 160.93,92.29 174.66,98.57 		"/>
		<polygon class="st1" points="179.5,102.85 176.11,101.29 176.11,99.23 179.5,100.79 		"/>
		<polygon class="st1" points="164.65,100.75 160.93,99.05 160.93,96.99 164.65,98.69 		"/>
		<polygon class="st1" points="173.38,104.75 166.1,101.41 166.1,99.35 173.38,102.69 		"/>
		<polygon class="st1" points="177.13,106.47 174.83,105.41 174.83,103.35 177.13,104.41 		"/>
		<polygon class="st1" points="168.55,107.24 160.93,103.75 160.93,101.7 168.55,105.18 		"/>
		<polygon class="st1" points="175.49,110.42 169.99,107.9 169.99,105.84 175.49,108.36 		"/>
		<polygon class="st1" points="180.65,112.78 176.93,111.08 176.93,109.02 180.65,110.72 		"/>
		<polygon class="st1" points="163.5,109.63 160.93,108.46 160.93,106.4 163.5,107.58 		"/>
		<polygon class="st1" points="168.34,111.85 164.95,110.29 164.95,108.24 168.34,109.79 		"/>
		<polygon class="st1" points="175.26,115.01 169.78,112.51 169.78,110.45 175.26,112.96 		"/>
		<polygon class="st1" points="168.81,116.77 160.93,113.16 160.93,111.1 168.81,114.71 		"/>
		<polygon class="st1" points="177.63,120.8 170.25,117.43 170.25,115.37 177.63,118.74 		"/>
		<polygon class="st1" points="181.38,122.52 179.07,121.46 179.07,119.4 181.38,120.46 		"/>
		<polygon class="st1" points="184.98,124.17 182.67,123.11 182.67,121.05 184.98,122.11 		"/>
		<polygon class="st1" points="165.65,120.02 160.93,117.87 160.93,115.81 165.65,117.97 		"/>
		<polygon class="st1" points="185.38,91.43 191.92,94.42 191.92,92.36 185.38,89.37 		"/>
		<polygon class="st1" points="186.78,96.77 191.92,99.12 191.92,97.06 186.78,94.71 		"/>
		<polygon class="st1" points="188.2,102.12 191.92,103.83 191.92,101.77 188.2,100.07 		"/>
		<polygon class="st1" points="186.51,106.05 191.92,108.53 191.92,106.47 186.51,104 		"/>
		<polygon class="st1" points="188.2,111.53 191.92,113.23 191.92,111.18 188.2,109.47 		"/>
		<polygon class="st1" points="187.21,115.78 191.92,117.94 191.92,115.88 187.21,113.72 		"/>
		<polygon class="st1" points="189.35,121.47 191.92,122.64 191.92,120.58 189.35,119.41 		"/>
		<polygon class="st1" points="186.94,125.07 191.92,127.35 191.92,125.29 186.94,123.01 		"/>
		<polygon class="st1" points="187.21,129.89 191.92,132.05 191.92,129.99 187.21,127.83 		"/>
		<polygon class="st1" points="169.1,121.6 167.09,120.68 167.09,118.63 169.1,119.54 		"/>
		<polygon class="st1" points="175.06,124.33 170.54,122.26 170.54,120.2 175.06,122.27 		"/>
		<polygon class="st1" points="178.79,139.72 171.17,136.23 171.17,134.17 178.79,137.66 		"/>
		<polygon class="st1" points="184.01,142.11 181.01,140.73 181.01,138.67 184.01,140.05 		"/>
		<polygon class="st1" points="206.96,101.22 197.52,96.9 197.52,94.84 206.96,99.16 		"/>
		<polygon class="st1" points="211.8,103.43 208.4,101.88 208.4,99.82 211.8,101.38 		"/>
		<polygon class="st1" points="215.55,105.15 213.24,104.09 213.24,102.04 215.55,103.09 		"/>
		<polygon class="st1" points="202.66,103.96 197.52,101.61 197.52,99.55 202.66,101.9 		"/>
		<polygon class="st1" points="210.41,107.5 204.11,104.62 204.11,102.56 210.41,105.44 		"/>
		<polygon class="st1" points="214.16,109.22 211.85,108.16 211.85,106.1 214.16,107.16 		"/>
		<polygon class="st1" points="217.72,110.85 215.42,109.79 215.42,107.74 217.72,108.79 		"/>
		<polygon class="st1" points="201.24,108.01 197.52,106.31 197.52,104.25 201.24,105.95 		"/>
		<polygon class="st1" points="203.96,109.25 202.68,108.67 202.68,106.61 203.96,107.19 		"/>
		<polygon class="st1" points="207.71,110.97 205.4,109.91 205.4,107.85 207.71,108.91 		"/>
		<polygon class="st1" points="211.25,117.3 197.52,111.01 197.52,108.95 211.25,115.24 		"/>
		<polygon class="st1" points="216.09,119.51 212.69,117.96 212.69,115.9 216.09,117.45 		"/>
		<polygon class="st1" points="201.24,117.42 197.52,115.72 197.52,113.66 201.24,115.36 		"/>
		<polygon class="st1" points="209.97,121.41 202.68,118.08 202.68,116.02 209.97,119.35 		"/>
		<polygon class="st1" points="213.72,123.13 211.41,122.07 211.41,120.01 213.72,121.07 		"/>
		<polygon class="st1" points="205.13,123.9 197.52,120.42 197.52,118.36 205.13,121.84 		"/>
		<polygon class="st1" points="212.08,127.08 206.58,124.56 206.58,122.5 212.08,125.02 		"/>
		<polygon class="st1" points="217.24,129.44 213.52,127.74 213.52,125.68 217.24,127.38 		"/>
		<polygon class="st1" points="200.09,126.3 197.52,125.12 197.52,123.06 200.09,124.24 		"/>
		<polygon class="st1" points="204.93,128.51 201.53,126.96 201.53,124.9 204.93,126.46 		"/>
		<polygon class="st1" points="211.85,131.68 206.37,129.17 206.37,127.12 211.85,129.62 		"/>
		<polygon class="st1" points="205.4,133.43 197.52,129.83 197.52,127.77 205.4,131.37 		"/>
		<polygon class="st1" points="214.22,137.47 206.84,134.09 206.84,132.03 214.22,135.41 		"/>
		<polygon class="st1" points="217.97,139.18 215.66,138.13 215.66,136.07 217.97,137.12 		"/>
		<polygon class="st1" points="221.56,140.83 219.26,139.77 219.26,137.71 221.56,138.77 		"/>
		<polygon class="st1" points="202.24,136.69 197.52,134.53 197.52,132.47 202.24,134.63 		"/>
		<polygon class="st1" points="221.97,108.09 228.51,111.09 228.51,109.03 221.97,106.03 		"/>
		<polygon class="st1" points="223.37,113.44 228.51,115.79 228.51,113.73 223.37,111.38 		"/>
		<polygon class="st1" points="224.79,118.79 228.51,120.49 228.51,118.43 224.79,116.73 		"/>
		<polygon class="st1" points="223.1,122.72 228.51,125.2 228.51,123.14 223.1,120.66 		"/>
		<polygon class="st1" points="224.79,128.2 228.51,129.9 228.51,127.84 224.79,126.14 		"/>
		<polygon class="st1" points="223.8,132.44 228.51,134.6 228.51,132.54 223.8,130.38 		"/>
		<polygon class="st1" points="225.94,138.13 228.51,139.31 228.51,137.25 225.94,136.07 		"/>
		<polygon class="st1" points="223.53,141.73 228.51,144.01 228.51,141.95 223.53,139.67 		"/>
		<polygon class="st1" points="223.8,146.55 228.51,148.71 228.51,146.65 223.8,144.5 		"/>
		<polygon class="st1" points="205.69,138.27 203.68,137.35 203.68,135.29 205.69,136.21 		"/>
		<polygon class="st1" points="211.65,140.99 207.13,138.93 207.13,136.87 211.65,138.94 		"/>
		<polygon class="st1" points="215.38,156.38 207.76,152.89 207.76,150.84 215.38,154.32 		"/>
		<polygon class="st1" points="220.6,158.77 217.6,157.4 217.6,155.34 220.6,156.71 		"/>
	</g>
	<g>
		
			<linearGradient id="SVGID_1_" gradientUnits="userSpaceOnUse" x1="241.2132" y1="146.6447" x2="241.2132" y2="146.6447" gradientTransform="matrix(1.1366 -0.3893 0 1 -28.7529 92.0696)">
			<stop  offset="0" style="stop-color:#6DCACE"/>
			<stop  offset="0.1324" style="stop-color:#6DC5CC"/>
			<stop  offset="0.2886" style="stop-color:#6BBCCA"/>
			<stop  offset="0.4568" style="stop-color:#67ADC6"/>
			<stop  offset="0.6335" style="stop-color:#6399BF"/>
			<stop  offset="0.8167" style="stop-color:#5F7FB6"/>
			<stop  offset="1" style="stop-color:#5A64AD"/>
		</linearGradient>
		<path class="st3" d="M245.41,144.81L245.41,144.81L245.41,144.81z"/>
		<g>
			
				<linearGradient id="SVGID_2_" gradientUnits="userSpaceOnUse" x1="313.6537" y1="-56.242" x2="378.5248" y2="-56.242" gradientTransform="matrix(-0.8818 -0.2625 -0.1059 1.1872 534.1279 264.0699)">
				<stop  offset="0" style="stop-color:#5A64AD"/>
				<stop  offset="0.1564" style="stop-color:#5E66AF"/>
				<stop  offset="0.3409" style="stop-color:#686EB4"/>
				<stop  offset="0.5395" style="stop-color:#7A7DBC"/>
				<stop  offset="0.7481" style="stop-color:#9393C8"/>
				<stop  offset="0.9625" style="stop-color:#B6B5DB"/>
				<stop  offset="1" style="stop-color:#BEBDDF"/>
			</linearGradient>
			<path class="st4" d="M216.02,94.99c1.45,0.43,2.78,1.23,3.94,2.29c2.27-5.97,7.85-9.14,13.96-7.33
				c5.05,1.5,9.17,6.04,11.07,11.51c0.81-0.2,1.69-0.18,2.6,0.09c3.3,0.98,5.69,4.89,5.35,8.73c-0.01,0.08-0.02,0.16-0.03,0.24
				c0.98-0.2,2.05-0.16,3.14,0.16c4.22,1.25,7.28,6.26,6.84,11.17s-4.21,7.88-8.43,6.63l-40.35-12.01
				c-5.09-1.51-8.78-7.55-8.26-13.48C206.37,97.06,210.93,93.48,216.02,94.99z"/>
			
				<radialGradient id="SVGID_3_" cx="404.5252" cy="93.1272" r="26.7933" fx="379.2581" fy="84.2137" gradientTransform="matrix(-1.0712 0.2906 -0.0917 1.0282 692.7733 -111.8201)" gradientUnits="userSpaceOnUse">
				<stop  offset="0" style="stop-color:#2F2E7A"/>
				<stop  offset="1" style="stop-color:#211C58"/>
			</radialGradient>
			<path class="st5" d="M216.02,94.99c0.84,0.25,1.64,0.63,2.39,1.1l4.98-3.92l0,0c2.76-2.47,6.53-3.41,10.52-2.23
				c5.05,1.5,9.17,6.04,11.07,11.51c0.81-0.2,1.69-0.18,2.6,0.09c3.3,0.98,5.69,4.89,5.35,8.73c-0.01,0.08-0.02,0.16-0.03,0.24
				c0.98-0.2,2.05-0.16,3.14,0.16c4.22,1.25,7.28,6.26,6.84,11.17c-0.22,2.44-1.26,4.39-2.76,5.59l0,0l-0.04,0.03
				c0,0-0.01,0-0.01,0.01l-12.2,9.63l-1.49-11.03l-32.28-9.61c-5.09-1.51-8.78-7.55-8.26-13.48
				C206.37,97.06,210.93,93.48,216.02,94.99z"/>
			
				<linearGradient id="SVGID_4_" gradientUnits="userSpaceOnUse" x1="391.3328" y1="101.515" x2="455.9016" y2="101.515" gradientTransform="matrix(-1.0712 0.2906 -0.0917 1.0282 692.7733 -111.8201)">
				<stop  offset="0" style="stop-color:#7F9AC1"/>
				<stop  offset="0.2157" style="stop-color:#849CC3"/>
				<stop  offset="0.4699" style="stop-color:#90A2C8"/>
				<stop  offset="0.7425" style="stop-color:#A4ADD1"/>
				<stop  offset="1" style="stop-color:#BEBDDF"/>
			</linearGradient>
			<path class="st6" d="M196.8,106.01l12.37-9.76l0,0c1.85-1.48,4.28-2.02,6.85-1.25c0.84,0.25,1.64,0.63,2.39,1.1l4.98-3.92l0,0
				c2.76-2.47,6.53-3.41,10.52-2.23c5.05,1.5,9.17,6.04,11.07,11.51c0.81-0.2,1.69-0.18,2.6,0.09c3.3,0.98,5.69,4.89,5.35,8.73
				c-0.01,0.08-0.02,0.16-0.03,0.24c0.98-0.2,2.05-0.16,3.14,0.16c4.22,1.25,7.28,6.26,6.84,11.17c-0.22,2.44-1.26,4.39-2.76,5.59
				l0,0l-0.04,0.03c0,0-0.01,0-0.01,0.01l-12.2,9.63l-1.49-11.03l-32.28-9.61c-4.13-1.23-7.33-5.43-8.12-10.13L196.8,106.01z"/>
			
				<linearGradient id="SVGID_5_" gradientUnits="userSpaceOnUse" x1="326.2344" y1="-45.3235" x2="391.1056" y2="-45.3235" gradientTransform="matrix(-0.8818 -0.2625 -0.1059 1.1872 534.1279 264.0699)">
				<stop  offset="0" style="stop-color:#C2BEDF"/>
				<stop  offset="0.3027" style="stop-color:#C6C3E2"/>
				<stop  offset="0.6588" style="stop-color:#D4D2E9"/>
				<stop  offset="1" style="stop-color:#E8E8F4"/>
			</linearGradient>
			<path class="st7" d="M203.77,104.65c1.45,0.43,2.78,1.23,3.94,2.29c2.27-5.97,7.85-9.14,13.96-7.33
				c5.05,1.5,9.17,6.04,11.07,11.51c0.81-0.2,1.69-0.18,2.6,0.09c3.3,0.98,5.69,4.89,5.35,8.73c-0.01,0.08-0.02,0.16-0.03,0.24
				c0.98-0.2,2.05-0.16,3.14,0.16c4.22,1.25,7.28,6.26,6.84,11.17c-0.44,4.92-4.21,7.88-8.43,6.63l-40.35-12.01
				c-5.09-1.51-8.78-7.55-8.26-13.48C194.13,106.72,198.69,103.14,203.77,104.65z"/>
			<g>
				<path class="st8" d="M207.71,106.94c-1.16-1.06-2.49-1.85-3.94-2.29c-3.12-0.93-6.03,0.06-7.94,2.32
					c1.9-2.53,4.96-3.68,8.25-2.71c1.4,0.42,2.7,1.18,3.83,2.19C207.84,106.62,207.78,106.78,207.71,106.94z"/>
				<path class="st8" d="M250.63,131.52c0.44-4.91-2.62-9.92-6.84-11.17c-1.09-0.33-2.16-0.36-3.14-0.16
					c0.01-0.08,0.03-0.16,0.03-0.24c0.34-3.84-2.05-7.75-5.35-8.73c-0.91-0.27-1.79-0.28-2.6-0.09c-1.9-5.47-6.02-10.01-11.07-11.51
					c-4.63-1.38-8.95,0.11-11.76,3.51c2.8-3.67,7.27-5.32,12.06-3.89c5.05,1.5,9.17,6.04,11.07,11.51c0.81-0.2,1.69-0.18,2.6,0.09
					c3.3,0.98,5.69,4.89,5.35,8.73c-0.01,0.08-0.02,0.16-0.03,0.24c0.98-0.2,2.05-0.16,3.14,0.16c4.22,1.25,7.28,6.26,6.84,11.17
					c-0.17,1.93-0.86,3.55-1.89,4.75C249.9,134.73,250.48,133.25,250.63,131.52z"/>
			</g>
		</g>
	</g>
</g>
</svg>
