<?xml version="1.0" encoding="utf-8"?>
<!-- Generator: Adobe Illustrator 25.3.1, SVG Export Plug-In . SVG Version: 6.00 Build 0)  -->
<svg version="1.1" id="Layer_1" xmlns="http://www.w3.org/2000/svg" xmlns:xlink="http://www.w3.org/1999/xlink" x="0px" y="0px"
	 viewBox="0 0 300 300" style="enable-background:new 0 0 300 300;" xml:space="preserve">
<style type="text/css">
	.st0{enable-background:new    ;}
	.st1{fill:#FFFFFF;}
	.st2{fill:#9B9B9B;}
	.st3{fill:#C1C0C0;}
	.st4{fill:#B5BAC2;}
	.st5{fill:#85888D;}
	.st6{fill:#A4A8AF;}
	.st7{fill:#8491A5;}
	.st8{fill:#616B79;}
	.st9{fill:#778395;}
	.st10{clip-path:url(#SVGID_2_);enable-background:new    ;}
	.st11{fill:#6F7B8B;}
	.st12{fill:#818181;}
	.st13{clip-path:url(#SVGID_4_);enable-background:new    ;}
	.st14{clip-path:url(#SVGID_6_);enable-background:new    ;}
	.st15{fill:#B4B4B4;}
	.st16{fill:#B9B9B9;}
	.st17{clip-path:url(#SVGID_8_);enable-background:new    ;}
	.st18{clip-path:url(#SVGID_10_);enable-background:new    ;}
	.st19{fill:#6C7787;}
	.st20{clip-path:url(#SVGID_12_);enable-background:new    ;}
	.st21{clip-path:url(#SVGID_14_);enable-background:new    ;}
	.st22{fill:#A9A8A8;}
	.st23{fill:#AEAEAE;}
	.st24{clip-path:url(#SVGID_16_);enable-background:new    ;}
	.st25{clip-path:url(#SVGID_18_);enable-background:new    ;}
	.st26{fill:#8F949A;}
	.st27{clip-path:url(#SVGID_20_);enable-background:new    ;}
	.st28{fill:#989898;}
	.st29{fill:#9E9E9E;}
	.st30{fill:#A3A3A2;}
	.st31{clip-path:url(#SVGID_22_);enable-background:new    ;}
	.st32{fill:#72757A;}
	.st33{fill:#75787D;}
	.st34{clip-path:url(#SVGID_24_);enable-background:new    ;}
	.st35{fill:#7A7E83;}
	.st36{clip-path:url(#SVGID_26_);enable-background:new    ;}
	.st37{fill:#535B68;}
	.st38{clip-path:url(#SVGID_28_);enable-background:new    ;}
	.st39{clip-path:url(#SVGID_30_);enable-background:new    ;}
	.st40{fill:#858585;}
	.st41{clip-path:url(#SVGID_32_);enable-background:new    ;}
	.st42{fill:#565F6C;}
	.st43{fill:#596270;}
	.st44{clip-path:url(#SVGID_34_);enable-background:new    ;}
	.st45{clip-path:url(#SVGID_36_);enable-background:new    ;}
	.st46{clip-path:url(#SVGID_38_);enable-background:new    ;}
	.st47{fill:#989CA2;}
	.st48{fill:#94989E;}
	.st49{fill:#8B9095;}
	.st50{fill:#878B91;}
	.st51{fill:#83868B;}
	.st52{clip-path:url(#SVGID_40_);enable-background:new    ;}
	.st53{clip-path:url(#SVGID_42_);enable-background:new    ;}
	.st54{clip-path:url(#SVGID_44_);enable-background:new    ;}
	.st55{clip-path:url(#SVGID_46_);enable-background:new    ;}
	.st56{clip-path:url(#SVGID_48_);enable-background:new    ;}
	.st57{clip-path:url(#SVGID_50_);enable-background:new    ;}
	.st58{fill:#D6D5D5;}
	.st59{clip-path:url(#SVGID_52_);enable-background:new    ;}
	.st60{clip-path:url(#SVGID_54_);enable-background:new    ;}
	.st61{clip-path:url(#SVGID_56_);enable-background:new    ;}
	.st62{clip-path:url(#SVGID_58_);enable-background:new    ;}
	.st63{clip-path:url(#SVGID_60_);enable-background:new    ;}
	.st64{fill:#A7ACB3;}
	.st65{clip-path:url(#SVGID_62_);enable-background:new    ;}
	.st66{clip-path:url(#SVGID_64_);enable-background:new    ;}
	.st67{clip-path:url(#SVGID_66_);enable-background:new    ;}
	.st68{clip-path:url(#SVGID_68_);enable-background:new    ;}
	.st69{clip-path:url(#SVGID_70_);enable-background:new    ;}
	.st70{clip-path:url(#SVGID_72_);enable-background:new    ;}
	.st71{clip-path:url(#SVGID_74_);enable-background:new    ;}
	.st72{clip-path:url(#SVGID_76_);enable-background:new    ;}
	.st73{fill:#727980;}
	.st74{clip-path:url(#SVGID_78_);enable-background:new    ;}
	.st75{fill:#525C69;}
	.st76{clip-path:url(#SVGID_80_);enable-background:new    ;}
	.st77{fill:#908F8F;}
	.st78{fill:#959494;}
	.st79{clip-path:url(#SVGID_82_);enable-background:new    ;}
	.st80{fill:#BDBDBD;}
	.st81{clip-path:url(#SVGID_84_);enable-background:new    ;}
</style>
<g id="Layer_3">
	<g>
		<g class="st0">
			<g>
				<path class="st1" d="M65.04,88.69l0.47,18.79c0.05,1.99-0.35,4.06-1.07,5.87l-0.6-24.03L65.04,88.69z"/>
			</g>
			<g>
				<polygon class="st2" points="64.44,113.35 59.62,112.1 59.02,88.07 63.84,89.32 				"/>
			</g>
			<g>
				<polygon class="st3" points="63.84,89.32 59.02,88.07 60.22,87.44 65.04,88.69 				"/>
			</g>
		</g>
		<g class="st0">
			<g>
				<path class="st4" d="M63.84,89.32l0.6,24.03c-0.08,0.19-0.15,0.38-0.24,0.56l-0.61-24.47L63.84,89.32z"/>
			</g>
			<g>
				<polygon class="st5" points="64.21,113.91 59.38,112.67 58.77,88.2 63.59,89.45 				"/>
			</g>
			<g>
				<polygon class="st6" points="63.59,89.45 58.77,88.2 59.02,88.07 63.84,89.32 				"/>
			</g>
		</g>
		<g class="st0">
			<g>
				<polygon class="st7" points="64.84,82.17 65.04,88.69 63.84,89.32 63.64,82.8 				"/>
			</g>
			<g>
				<polygon class="st8" points="63.84,89.32 59.02,88.07 58.81,81.55 63.64,82.8 				"/>
			</g>
			<g>
				<polygon class="st9" points="63.64,82.8 58.81,81.55 60.01,80.92 64.84,82.17 				"/>
			</g>
		</g>
		<g class="st0">
			<g>
				<path class="st4" d="M63.19,64.91c0.79,1.03,1.28,2.62,1.33,4.61l0.32,12.65l-1.2,0.63L63.19,64.91z"/>
			</g>
			<g>
				<polygon class="st5" points="63.64,82.8 58.81,81.55 58.36,63.66 63.19,64.91 				"/>
			</g>
		</g>
		<g class="st0">
			<g>
				<polygon class="st9" points="63.58,82.83 58.76,81.58 58.81,81.55 63.64,82.8 				"/>
			</g>
			<g>
				<path class="st7" d="M63.64,82.8l0.21,6.52l-0.25,0.13l-0.21-6.5c0.12-0.07,0.19-0.11,0.19-0.11L63.64,82.8z"/>
			</g>
			<g>
				<polygon class="st8" points="63.59,89.45 58.77,88.2 58.56,81.7 63.39,82.94 				"/>
			</g>
			<g class="st0">
				<g>
					<defs>
						<path id="SVGID_1_" d="M63.39,82.94l-4.82-1.25c0.12-0.07,0.19-0.11,0.19-0.11l4.82,1.25C63.58,82.83,63.51,82.87,63.39,82.94
							z"/>
					</defs>
					<clipPath id="SVGID_2_">
						<use xlink:href="#SVGID_1_"  style="overflow:visible;"/>
					</clipPath>
					<g class="st10">
						<path class="st11" d="M63.39,82.94l-4.82-1.25c0.12-0.07,0.19-0.11,0.19-0.11l4.82,1.25C63.58,82.83,63.51,82.87,63.39,82.94"
							/>
					</g>
				</g>
			</g>
			<g>
				<path class="st4" d="M62.93,64.6c0.09,0.1,0.18,0.2,0.26,0.3l0.45,17.9l-0.05,0.03c0,0-0.07,0.04-0.19,0.11L62.93,64.6z"/>
			</g>
			<g>
				<polygon class="st5" points="63.39,82.94 58.56,81.7 58.1,63.36 62.93,64.6 				"/>
			</g>
		</g>
		<g class="st0">
			<g>
				<polygon class="st3" points="59.7,118.83 54.87,117.58 55.9,117.04 60.73,118.29 				"/>
			</g>
			<g>
				<polygon class="st3" points="59.45,118.96 54.63,117.71 54.87,117.58 59.7,118.83 				"/>
			</g>
			<g>
				<polygon class="st3" points="54.88,121.36 50.06,120.12 54.63,117.71 59.45,118.96 				"/>
			</g>
			<g>
				<polygon class="st3" points="54.64,121.49 49.81,120.24 50.06,120.12 54.88,121.36 				"/>
			</g>
			<g>
				<polygon class="st12" points="60.6,127.4 55.77,126.15 49.56,120.39 54.39,121.64 				"/>
			</g>
			<g>
				<polygon class="st3" points="53.28,122.21 48.45,120.96 49.81,120.24 54.64,121.49 				"/>
			</g>
			<g>
				<polygon class="st3" points="60.96,90.84 56.14,89.59 58.77,88.2 63.59,89.45 				"/>
			</g>
			<g class="st0">
				<g>
					<defs>
						<path id="SVGID_3_" d="M63.32,82.98c-0.15,0.02-0.34-0.09-0.49-0.13c-0.08-0.02-0.18-0.05-0.26-0.07
							c-0.16-0.04-0.37-0.1-0.53-0.14c-0.08-0.02-0.19-0.05-0.27-0.07c-0.16-0.04-0.38-0.1-0.55-0.14s-0.39-0.1-0.55-0.14
							c-0.17-0.04-0.39-0.1-0.55-0.14s-0.38-0.1-0.54-0.14s-0.36-0.09-0.52-0.13C60.48,82.25,61.9,82.61,63.32,82.98L63.32,82.98
							L63.32,82.98z"/>
					</defs>
					<clipPath id="SVGID_4_">
						<use xlink:href="#SVGID_3_"  style="overflow:visible;"/>
					</clipPath>
					<g class="st13">
						<path class="st11" d="M63,83.14l-4.82-1.25c0.12-0.05,0.23-0.11,0.32-0.15c0.02-0.01,0.05-0.02,0.07-0.04l4.82,1.25
							c-0.02,0.01-0.04,0.02-0.07,0.04C63.23,83.03,63.12,83.08,63,83.14"/>
					</g>
				</g>
			</g>
			<g class="st0">
				<g>
					<defs>
						<path id="SVGID_5_" d="M55.86,89.75c0.14-0.07,0.23-0.13,0.28-0.16l4.82,1.25c-0.04,0.03-0.14,0.09-0.28,0.16
							c-0.17-0.04-0.39-0.1-0.56-0.15c-0.18-0.05-0.42-0.11-0.6-0.15c-0.19-0.05-0.43-0.11-0.62-0.16s-0.44-0.11-0.63-0.16
							c-0.19-0.05-0.44-0.11-0.63-0.16c-0.19-0.05-0.43-0.11-0.62-0.16c-0.18-0.05-0.42-0.11-0.6-0.15
							C56.26,89.85,56.03,89.79,55.86,89.75z"/>
					</defs>
					<clipPath id="SVGID_6_">
						<use xlink:href="#SVGID_5_"  style="overflow:visible;"/>
					</clipPath>
					<g class="st14">
						<path class="st15" d="M60.23,91.22l-4.82-1.25c0.15-0.07,0.28-0.13,0.4-0.19c0.02-0.01,0.04-0.02,0.06-0.03
							c0.11-0.06,0.19-0.11,0.24-0.14l4.82,1.25c-0.05,0.03-0.13,0.08-0.24,0.14c-0.02,0.01-0.04,0.02-0.06,0.03
							C60.51,91.09,60.38,91.15,60.23,91.22"/>
						<path class="st16" d="M60.93,90.86l-4.82-1.25c0.01-0.01,0.03-0.02,0.04-0.02l4.82,1.25C60.95,90.84,60.94,90.85,60.93,90.86"
							/>
					</g>
				</g>
			</g>
			<g class="st0">
				<g>
					<defs>
						<path id="SVGID_7_" d="M55.8,89.78c0.02-0.01,0.04-0.02,0.06-0.03c1.61,0.42,3.22,0.83,4.82,1.25
							c-0.02,0.01-0.04,0.02-0.06,0.03c-0.17-0.04-0.39-0.1-0.56-0.15c-0.18-0.05-0.42-0.11-0.6-0.15
							c-0.19-0.05-0.43-0.11-0.62-0.16s-0.44-0.11-0.63-0.16c-0.19-0.05-0.44-0.11-0.63-0.16c-0.19-0.05-0.43-0.11-0.62-0.16
							c-0.18-0.05-0.42-0.11-0.6-0.15C56.2,89.88,55.97,89.82,55.8,89.78z"/>
					</defs>
					<clipPath id="SVGID_8_">
						<use xlink:href="#SVGID_7_"  style="overflow:visible;"/>
					</clipPath>
					<g class="st17">
						<path class="st15" d="M60.23,91.22l-4.82-1.25c0.15-0.07,0.28-0.13,0.4-0.19c0.02-0.01,0.04-0.02,0.06-0.03
							c0.11-0.06,0.19-0.11,0.24-0.14l4.82,1.25c-0.05,0.03-0.13,0.08-0.24,0.14c-0.02,0.01-0.04,0.02-0.06,0.03
							C60.51,91.09,60.38,91.15,60.23,91.22"/>
					</g>
				</g>
			</g>
			<g class="st0">
				<g>
					<defs>
						<path id="SVGID_9_" d="M58.5,81.73c0.02-0.01,0.05-0.02,0.07-0.04l4.82,1.25c-0.02,0.01-0.04,0.02-0.07,0.04
							c-0.15-0.04-0.34-0.09-0.49-0.13c-0.16-0.04-0.36-0.09-0.52-0.13s-0.38-0.1-0.54-0.14s-0.38-0.1-0.55-0.14
							s-0.39-0.1-0.55-0.14c-0.17-0.04-0.39-0.1-0.55-0.14s-0.38-0.1-0.54-0.14s-0.36-0.09-0.52-0.13
							c-0.02-0.01-0.05-0.01-0.07-0.02c-0.02-0.01-0.05-0.01-0.07-0.02c-0.02-0.01-0.05-0.01-0.07-0.02
							c-0.02-0.01-0.05-0.01-0.07-0.02c-0.02-0.01-0.05-0.01-0.07-0.02c-0.02-0.01-0.05-0.01-0.07-0.02
							c-0.02-0.01-0.05-0.01-0.07-0.02C58.54,81.74,58.52,81.74,58.5,81.73c1.61,0.42,3.22,0.83,4.82,1.25
							c-0.12,0.06-0.28,0.14-0.47,0.22c-0.15-0.04-0.34-0.09-0.49-0.13c-0.16-0.04-0.36-0.09-0.52-0.13s-0.38-0.1-0.54-0.14
							s-0.38-0.1-0.55-0.14s-0.39-0.1-0.55-0.14c-0.17-0.04-0.39-0.1-0.55-0.14s-0.38-0.1-0.54-0.14s-0.36-0.09-0.52-0.13
							c-0.02-0.01-0.05-0.01-0.07-0.02c-0.02-0.01-0.05-0.01-0.07-0.02c-0.02-0.01-0.05-0.01-0.07-0.02
							c-0.02-0.01-0.05-0.01-0.07-0.02c-0.02-0.01-0.05-0.01-0.07-0.02C58.22,82,58.19,82,58.17,81.99
							c-0.02-0.01-0.05-0.01-0.07-0.02c-0.02-0.01-0.05-0.01-0.07-0.02C58.22,81.87,58.37,81.8,58.5,81.73z"/>
					</defs>
					<clipPath id="SVGID_10_">
						<use xlink:href="#SVGID_9_"  style="overflow:visible;"/>
					</clipPath>
					<g class="st18">
						<path class="st19" d="M62.39,83.36l-4.82-1.25c0.04-0.01,0.08-0.02,0.11-0.03c0.01,0,0.03-0.01,0.04-0.01
							c0.11-0.04,0.21-0.07,0.31-0.11c0.05-0.02,0.1-0.04,0.15-0.06L63,83.14c-0.05,0.02-0.1,0.04-0.15,0.06
							c-0.1,0.04-0.2,0.08-0.31,0.11c-0.01,0-0.03,0.01-0.04,0.01C62.47,83.34,62.43,83.35,62.39,83.36"/>
						<path class="st11" d="M63,83.14l-4.82-1.25c0.12-0.05,0.23-0.11,0.32-0.15c0.02-0.01,0.05-0.02,0.07-0.04l4.82,1.25
							c-0.02,0.01-0.04,0.02-0.07,0.04C63.23,83.03,63.12,83.08,63,83.14"/>
					</g>
				</g>
			</g>
			<g class="st0">
				<g>
					<defs>
						<path id="SVGID_11_" d="M58.03,81.95c0.02,0,0.05,0.01,0.07,0.02c0.02,0.01,0.05,0.01,0.07,0.02
							c0.05,0.01,0.09,0.02,0.14,0.04c0.1,0.02,0.19,0.05,0.29,0.07c1.42,0.37,2.84,0.74,4.26,1.1c-0.1,0.04-0.2,0.08-0.31,0.11
							c-0.01,0-0.03,0.01-0.04,0.01c-0.17-0.04-0.39-0.1-0.56-0.15c-0.18-0.05-0.42-0.11-0.6-0.15c-0.19-0.05-0.43-0.11-0.62-0.16
							s-0.44-0.11-0.63-0.16c-0.19-0.05-0.44-0.11-0.63-0.16c-0.19-0.05-0.43-0.11-0.62-0.16c-0.18-0.05-0.42-0.11-0.6-0.15
							c-0.17-0.04-0.39-0.1-0.56-0.15c0.01,0,0.03-0.01,0.04-0.01C57.83,82.03,57.93,81.99,58.03,81.95z"/>
					</defs>
					<clipPath id="SVGID_12_">
						<use xlink:href="#SVGID_11_"  style="overflow:visible;"/>
					</clipPath>
					<g class="st20">
						<path class="st19" d="M62.39,83.36l-4.82-1.25c0.04-0.01,0.08-0.02,0.11-0.03c0.01,0,0.03-0.01,0.04-0.01
							c0.11-0.04,0.21-0.07,0.31-0.11c0.05-0.02,0.1-0.04,0.15-0.06L63,83.14c-0.05,0.02-0.1,0.04-0.15,0.06
							c-0.1,0.04-0.2,0.08-0.31,0.11c-0.01,0-0.03,0.01-0.04,0.01C62.47,83.34,62.43,83.35,62.39,83.36"/>
					</g>
				</g>
			</g>
			<g class="st0">
				<g>
					<defs>
						<path id="SVGID_13_" d="M55.8,89.78L55.8,89.78c1.61,0.42,3.22,0.83,4.82,1.25l0,0c-0.34,0.18-0.89,0.43-1.55,0.57
							c-0.17-0.04-0.39-0.1-0.56-0.15c-0.18-0.05-0.42-0.11-0.6-0.15c-0.19-0.05-0.43-0.11-0.62-0.16s-0.44-0.11-0.63-0.16
							c-0.19-0.05-0.44-0.11-0.63-0.16c-0.19-0.05-0.43-0.11-0.62-0.16c-0.18-0.05-0.42-0.11-0.6-0.15
							c-0.17-0.04-0.39-0.1-0.56-0.15C54.91,90.21,55.46,89.96,55.8,89.78z"/>
					</defs>
					<clipPath id="SVGID_14_">
						<use xlink:href="#SVGID_13_"  style="overflow:visible;"/>
					</clipPath>
					<g class="st21">
						<path class="st22" d="M59.02,91.61l-4.82-1.25c0.02,0,0.04-0.01,0.06-0.01c0.13-0.03,0.25-0.06,0.36-0.09l4.82,1.25
							c-0.12,0.03-0.24,0.06-0.36,0.09C59.06,91.6,59.04,91.61,59.02,91.61"/>
						<path class="st23" d="M59.44,91.51l-4.82-1.25c0.3-0.08,0.56-0.19,0.79-0.29l4.82,1.25C60,91.32,59.74,91.42,59.44,91.51"/>
						<path class="st15" d="M60.23,91.22l-4.82-1.25c0.15-0.07,0.28-0.13,0.4-0.19c0.02-0.01,0.04-0.02,0.06-0.03
							c0.11-0.06,0.19-0.11,0.24-0.14l4.82,1.25c-0.05,0.03-0.13,0.08-0.24,0.14c-0.02,0.01-0.04,0.02-0.06,0.03
							C60.51,91.09,60.38,91.15,60.23,91.22"/>
					</g>
				</g>
			</g>
			<g>
				<path class="st1" d="M59.02,91.61c0.02,0,0.04-0.01,0.06-0.01c0.65-0.14,1.21-0.39,1.55-0.57c0.02-0.01,0.04-0.02,0.06-0.03
					c0.14-0.07,0.23-0.13,0.28-0.16l2.63-1.39l0.61,24.47c-0.86,1.95-2.09,3.56-3.48,4.38l-1.03,0.54L59.02,91.61z"/>
			</g>
			<g>
				<polygon class="st2" points="59.7,118.83 54.87,117.58 54.19,90.36 59.02,91.61 				"/>
			</g>
			<g class="st0">
				<g>
					<defs>
						<path id="SVGID_15_" d="M54.19,90.36c0.02,0,0.04-0.01,0.06-0.01c1.61,0.42,3.22,0.83,4.82,1.25c-0.02,0-0.04,0.01-0.06,0.01
							C57.57,91.24,55.64,90.74,54.19,90.36z"/>
					</defs>
					<clipPath id="SVGID_16_">
						<use xlink:href="#SVGID_15_"  style="overflow:visible;"/>
					</clipPath>
					<g class="st24">
						<path class="st22" d="M59.02,91.61l-4.82-1.25c0.02,0,0.04-0.01,0.06-0.01c0.13-0.03,0.25-0.06,0.36-0.09l4.82,1.25
							c-0.12,0.03-0.24,0.06-0.36,0.09C59.06,91.6,59.04,91.61,59.02,91.61"/>
					</g>
				</g>
			</g>
			<g>
				<polygon class="st5" points="59.45,118.96 54.63,117.71 53.94,90.4 58.77,91.65 				"/>
			</g>
			<g class="st0">
				<g>
					<defs>
						<path id="SVGID_17_" d="M58.77,91.65l-4.82-1.25c0.08-0.02,0.17-0.02,0.25-0.04l4.82,1.25
							C58.94,91.63,58.85,91.64,58.77,91.65z"/>
					</defs>
					<clipPath id="SVGID_18_">
						<use xlink:href="#SVGID_17_"  style="overflow:visible;"/>
					</clipPath>
					<g class="st25">
						<path class="st26" d="M58.77,91.65l-4.82-1.25c0.08-0.02,0.17-0.02,0.25-0.04l4.82,1.25C58.94,91.63,58.85,91.64,58.77,91.65"
							/>
					</g>
				</g>
			</g>
			<g>
				<path class="st4" d="M58.77,91.65c0.08-0.02,0.17-0.02,0.25-0.04l0.68,27.22l-0.25,0.13L58.77,91.65z"/>
			</g>
			<g>
				<polygon class="st3" points="50.07,123.9 45.24,122.65 48.45,120.96 53.28,122.21 				"/>
			</g>
			<g>
				<polygon class="st3" points="49.82,124.03 45,122.78 45.24,122.65 50.07,123.9 				"/>
			</g>
			<g class="st0">
				<g>
					<defs>
						<path id="SVGID_19_" d="M57.23,91.58l-4.82-1.25c0.53,0.14,1.05,0.14,1.54,0.07l4.82,1.25
							C58.28,91.72,57.76,91.72,57.23,91.58z"/>
					</defs>
					<clipPath id="SVGID_20_">
						<use xlink:href="#SVGID_19_"  style="overflow:visible;"/>
					</clipPath>
					<g class="st27">
						<path class="st28" d="M57.23,91.58l-4.82-1.25c0.11,0.03,0.22,0.05,0.32,0.07l4.82,1.25C57.45,91.63,57.34,91.61,57.23,91.58"
							/>
						<path class="st29" d="M57.55,91.65l-4.82-1.25c0.19,0.03,0.38,0.05,0.57,0.05l4.82,1.25C57.94,91.7,57.75,91.68,57.55,91.65"
							/>
						<path class="st30" d="M58.12,91.7l-4.82-1.25c0.21,0,0.42-0.01,0.62-0.04l4.82,1.25C58.55,91.68,58.34,91.7,58.12,91.7"/>
						<path class="st22" d="M58.75,91.66l-4.82-1.25c0.01,0,0.01,0,0.02,0l4.82,1.25C58.76,91.65,58.76,91.66,58.75,91.66"/>
					</g>
				</g>
			</g>
			<g>
				<polygon class="st3" points="47.89,125.05 43.06,123.8 45,122.78 49.82,124.03 				"/>
			</g>
			<g class="st0">
				<g>
					<defs>
						<path id="SVGID_21_" d="M60.82,83.42L56,82.18c-0.72-0.19-1.41-0.75-1.82-2.05c-0.06-0.2-0.12-0.41-0.17-0.64
							c-0.04-0.18-0.07-0.37-0.1-0.58c-0.02-0.16-0.04-0.33-0.06-0.5l4.82,1.25c0.02,0.17,0.04,0.34,0.06,0.5
							c0.03,0.2,0.06,0.4,0.1,0.58c0.05,0.23,0.1,0.44,0.17,0.64C59.41,82.67,60.1,83.24,60.82,83.42z"/>
					</defs>
					<clipPath id="SVGID_22_">
						<use xlink:href="#SVGID_21_"  style="overflow:visible;"/>
					</clipPath>
					<g class="st31">
						<path class="st32" d="M60.82,83.42L56,82.18c-0.72-0.19-1.41-0.75-1.82-2.05c-0.06-0.2-0.12-0.41-0.17-0.64
							c-0.04-0.18-0.07-0.37-0.1-0.58c-0.01-0.05-0.01-0.1-0.02-0.15l4.82,1.25c0.01,0.05,0.01,0.1,0.02,0.15
							c0.03,0.2,0.06,0.4,0.1,0.58c0.05,0.23,0.1,0.44,0.17,0.64C59.41,82.67,60.1,83.24,60.82,83.42"/>
						<path class="st33" d="M58.71,80.01l-4.82-1.25c-0.01-0.11-0.03-0.23-0.04-0.35l4.82,1.25C58.69,79.78,58.7,79.89,58.71,80.01"
							/>
					</g>
				</g>
			</g>
			<g>
				<polygon class="st8" points="59.02,91.61 54.19,90.36 53.85,78.41 58.67,79.66 				"/>
			</g>
			<g>
				<path class="st7" d="M58.67,79.66c0.02,0.17,0.04,0.34,0.06,0.5c0.03,0.2,0.06,0.4,0.1,0.58c0.05,0.23,0.1,0.44,0.16,0.64
					c0.75,2.36,2.4,2.3,3.5,1.96c0.01,0,0.03-0.01,0.04-0.01c0.11-0.04,0.21-0.07,0.31-0.11c0.19-0.08,0.35-0.15,0.47-0.22
					c0.02-0.01,0.05-0.02,0.07-0.04l0.21,6.5l-2.61,1.37c0,0-0.01,0.01-0.02,0.02c-0.04,0.03-0.14,0.09-0.28,0.16
					c-0.02,0.01-0.04,0.02-0.06,0.03c-0.34,0.18-0.89,0.43-1.55,0.57c-0.02,0-0.04,0.01-0.06,0.01L58.67,79.66z"/>
			</g>
			<g>
				<polygon class="st5" points="58.67,79.66 53.85,78.41 53.47,63.23 58.29,64.48 				"/>
			</g>
			<g class="st0">
				<g>
					<defs>
						<path id="SVGID_23_" d="M58.67,79.66l-4.82-1.25c-0.03-0.3-0.05-0.61-0.06-0.96l4.82,1.25
							C58.63,79.04,58.65,79.35,58.67,79.66z"/>
					</defs>
					<clipPath id="SVGID_24_">
						<use xlink:href="#SVGID_23_"  style="overflow:visible;"/>
					</clipPath>
					<g class="st34">
						<path class="st33" d="M58.67,79.66l-4.82-1.25c-0.02-0.26-0.04-0.52-0.05-0.8l4.82,1.25C58.63,79.14,58.65,79.4,58.67,79.66"
							/>
						<path class="st35" d="M58.62,78.86l-4.82-1.25c0-0.05,0-0.11,0-0.16l4.82,1.25C58.62,78.75,58.62,78.8,58.62,78.86"/>
					</g>
				</g>
			</g>
			<g>
				<polygon class="st5" points="58.62,78.7 53.79,77.45 53.44,63.25 58.26,64.5 				"/>
			</g>
			<g>
				<polygon class="st8" points="58.77,91.65 53.94,90.4 53.22,63.36 58.05,64.61 				"/>
			</g>
			<g class="st0">
				<g>
					<defs>
						<path id="SVGID_25_" d="M57.23,91.58l-4.82-1.25c-1.2-0.31-2.42-1.32-3.19-3.8l4.82,1.25C54.81,90.26,56.03,91.27,57.23,91.58
							z"/>
					</defs>
					<clipPath id="SVGID_26_">
						<use xlink:href="#SVGID_25_"  style="overflow:visible;"/>
					</clipPath>
					<g class="st36">
						<path class="st37" d="M57.23,91.58l-4.82-1.25c-1.2-0.31-2.42-1.32-3.19-3.8l4.82,1.25C54.81,90.26,56.03,91.27,57.23,91.58"
							/>
					</g>
				</g>
			</g>
			<g>
				<polygon class="st2" points="54.88,121.36 50.06,120.12 49.22,86.54 54.04,87.79 				"/>
			</g>
			<g>
				<polygon class="st8" points="54.04,87.79 49.22,86.54 48.65,65.77 53.48,67.02 				"/>
			</g>
			<g class="st0">
				<g>
					<defs>
						<path id="SVGID_27_" d="M54.04,87.79l-4.82-1.25c-0.1-0.33-0.19,1-0.27,0.63l4.82-0.43C53.85,87.11,53.94,87.46,54.04,87.79z"
							/>
					</defs>
					<clipPath id="SVGID_28_">
						<use xlink:href="#SVGID_27_"  style="overflow:visible;"/>
					</clipPath>
					<g class="st38">
						<path class="st37" d="M54.04,87.79l-4.82-1.25c-0.1-0.33-0.19,1-0.27,0.63l4.82-0.43C53.85,87.11,53.94,87.46,54.04,87.79"/>
					</g>
				</g>
			</g>
			<g>
				<polygon class="st5" points="54.64,121.49 49.81,120.24 48.94,87.16 53.77,86.73 				"/>
			</g>
			<g class="st0">
				<g>
					<defs>
						<path id="SVGID_29_" d="M53.28,122.21l-4.82-1.25c-0.05-0.2-0.98-3.93-3.48-8.86l4.82,1.25
							C52.3,118.28,53.23,122.01,53.28,122.21z"/>
					</defs>
					<clipPath id="SVGID_30_">
						<use xlink:href="#SVGID_29_"  style="overflow:visible;"/>
					</clipPath>
					<g class="st39">
						<path class="st40" d="M53.28,122.21l-4.82-1.25c-0.05-0.2-0.98-3.93-3.48-8.86l4.82,1.25
							C52.3,118.28,53.23,122.01,53.28,122.21"/>
					</g>
				</g>
			</g>
			<g>
				<polygon class="st8" points="50.07,123.9 45.24,122.65 44.98,112.1 49.8,113.35 				"/>
			</g>
			<g>
				<path class="st7" d="M49.8,113.35c2.49,4.93,3.43,8.67,3.48,8.86l-3.21,1.69L49.8,113.35z"/>
			</g>
			<g>
				<polygon class="st8" points="53.77,86.73 48.94,87.16 48.41,65.9 53.23,67.15 				"/>
			</g>
			<g class="st0">
				<g>
					<defs>
						<path id="SVGID_31_" d="M53.77,86.73l-4.82,0.43c-0.28-1.25-0.47-2.79-0.52-4.71l4.82,1.25
							C53.3,85.62,53.49,85.48,53.77,86.73z"/>
					</defs>
					<clipPath id="SVGID_32_">
						<use xlink:href="#SVGID_31_"  style="overflow:visible;"/>
					</clipPath>
					<g class="st41">
						<path class="st37" d="M53.77,86.73l-4.82,0.43c-0.12-0.54-0.22-1.13-0.31-1.78l4.82,1.25C53.54,87.28,53.65,86.19,53.77,86.73
							"/>
						<path class="st42" d="M53.46,86.63l-4.82-1.25c-0.09-0.74-0.16-1.56-0.2-2.47l4.82,1.25C53.3,85.07,53.36,85.89,53.46,86.63"
							/>
						<path class="st43" d="M53.26,84.16l-4.82-1.25c-0.01-0.15-0.01-0.3-0.01-0.45l4.82,1.25C53.25,83.86,53.26,84.01,53.26,84.16"
							/>
					</g>
				</g>
			</g>
			<g>
				<polygon class="st8" points="53.25,83.71 48.42,82.46 48.01,66.1 52.84,67.35 				"/>
			</g>
			<g>
				<polygon class="st2" points="49.8,113.35 44.98,112.1 43.84,68.3 48.66,69.55 				"/>
			</g>
			<g class="st0">
				<g>
					<defs>
						<path id="SVGID_33_" d="M49.8,113.35l-4.82-1.25c-0.08-0.17-0.17-0.34-0.26-0.51l4.82,1.25
							C49.63,113,49.72,113.17,49.8,113.35z"/>
					</defs>
					<clipPath id="SVGID_34_">
						<use xlink:href="#SVGID_33_"  style="overflow:visible;"/>
					</clipPath>
					<g class="st44">
						<path class="st32" d="M49.8,113.35l-4.82-1.25c-0.08-0.17-0.17-0.34-0.26-0.51l4.82,1.25C49.63,113,49.72,113.17,49.8,113.35"
							/>
					</g>
				</g>
			</g>
			<g>
				<polygon class="st8" points="49.82,124.03 45,122.78 44.72,111.58 49.54,112.83 				"/>
			</g>
			<g>
				<path class="st7" d="M49.54,112.83c0.09,0.17,0.18,0.34,0.26,0.51l0.26,10.55l-0.25,0.13L49.54,112.83z"/>
			</g>
			<g>
				<polygon class="st3" points="45.25,126.43 40.43,125.18 43.06,123.8 47.89,125.05 				"/>
			</g>
			<g>
				<polygon class="st3" points="45.01,126.56 40.18,125.31 40.43,125.18 45.25,126.43 				"/>
			</g>
			<g>
				<path class="st1" d="M54.04,87.79c1.11,3.56,3.15,4.09,4.73,3.87l0.68,27.31l-4.57,2.41L54.04,87.79z"/>
			</g>
			<g>
				<path class="st4" d="M53.77,86.73c0.08,0.38,0.18,0.73,0.27,1.05l0.84,33.58l-0.25,0.13L53.77,86.73z"/>
			</g>
			<g class="st0">
				<g>
					<defs>
						<path id="SVGID_35_" d="M47.89,125.05l-4.82-1.25c-0.05-0.12-0.94-2.4-2.81-5.65l4.82,1.25
							C46.95,122.65,47.84,124.93,47.89,125.05z"/>
					</defs>
					<clipPath id="SVGID_36_">
						<use xlink:href="#SVGID_35_"  style="overflow:visible;"/>
					</clipPath>
					<g class="st45">
						<path class="st37" d="M47.89,125.05l-4.82-1.25c-0.05-0.12-0.94-2.4-2.81-5.65l4.82,1.25
							C46.95,122.65,47.84,124.93,47.89,125.05"/>
					</g>
				</g>
			</g>
			<g>
				<polygon class="st5" points="45.25,126.43 40.43,125.18 40.25,118.14 45.07,119.39 				"/>
			</g>
			<g>
				<path class="st4" d="M45.07,119.39c1.87,3.25,2.76,5.53,2.81,5.65l-2.64,1.39L45.07,119.39z"/>
			</g>
			<g class="st0">
				<g>
					<defs>
						<path id="SVGID_37_" d="M56.63,62.44l4.82,1.25c-0.71-0.18-1.5-0.08-2.34,0.36l-4.82-1.25
							C55.13,62.36,55.92,62.26,56.63,62.44z"/>
					</defs>
					<clipPath id="SVGID_38_">
						<use xlink:href="#SVGID_37_"  style="overflow:visible;"/>
					</clipPath>
					<g class="st46">
						<path class="st47" d="M59.12,64.05L54.3,62.8c0.09-0.05,0.19-0.1,0.28-0.14l4.82,1.25C59.31,63.95,59.21,64,59.12,64.05"/>
						<path class="st48" d="M59.4,63.91l-4.82-1.25c0.17-0.07,0.34-0.13,0.5-0.18l4.82,1.25C59.74,63.78,59.57,63.84,59.4,63.91"/>
						<path class="st26" d="M59.9,63.73l-4.82-1.25c0.15-0.04,0.31-0.08,0.46-0.1l4.82,1.25C60.21,63.65,60.05,63.69,59.9,63.73"/>
						<path class="st49" d="M60.36,63.63l-4.82-1.25c0.15-0.02,0.29-0.03,0.43-0.03l4.82,1.25C60.65,63.6,60.5,63.61,60.36,63.63"/>
						<path class="st50" d="M60.79,63.6l-4.82-1.25c0.14,0,0.28,0.01,0.42,0.03l4.82,1.25C61.07,63.62,60.93,63.6,60.79,63.6"/>
						<path class="st51" d="M61.2,63.64l-4.82-1.25c0.08,0.01,0.17,0.03,0.25,0.05l4.82,1.25C61.37,63.67,61.29,63.65,61.2,63.64"/>
					</g>
				</g>
			</g>
			<g>
				<polygon class="st5" points="49.54,112.83 44.72,111.58 43.59,68.43 48.42,69.68 				"/>
			</g>
			<g class="st0">
				<g>
					<defs>
						<path id="SVGID_39_" d="M49.54,112.83l-4.82-1.25c-1.24-2.38-2.82-4.97-4.82-7.45l4.82,1.25
							C46.72,107.86,48.3,110.45,49.54,112.83z"/>
					</defs>
					<clipPath id="SVGID_40_">
						<use xlink:href="#SVGID_39_"  style="overflow:visible;"/>
					</clipPath>
					<g class="st52">
						<path class="st40" d="M49.54,112.83l-4.82-1.25c-1.24-2.38-2.82-4.97-4.82-7.45l4.82,1.25
							C46.72,107.86,48.3,110.45,49.54,112.83"/>
					</g>
				</g>
			</g>
			<g>
				<polygon class="st8" points="45.07,119.39 40.25,118.14 39.9,104.13 44.72,105.38 				"/>
			</g>
			<g class="st0">
				<g>
					<defs>
						<path id="SVGID_41_" d="M45.07,119.39l-4.82-1.25c-0.08-0.15-0.17-0.3-0.26-0.45l4.82,1.25
							C44.9,119.1,44.99,119.25,45.07,119.39z"/>
					</defs>
					<clipPath id="SVGID_42_">
						<use xlink:href="#SVGID_41_"  style="overflow:visible;"/>
					</clipPath>
					<g class="st53">
						<path class="st37" d="M45.07,119.39l-4.82-1.25c-0.08-0.15-0.17-0.3-0.26-0.45l4.82,1.25
							C44.9,119.1,44.99,119.25,45.07,119.39"/>
					</g>
				</g>
			</g>
			<g>
				<polygon class="st5" points="45.01,126.56 40.18,125.31 39.99,117.7 44.81,118.95 				"/>
			</g>
			<g>
				<path class="st4" d="M44.81,118.95c0.09,0.15,0.18,0.3,0.26,0.45l0.18,7.04L45,126.57L44.81,118.95z"/>
			</g>
			<g>
				<path class="st4" d="M59.12,64.05c1.47-0.78,2.83-0.5,3.81,0.56l0.46,18.34c-0.02,0.01-0.04,0.02-0.07,0.04
					c-0.12,0.06-0.28,0.14-0.47,0.22c-0.1,0.04-0.2,0.08-0.31,0.11c-0.01,0-0.03,0.01-0.04,0.01c-1.1,0.35-2.76,0.4-3.5-1.95
					c-0.06-0.2-0.12-0.41-0.17-0.64c-0.04-0.18-0.07-0.37-0.1-0.58c-0.02-0.16-0.04-0.33-0.06-0.5l-0.38-15.18L59.12,64.05z"/>
			</g>
			<g>
				<polygon class="st6" points="58.29,64.48 53.47,63.23 54.29,62.8 59.12,64.05 				"/>
			</g>
			<g>
				<path class="st4" d="M58.29,64.48l0.38,15.18c-0.03-0.3-0.05-0.61-0.06-0.96l-0.36-14.2L58.29,64.48z"/>
			</g>
			<g>
				<polygon class="st6" points="58.26,64.5 53.44,63.25 53.47,63.23 58.29,64.48 				"/>
			</g>
			<g>
				<polygon class="st5" points="58.26,64.5 53.44,63.25 53.43,63.11 58.26,64.36 				"/>
			</g>
			<g>
				<polygon class="st4" points="58.29,64.34 58.29,64.48 58.26,64.5 58.26,64.36 				"/>
			</g>
			<g>
				<polygon class="st6" points="58.26,64.36 53.43,63.11 53.47,63.09 58.29,64.34 				"/>
			</g>
			<g>
				<path class="st7" d="M58.26,64.5l0.36,14.2c0.01,0.35,0.03,0.66,0.06,0.96l0.34,11.95c-0.08,0.02-0.16,0.03-0.25,0.04
					l-0.72-27.04L58.26,64.5z"/>
			</g>
			<g>
				<polygon class="st9" points="58.05,64.61 53.22,63.36 53.44,63.25 58.26,64.5 				"/>
			</g>
			<g>
				<polygon class="st8" points="58.05,64.61 53.22,63.36 53.22,63.22 58.04,64.47 				"/>
			</g>
			<g>
				<polygon class="st7" points="58.26,64.36 58.26,64.5 58.05,64.61 58.04,64.47 				"/>
			</g>
			<g>
				<polygon class="st9" points="58.04,64.47 53.22,63.22 53.43,63.11 58.26,64.36 				"/>
			</g>
			<g>
				<polygon class="st3" points="40.43,128.97 35.61,127.72 40.18,125.31 45.01,126.56 				"/>
			</g>
			<g>
				<polygon class="st3" points="40.19,129.1 35.36,127.85 35.61,127.72 40.43,128.97 				"/>
			</g>
			<g>
				<path class="st7" d="M44.72,105.38c1.99,2.48,3.58,5.07,4.82,7.45l0.28,11.2l-1.94,1.02c-0.05-0.12-0.94-2.4-2.81-5.65
					L44.72,105.38z"/>
			</g>
			<g>
				<polygon class="st2" points="44.72,105.38 39.9,104.13 39.02,70.84 43.84,72.09 				"/>
			</g>
			<g class="st0">
				<g>
					<defs>
						<path id="SVGID_43_" d="M44.72,105.38l-4.82-1.25c-0.08-0.11-0.17-0.21-0.26-0.31l4.82,1.25
							C44.55,105.17,44.64,105.28,44.72,105.38z"/>
					</defs>
					<clipPath id="SVGID_44_">
						<use xlink:href="#SVGID_43_"  style="overflow:visible;"/>
					</clipPath>
					<g class="st54">
						<path class="st32" d="M44.72,105.38l-4.82-1.25c-0.08-0.11-0.17-0.21-0.26-0.31l4.82,1.25
							C44.55,105.17,44.64,105.28,44.72,105.38"/>
					</g>
				</g>
			</g>
			<g>
				<path class="st7" d="M44.47,105.07c0.09,0.1,0.17,0.21,0.26,0.32l0.35,14.01c-0.08-0.15-0.17-0.3-0.26-0.45L44.47,105.07z"/>
			</g>
			<g>
				<polygon class="st8" points="44.81,118.95 39.99,117.7 39.64,103.82 44.47,105.07 				"/>
			</g>
			<g>
				<polygon class="st9" points="53.48,67.02 48.65,65.77 53.22,63.36 58.05,64.61 				"/>
			</g>
			<g>
				<path class="st7" d="M58.05,64.61l0.72,27.04c-1.58,0.23-3.62-0.3-4.73-3.87l-0.56-20.77L58.05,64.61z"/>
			</g>
			<g>
				<polygon class="st7" points="58.04,64.47 58.05,64.61 53.48,67.02 53.47,66.87 				"/>
			</g>
			<g>
				<polygon class="st9" points="53.47,66.87 48.65,65.63 53.22,63.22 58.04,64.47 				"/>
			</g>
			<g>
				<polygon class="st8" points="53.48,67.02 48.65,65.77 48.65,65.63 53.47,66.87 				"/>
			</g>
			<g>
				<path class="st7" d="M53.48,67.02l0.56,20.77c-0.1-0.33-0.19-0.68-0.27-1.05l-0.53-19.59L53.48,67.02z"/>
			</g>
			<g>
				<polygon class="st9" points="53.23,67.15 48.41,65.9 48.65,65.77 53.48,67.02 				"/>
			</g>
			<g>
				<polygon class="st8" points="53.23,67.15 48.41,65.9 48.4,65.75 53.23,67 				"/>
			</g>
			<g>
				<polygon class="st9" points="53.23,67 48.4,65.75 48.65,65.63 53.47,66.87 				"/>
			</g>
			<g>
				<polygon class="st7" points="53.47,66.87 53.48,67.02 53.23,67.15 53.23,67 				"/>
			</g>
			<g>
				<polygon class="st9" points="52.84,67.35 48.01,66.1 48.41,65.9 53.23,67.15 				"/>
			</g>
			<g>
				<path class="st7" d="M53.23,67.15l0.53,19.59c-0.28-1.25-0.47-1.11-0.52-3.02l-0.41-16.35L53.23,67.15z"/>
			</g>
			<g>
				<polygon class="st9" points="52.84,67.21 48.01,65.96 48.4,65.75 53.23,67 				"/>
			</g>
			<g>
				<polygon class="st7" points="53.23,67 53.23,67.15 52.84,67.35 52.84,67.21 				"/>
			</g>
			<g>
				<polygon class="st8" points="52.84,67.35 48.01,66.1 48.01,65.96 52.84,67.21 				"/>
			</g>
			<g>
				<polygon class="st3" points="35.62,131.5 30.79,130.25 35.36,127.85 40.19,129.1 				"/>
			</g>
			<g>
				<polygon class="st3" points="35.37,131.63 30.55,130.38 30.79,130.25 35.62,131.5 				"/>
			</g>
			<g>
				<path class="st1" d="M60.73,118.29c-0.07,0.04-0.13,0.09-0.2,0.12l-1.67,0.88l1.74,8.11l-6.21-5.75l-18.97,9.98
					c-0.06,0.03-0.13,0.05-0.2,0.09l0.16-0.08l0.25-0.13l4.57-2.41l0.25-0.13l4.57-2.41l0.25-0.13l2.64-1.39l1.94-1.02l0.25-0.13
					l3.21-1.69l1.36-0.72l0.25-0.13l4.57-2.41l0.25-0.13L60.73,118.29z"/>
			</g>
			<g>
				<polygon class="st3" points="35.22,131.71 30.39,130.46 30.55,130.38 35.37,131.63 				"/>
			</g>
			<g class="st0">
				<g>
					<defs>
						<path id="SVGID_45_" d="M44.81,118.95l-4.82-1.25c-1.23-2.1-2.83-4.5-4.8-6.83l4.82,1.25
							C41.98,114.45,43.58,116.85,44.81,118.95z"/>
					</defs>
					<clipPath id="SVGID_46_">
						<use xlink:href="#SVGID_45_"  style="overflow:visible;"/>
					</clipPath>
					<g class="st55">
						<path class="st37" d="M44.81,118.95l-4.82-1.25c-1.23-2.1-2.83-4.5-4.8-6.83l4.82,1.25
							C41.98,114.45,43.58,116.85,44.81,118.95"/>
					</g>
				</g>
			</g>
			<g>
				<path class="st4" d="M40.01,112.12c1.97,2.33,3.57,4.73,4.8,6.83l0.19,7.62l-4.57,2.41L40.01,112.12z"/>
			</g>
			<g>
				<polygon class="st5" points="40.43,128.97 35.61,127.72 35.19,110.87 40.01,112.12 				"/>
			</g>
			<g>
				<polygon class="st5" points="44.47,105.07 39.64,103.82 38.78,70.97 43.6,72.22 				"/>
			</g>
			<g class="st0">
				<g>
					<defs>
						<path id="SVGID_47_" d="M44.47,105.07l-4.82-1.25c-1.39-1.69-2.97-3.32-4.75-4.79l4.82,1.25
							C41.5,101.75,43.08,103.38,44.47,105.07z"/>
					</defs>
					<clipPath id="SVGID_48_">
						<use xlink:href="#SVGID_47_"  style="overflow:visible;"/>
					</clipPath>
					<g class="st56">
						<path class="st40" d="M44.47,105.07l-4.82-1.25c-1.39-1.69-2.97-3.32-4.75-4.79l4.82,1.25
							C41.5,101.75,43.08,103.38,44.47,105.07"/>
					</g>
				</g>
			</g>
			<g>
				<polygon class="st8" points="40.01,112.12 35.19,110.87 34.89,99.03 39.71,100.28 				"/>
			</g>
			<g class="st0">
				<g>
					<defs>
						<path id="SVGID_49_" d="M40.01,112.12l-4.82-1.25c-0.08-0.1-0.17-0.2-0.26-0.3l4.82,1.25
							C39.84,111.92,39.93,112.02,40.01,112.12z"/>
					</defs>
					<clipPath id="SVGID_50_">
						<use xlink:href="#SVGID_49_"  style="overflow:visible;"/>
					</clipPath>
					<g class="st57">
						<path class="st37" d="M40.01,112.12l-4.82-1.25c-0.08-0.1-0.17-0.2-0.26-0.3l4.82,1.25
							C39.84,111.92,39.93,112.02,40.01,112.12"/>
					</g>
				</g>
			</g>
			<g>
				<polygon class="st5" points="40.19,129.1 35.36,127.85 34.93,110.57 39.76,111.82 				"/>
			</g>
			<g>
				<path class="st4" d="M39.76,111.82c0.09,0.1,0.17,0.2,0.26,0.3l0.42,16.85l-0.25,0.13L39.76,111.82z"/>
			</g>
			<g>
				<polygon class="st3" points="48.66,69.55 43.84,68.3 48.01,66.1 52.84,67.35 				"/>
			</g>
			<g>
				<path class="st1" d="M52.84,67.35l0.41,16.35c0.05,1.91,0.24,1.77,0.52,3.02l0.87,34.76l-1.36,0.72
					c-0.05-0.2-0.98-3.93-3.48-8.86l-1.14-43.79L52.84,67.35z"/>
			</g>
			<g>
				<polygon class="st3" points="48.66,69.41 43.83,68.16 48.01,65.96 52.84,67.21 				"/>
			</g>
			<g>
				<polygon class="st58" points="52.84,67.21 52.84,67.35 48.66,69.55 48.66,69.41 				"/>
			</g>
			<g>
				<polygon class="st2" points="48.66,69.55 43.84,68.3 43.83,68.16 48.66,69.41 				"/>
			</g>
			<g>
				<path class="st4" d="M48.66,69.55l1.14,43.79c-0.08-0.17-0.17-0.34-0.26-0.51l-1.12-43.15L48.66,69.55z"/>
			</g>
			<g>
				<polygon class="st6" points="48.42,69.68 43.59,68.43 43.84,68.3 48.66,69.55 				"/>
			</g>
			<g>
				<polygon class="st6" points="48.41,69.54 43.59,68.29 43.83,68.16 48.66,69.41 				"/>
			</g>
			<g>
				<polygon class="st5" points="48.42,69.68 43.59,68.43 43.59,68.29 48.41,69.54 				"/>
			</g>
			<g>
				<polygon class="st4" points="48.66,69.41 48.66,69.55 48.42,69.68 48.41,69.54 				"/>
			</g>
			<g>
				<path class="st7" d="M39.71,100.28c1.79,1.47,3.37,3.1,4.75,4.79l0.35,13.88c-1.23-2.1-2.83-4.5-4.8-6.83L39.71,100.28z"/>
			</g>
			<g>
				<polygon class="st2" points="39.71,100.28 34.89,99.03 34.2,73.37 39.03,74.62 				"/>
			</g>
			<g class="st0">
				<g>
					<defs>
						<path id="SVGID_51_" d="M39.71,100.28l-4.82-1.25c-0.08-0.07-0.17-0.13-0.25-0.21l4.82,1.25
							C39.54,100.14,39.63,100.21,39.71,100.28z"/>
					</defs>
					<clipPath id="SVGID_52_">
						<use xlink:href="#SVGID_51_"  style="overflow:visible;"/>
					</clipPath>
					<g class="st59">
						<path class="st32" d="M39.71,100.28l-4.82-1.25c-0.08-0.07-0.17-0.13-0.25-0.21l4.82,1.25
							C39.54,100.14,39.63,100.21,39.71,100.28"/>
					</g>
				</g>
			</g>
			<g>
				<polygon class="st8" points="39.76,111.82 34.93,110.57 34.64,98.82 39.46,100.07 				"/>
			</g>
			<g>
				<path class="st7" d="M39.46,100.07c0.08,0.07,0.17,0.13,0.25,0.21l0.3,11.84c-0.08-0.1-0.17-0.2-0.26-0.3L39.46,100.07z"/>
			</g>
			<g class="st0">
				<g>
					<defs>
						<path id="SVGID_53_" d="M39.76,111.82l-4.82-1.25c-1.4-1.63-2.98-3.21-4.75-4.61l4.82,1.25
							C36.77,108.62,38.35,110.2,39.76,111.82z"/>
					</defs>
					<clipPath id="SVGID_54_">
						<use xlink:href="#SVGID_53_"  style="overflow:visible;"/>
					</clipPath>
					<g class="st60">
						<path class="st37" d="M39.76,111.82l-4.82-1.25c-1.4-1.63-2.98-3.21-4.75-4.61l4.82,1.25
							C36.77,108.62,38.35,110.2,39.76,111.82"/>
					</g>
				</g>
			</g>
			<g>
				<polygon class="st5" points="35.62,131.5 30.79,130.25 30.18,105.96 35.01,107.21 				"/>
			</g>
			<g>
				<path class="st4" d="M35.01,107.21c1.76,1.4,3.34,2.98,4.75,4.61l0.43,17.28l-4.57,2.41L35.01,107.21z"/>
			</g>
			<g>
				<polygon class="st5" points="39.46,100.07 34.64,98.82 33.96,73.5 38.78,74.75 				"/>
			</g>
			<g class="st0">
				<g>
					<defs>
						<path id="SVGID_55_" d="M39.46,100.07l-4.82-1.25c-1.44-1.15-3-2.21-4.71-3.1l4.82,1.25C36.46,97.87,38.03,98.92,39.46,100.07
							z"/>
					</defs>
					<clipPath id="SVGID_56_">
						<use xlink:href="#SVGID_55_"  style="overflow:visible;"/>
					</clipPath>
					<g class="st61">
						<path class="st40" d="M39.46,100.07l-4.82-1.25c-1.44-1.15-3-2.21-4.71-3.1l4.82,1.25C36.46,97.87,38.03,98.92,39.46,100.07"
							/>
					</g>
				</g>
			</g>
			<g>
				<polygon class="st8" points="35.01,107.21 30.18,105.96 29.93,95.72 34.75,96.97 				"/>
			</g>
			<g class="st0">
				<g>
					<defs>
						<path id="SVGID_57_" d="M35.01,107.21l-4.82-1.25c-0.09-0.06-0.17-0.14-0.25-0.2l4.82,1.25
							C34.84,107.08,34.92,107.15,35.01,107.21z"/>
					</defs>
					<clipPath id="SVGID_58_">
						<use xlink:href="#SVGID_57_"  style="overflow:visible;"/>
					</clipPath>
					<g class="st62">
						<path class="st37" d="M35.01,107.21l-4.82-1.25c-0.09-0.06-0.17-0.14-0.25-0.2l4.82,1.25
							C34.84,107.08,34.92,107.15,35.01,107.21"/>
					</g>
				</g>
			</g>
			<g>
				<polygon class="st5" points="35.37,131.63 30.55,130.38 29.93,105.76 34.76,107.01 				"/>
			</g>
			<g>
				<path class="st4" d="M34.76,107.01c0.09,0.06,0.17,0.14,0.25,0.2l0.61,24.29l-0.25,0.13L34.76,107.01z"/>
			</g>
			<g>
				<polygon class="st3" points="43.84,72.09 39.02,70.84 43.59,68.43 48.42,69.68 				"/>
			</g>
			<g>
				<path class="st1" d="M48.42,69.68l1.12,43.15c-1.24-2.38-2.82-4.97-4.82-7.45l-0.88-33.3L48.42,69.68z"/>
			</g>
			<g>
				<polygon class="st2" points="43.84,72.09 39.02,70.84 39.02,70.69 43.84,71.94 				"/>
			</g>
			<g>
				<polygon class="st58" points="48.41,69.54 48.42,69.68 43.84,72.09 43.84,71.94 				"/>
			</g>
			<g>
				<polygon class="st3" points="43.84,71.94 39.02,70.69 43.59,68.29 48.41,69.54 				"/>
			</g>
			<g>
				<path class="st4" d="M43.84,72.09l0.88,33.3c-0.08-0.11-0.17-0.21-0.26-0.32L43.6,72.22L43.84,72.09z"/>
			</g>
			<g>
				<polygon class="st6" points="43.6,72.22 38.78,70.97 39.02,70.84 43.84,72.09 				"/>
			</g>
			<g>
				<polygon class="st5" points="43.6,72.22 38.78,70.97 38.77,70.82 43.6,72.07 				"/>
			</g>
			<g>
				<polygon class="st4" points="43.84,71.94 43.84,72.09 43.6,72.22 43.6,72.07 				"/>
			</g>
			<g>
				<polygon class="st6" points="43.6,72.07 38.77,70.82 39.02,70.69 43.84,71.94 				"/>
			</g>
			<g>
				<path class="st7" d="M34.75,96.97c1.71,0.9,3.27,1.95,4.71,3.1l0.29,11.75c-1.4-1.63-2.98-3.2-4.75-4.61L34.75,96.97z"/>
			</g>
			<g>
				<polygon class="st2" points="34.75,96.97 29.93,95.72 29.39,75.91 34.21,77.16 				"/>
			</g>
			<g class="st0">
				<g>
					<defs>
						<path id="SVGID_59_" d="M34.75,96.97l-4.82-1.25c-0.09-0.04-0.17-0.08-0.25-0.13l4.82,1.25
							C34.58,96.88,34.67,96.93,34.75,96.97z"/>
					</defs>
					<clipPath id="SVGID_60_">
						<use xlink:href="#SVGID_59_"  style="overflow:visible;"/>
					</clipPath>
					<g class="st63">
						<path class="st32" d="M34.75,96.97l-4.82-1.25c-0.09-0.04-0.17-0.08-0.25-0.13l4.82,1.25C34.58,96.88,34.67,96.93,34.75,96.97
							"/>
					</g>
				</g>
			</g>
			<g>
				<polygon class="st8" points="34.76,107.01 29.93,105.76 29.68,95.59 34.5,96.84 				"/>
			</g>
			<g>
				<path class="st7" d="M34.5,96.84c0.08,0.04,0.17,0.09,0.25,0.13l0.26,10.25c-0.09-0.06-0.17-0.14-0.25-0.2L34.5,96.84z"/>
			</g>
			<g>
				<polygon class="st3" points="39.03,74.62 34.2,73.37 38.78,70.97 43.6,72.22 				"/>
			</g>
			<g>
				<path class="st1" d="M43.6,72.22l0.87,32.85c-1.39-1.69-2.97-3.32-4.75-4.79l-0.69-25.66L43.6,72.22z"/>
			</g>
			<g>
				<polygon class="st58" points="43.6,72.07 43.6,72.22 39.03,74.62 39.03,74.48 				"/>
			</g>
			<g>
				<polygon class="st3" points="39.03,74.48 34.2,73.23 38.77,70.82 43.6,72.07 				"/>
			</g>
			<g>
				<polygon class="st2" points="39.03,74.62 34.2,73.37 34.2,73.23 39.03,74.48 				"/>
			</g>
			<g>
				<path class="st4" d="M39.03,74.62l0.69,25.66c-0.08-0.07-0.17-0.13-0.25-0.21l-0.68-25.32L39.03,74.62z"/>
			</g>
			<g>
				<polygon class="st6" points="38.78,74.75 33.96,73.5 34.2,73.37 39.03,74.62 				"/>
			</g>
			<g>
				<polygon class="st4" points="39.03,74.48 39.03,74.62 38.78,74.75 38.78,74.61 				"/>
			</g>
			<g>
				<polygon class="st5" points="38.78,74.75 33.96,73.5 33.96,73.36 38.78,74.61 				"/>
			</g>
			<g>
				<polygon class="st6" points="38.78,74.61 33.96,73.36 34.2,73.23 39.03,74.48 				"/>
			</g>
			<g>
				<polygon class="st3" points="34.21,77.16 29.39,75.91 33.96,73.5 38.78,74.75 				"/>
			</g>
			<g>
				<path class="st1" d="M38.78,74.75l0.68,25.32c-1.44-1.15-3-2.21-4.71-3.1l-0.54-19.81L38.78,74.75z"/>
			</g>
			<g>
				<polygon class="st3" points="34.21,77.01 29.38,75.76 33.96,73.36 38.78,74.61 				"/>
			</g>
			<g>
				<polygon class="st2" points="34.21,77.16 29.39,75.91 29.38,75.76 34.21,77.01 				"/>
			</g>
			<g>
				<polygon class="st58" points="38.78,74.61 38.78,74.75 34.21,77.16 34.21,77.01 				"/>
			</g>
			<g>
				<polygon class="st6" points="34.01,77.26 29.19,76.01 29.39,75.91 34.21,77.16 				"/>
			</g>
			<g>
				<polygon class="st5" points="34.5,96.84 29.68,95.59 29.14,76.04 33.97,77.29 				"/>
			</g>
			<g>
				<path class="st4" d="M34.21,77.16l0.54,19.81c-0.09-0.04-0.17-0.08-0.25-0.13l-0.53-19.55l0.05-0.03L34.21,77.16z"/>
			</g>
			<g>
				<polygon class="st64" points="33.97,77.29 29.14,76.04 29.19,76.01 34.01,77.26 				"/>
			</g>
			<g>
				<polygon class="st4" points="34.21,77.01 34.21,77.16 34.01,77.26 33.97,77.29 33.96,77.14 				"/>
			</g>
			<g>
				<polygon class="st5" points="33.97,77.29 29.14,76.04 29.14,75.89 33.96,77.14 				"/>
			</g>
			<g>
				<polygon class="st6" points="33.96,77.14 29.14,75.89 29.38,75.76 34.21,77.01 				"/>
			</g>
		</g>
		<g class="st0">
			<g class="st0">
				<g>
					<defs>
						<path id="SVGID_61_" d="M33.08,131.97l-4.82-1.25c-1.01-0.26-1.84-1.1-2.39-2.39l4.82,1.25
							C31.23,130.87,32.07,131.71,33.08,131.97z"/>
					</defs>
					<clipPath id="SVGID_62_">
						<use xlink:href="#SVGID_61_"  style="overflow:visible;"/>
					</clipPath>
					<g class="st65">
						<path class="st32" d="M33.08,131.97l-4.82-1.25c-1.01-0.26-1.84-1.1-2.39-2.39l4.82,1.25
							C31.23,130.87,32.07,131.71,33.08,131.97"/>
					</g>
				</g>
			</g>
			<g class="st0">
				<g>
					<defs>
						<path id="SVGID_63_" d="M34.76,107.01l-4.82-1.25c-1.45-1.13-3.02-2.13-4.71-2.95l4.82,1.25
							C31.74,104.88,33.31,105.88,34.76,107.01z"/>
					</defs>
					<clipPath id="SVGID_64_">
						<use xlink:href="#SVGID_63_"  style="overflow:visible;"/>
					</clipPath>
					<g class="st66">
						<path class="st37" d="M34.76,107.01l-4.82-1.25c-1.45-1.13-3.02-2.13-4.71-2.95l4.82,1.25
							C31.74,104.88,33.31,105.88,34.76,107.01"/>
					</g>
				</g>
			</g>
			<g>
				<polygon class="st5" points="30.69,129.59 25.87,128.34 25.23,102.82 30.05,104.07 				"/>
			</g>
			<g class="st0">
				<g>
					<defs>
						<path id="SVGID_65_" d="M30.69,129.59l-4.82-1.25c-0.1-0.24-0.19-0.49-0.27-0.76l4.82,1.25
							C30.5,129.09,30.59,129.35,30.69,129.59z"/>
					</defs>
					<clipPath id="SVGID_66_">
						<use xlink:href="#SVGID_65_"  style="overflow:visible;"/>
					</clipPath>
					<g class="st67">
						<path class="st32" d="M30.69,129.59l-4.82-1.25c-0.1-0.24-0.19-0.49-0.27-0.76l4.82,1.25
							C30.5,129.09,30.59,129.35,30.69,129.59"/>
					</g>
				</g>
			</g>
			<g class="st0">
				<g>
					<defs>
						<path id="SVGID_67_" d="M34.5,96.84l-4.82-1.25c-1.46-0.75-3.02-1.38-4.68-1.87l4.82,1.25C31.49,95.46,33.04,96.09,34.5,96.84
							z"/>
					</defs>
					<clipPath id="SVGID_68_">
						<use xlink:href="#SVGID_67_"  style="overflow:visible;"/>
					</clipPath>
					<g class="st68">
						<path class="st40" d="M34.5,96.84l-4.82-1.25c-1.46-0.75-3.02-1.38-4.68-1.87l4.82,1.25C31.49,95.46,33.04,96.09,34.5,96.84"
							/>
					</g>
				</g>
			</g>
			<g>
				<polygon class="st8" points="30.05,104.07 25.23,102.82 25,93.72 29.82,94.97 				"/>
			</g>
			<g class="st0">
				<g>
					<defs>
						<path id="SVGID_69_" d="M30.05,104.07l-4.82-1.25c-0.08-0.04-0.17-0.08-0.25-0.11l4.82,1.25
							C29.88,103.99,29.97,104.03,30.05,104.07z"/>
					</defs>
					<clipPath id="SVGID_70_">
						<use xlink:href="#SVGID_69_"  style="overflow:visible;"/>
					</clipPath>
					<g class="st69">
						<path class="st37" d="M30.05,104.07l-4.82-1.25c-0.08-0.04-0.17-0.08-0.25-0.11l4.82,1.25
							C29.88,103.99,29.97,104.03,30.05,104.07"/>
					</g>
				</g>
			</g>
			<g>
				<polygon class="st5" points="30.42,128.82 25.59,127.57 24.97,102.7 29.8,103.95 				"/>
			</g>
			<g class="st0">
				<g>
					<defs>
						<path id="SVGID_71_" d="M30.42,128.82l-4.82-1.25c-0.23-0.78-0.37-1.67-0.4-2.67l4.82,1.25
							C30.05,127.16,30.19,128.04,30.42,128.82z"/>
					</defs>
					<clipPath id="SVGID_72_">
						<use xlink:href="#SVGID_71_"  style="overflow:visible;"/>
					</clipPath>
					<g class="st70">
						<path class="st32" d="M30.42,128.82l-4.82-1.25c-0.14-0.46-0.24-0.96-0.31-1.5l4.82,1.25
							C30.18,127.86,30.28,128.36,30.42,128.82"/>
						<path class="st33" d="M30.11,127.32l-4.82-1.25c-0.04-0.32-0.07-0.66-0.08-1.01l4.82,1.25
							C30.04,126.66,30.07,127,30.11,127.32"/>
						<path class="st35" d="M30.03,126.31l-4.82-1.25c0-0.05,0-0.1,0-0.16l4.82,1.25C30.02,126.21,30.03,126.26,30.03,126.31"/>
					</g>
				</g>
			</g>
			<g>
				<path class="st4" d="M30.05,104.07c1.69,0.81,3.26,1.82,4.71,2.95l0.62,24.62l-0.16,0.08c-1.93,0.9-3.63,0-4.53-2.13
					L30.05,104.07z"/>
			</g>
			<g>
				<path class="st4" d="M29.8,103.95c0.08,0.04,0.17,0.08,0.25,0.11l0.64,25.52c-0.1-0.24-0.19-0.49-0.27-0.76L29.8,103.95z"/>
			</g>
			<g>
				<polygon class="st2" points="29.82,94.97 25,93.72 24.68,82.91 29.51,84.16 				"/>
			</g>
			<g class="st0">
				<g>
					<defs>
						<path id="SVGID_73_" d="M29.82,94.97L25,93.72c-0.08-0.02-0.17-0.05-0.25-0.07l4.82,1.25C29.65,94.92,29.74,94.94,29.82,94.97
							z"/>
					</defs>
					<clipPath id="SVGID_74_">
						<use xlink:href="#SVGID_73_"  style="overflow:visible;"/>
					</clipPath>
					<g class="st71">
						<path class="st32" d="M29.82,94.97L25,93.72c-0.08-0.02-0.17-0.05-0.25-0.07l4.82,1.25C29.65,94.92,29.74,94.94,29.82,94.97"
							/>
					</g>
				</g>
			</g>
			<g>
				<polygon class="st8" points="29.8,103.95 24.97,102.7 24.74,93.64 29.57,94.89 				"/>
			</g>
			<g class="st0">
				<g>
					<defs>
						<path id="SVGID_75_" d="M29.8,103.95l-4.82-1.25c-0.11-0.06-0.22-0.1-0.33-0.15l4.82,1.25
							C29.57,103.85,29.68,103.9,29.8,103.95z"/>
					</defs>
					<clipPath id="SVGID_76_">
						<use xlink:href="#SVGID_75_"  style="overflow:visible;"/>
					</clipPath>
					<g class="st72">
						<path class="st37" d="M29.8,103.95l-4.82-1.25c-0.11-0.06-0.22-0.1-0.33-0.15l4.82,1.25C29.57,103.85,29.68,103.9,29.8,103.95
							"/>
					</g>
				</g>
			</g>
			<g>
				<polygon class="st73" points="30.02,126.15 25.2,124.9 24.64,102.55 29.46,103.8 				"/>
			</g>
			<g>
				<path class="st4" d="M29.46,103.8c0.11,0.05,0.22,0.1,0.33,0.15l0.62,24.87c-0.23-0.78-0.37-1.67-0.4-2.67L29.46,103.8z"/>
			</g>
			<g>
				<path class="st7" d="M29.82,94.97c1.66,0.49,3.22,1.13,4.68,1.88l0.26,10.17c-1.45-1.13-3.02-2.13-4.71-2.95L29.82,94.97z"/>
			</g>
			<g>
				<path class="st7" d="M29.57,94.89c0.08,0.02,0.17,0.05,0.25,0.07l0.23,9.1c-0.08-0.04-0.17-0.08-0.25-0.11L29.57,94.89z"/>
			</g>
			<g>
				<polygon class="st5" points="29.57,94.89 24.74,93.64 24.46,83.93 29.28,85.18 				"/>
			</g>
			<g class="st0">
				<g>
					<defs>
						<path id="SVGID_77_" d="M29.57,94.89l-4.82-1.25c-0.11-0.03-0.22-0.07-0.33-0.1l4.82,1.25
							C29.35,94.82,29.46,94.86,29.57,94.89z"/>
					</defs>
					<clipPath id="SVGID_78_">
						<use xlink:href="#SVGID_77_"  style="overflow:visible;"/>
					</clipPath>
					<g class="st74">
						<path class="st40" d="M29.57,94.89l-4.82-1.25c-0.11-0.03-0.22-0.07-0.33-0.1l4.82,1.25C29.35,94.82,29.46,94.86,29.57,94.89"
							/>
					</g>
				</g>
			</g>
			<g>
				<polygon class="st75" points="29.46,103.8 24.64,102.55 24.41,93.55 29.24,94.79 				"/>
			</g>
			<g>
				<path class="st7" d="M29.24,94.79c0.11,0.03,0.22,0.06,0.33,0.1l0.23,9.06c-0.11-0.06-0.22-0.1-0.33-0.15L29.24,94.79z"/>
			</g>
			<g>
				<polygon class="st2" points="29.24,94.79 24.41,93.55 24.2,86.94 29.03,86.51 				"/>
			</g>
			<g class="st0">
				<g>
					<defs>
						<path id="SVGID_79_" d="M29.03,86.51l-4.83,0.43c-0.03-1,0.07-2.02,0.25-3.01l4.82,1.25C29.1,86.17,29,85.51,29.03,86.51z"/>
					</defs>
					<clipPath id="SVGID_80_">
						<use xlink:href="#SVGID_79_"  style="overflow:visible;"/>
					</clipPath>
					<g class="st76">
						<path class="st77" d="M29.03,86.51l-4.83,0.43c-0.01-0.23-0.01-0.46,0-0.69l4.82-0.43C29.02,86.05,29.02,86.28,29.03,86.51"/>
						<path class="st78" d="M29.03,85.82l-4.82,0.43c0.01-0.26,0.02-0.52,0.04-0.79l4.82,1.25C29.05,86.98,29.04,85.56,29.03,85.82"
							/>
						<path class="st28" d="M29.07,86.71l-4.82-1.25c0.02-0.26,0.05-0.51,0.08-0.77l4.82,1.25C29.12,86.2,29.1,86.46,29.07,86.71"/>
						<path class="st29" d="M29.16,85.95l-4.83-1.25c0.03-0.26,0.08-0.51,0.12-0.77l4.82,1.25C29.24,85.44,29.19,85.69,29.16,85.95"
							/>
					</g>
				</g>
			</g>
			<g>
				<path class="st1" d="M29.28,85.18l0.29,9.71c-0.11-0.03-0.22-0.07-0.33-0.1l-0.21-8.28C29,85.51,29.1,86.17,29.28,85.18z"/>
			</g>
			<g>
				<path class="st1" d="M33.97,77.29l0.53,19.55c-1.46-0.75-3.02-1.38-4.68-1.88l-0.31-10.8C30.3,81.08,31.97,78.37,33.97,77.29z"
					/>
			</g>
			<g class="st0">
				<g>
					<defs>
						<path id="SVGID_81_" d="M29.51,84.16l-4.82-1.25c0.79-3.08,2.47-5.79,4.46-6.87l4.82,1.25C31.97,78.37,30.3,81.08,29.51,84.16
							z"/>
					</defs>
					<clipPath id="SVGID_82_">
						<use xlink:href="#SVGID_81_"  style="overflow:visible;"/>
					</clipPath>
					<g class="st79">
						<path class="st22" d="M29.51,84.16l-4.82-1.25c0.04-0.16,0.08-0.31,0.13-0.46l4.82,1.25C29.59,83.85,29.55,84,29.51,84.16"/>
						<path class="st23" d="M29.63,83.7l-4.82-1.25c0.08-0.27,0.16-0.54,0.26-0.81l4.82,1.25C29.8,83.15,29.71,83.42,29.63,83.7"/>
						<path class="st15" d="M29.89,82.89l-4.82-1.25c0.11-0.31,0.22-0.6,0.34-0.9l4.82,1.25C30.11,82.28,30,82.58,29.89,82.89"/>
						<path class="st16" d="M30.24,81.99l-4.82-1.25c0.16-0.39,0.34-0.76,0.53-1.12l4.82,1.25C30.57,81.23,30.4,81.6,30.24,81.99"/>
						<path class="st80" d="M30.76,80.87l-4.82-1.25c0.62-1.17,1.37-2.17,2.21-2.89l4.82,1.25C32.13,78.7,31.38,79.7,30.76,80.87"/>
						<path class="st16" d="M32.97,77.99l-4.82-1.25c0.24-0.21,0.49-0.39,0.75-0.55l4.82,1.25C33.46,77.59,33.21,77.78,32.97,77.99"
							/>
						<path class="st15" d="M33.72,77.44l-4.82-1.25c0.08-0.05,0.17-0.1,0.25-0.15l4.82,1.25C33.88,77.34,33.8,77.38,33.72,77.44"/>
					</g>
				</g>
			</g>
			<g class="st0">
				<g>
					<defs>
						<path id="SVGID_83_" d="M29.28,85.18l-4.82-1.25c0.06-0.35,0.14-0.69,0.23-1.02l4.82,1.25
							C29.42,84.49,29.35,84.84,29.28,85.18z"/>
					</defs>
					<clipPath id="SVGID_84_">
						<use xlink:href="#SVGID_83_"  style="overflow:visible;"/>
					</clipPath>
					<g class="st81">
						<path class="st49" d="M29.28,85.18l-4.82-1.25c0.05-0.24,0.1-0.49,0.15-0.72l4.82,1.25C29.38,84.7,29.33,84.94,29.28,85.18"/>
						<path class="st26" d="M29.43,84.46l-4.82-1.25c0.02-0.1,0.05-0.2,0.07-0.3l4.82,1.25C29.48,84.26,29.46,84.36,29.43,84.46"/>
					</g>
				</g>
			</g>
			<g>
				<path class="st4" d="M29.51,84.16l0.31,10.81c-0.08-0.02-0.17-0.05-0.25-0.07l-0.29-9.71C29.35,84.84,29.42,84.49,29.51,84.16z"
					/>
			</g>
		</g>
	</g>
</g>
</svg>
