<?xml version="1.0" encoding="utf-8"?>
<!-- Generator: Adobe Illustrator 25.3.1, SVG Export Plug-In . SVG Version: 6.00 Build 0)  -->
<svg version="1.1" id="Layer_1" xmlns="http://www.w3.org/2000/svg" xmlns:xlink="http://www.w3.org/1999/xlink" x="0px" y="0px"
	 viewBox="0 0 300 300" style="enable-background:new 0 0 300 300;" xml:space="preserve">
<style type="text/css">
	.st0{opacity:0.53;fill:url(#SVGID_1_);enable-background:new    ;}
	.st1{fill:#D8D9D8;}
	.st2{fill:#A5A5AA;}
	.st3{fill:#F0EFEF;}
	.st4{opacity:0.6;fill:url(#SVGID_2_);enable-background:new    ;}
	.st5{fill:#B9BABC;}
	.st6{fill:url(#SVGID_3_);}
	.st7{fill:url(#SVGID_4_);}
	.st8{fill:#515152;}
	.st9{fill:url(#SVGID_5_);}
	.st10{fill:#393B3D;}
	.st11{fill:#767676;}
	.st12{fill:#404044;}
	.st13{fill:#525257;}
	.st14{opacity:0.07;fill:#FFFFFF;enable-background:new    ;}
</style>
<g id="Layer_3">
	<linearGradient id="SVGID_1_" gradientUnits="userSpaceOnUse" x1="119.0546" y1="173.964" x2="253.4607" y2="225.9292">
		<stop  offset="0" style="stop-color:#231F20;stop-opacity:0.4"/>
		<stop  offset="0.0691" style="stop-color:#231F20;stop-opacity:0.3641"/>
		<stop  offset="0.7708" style="stop-color:#231F20;stop-opacity:0"/>
	</linearGradient>
	<path class="st0" d="M213.15,263.19c1.99-4.5,17.64-25.87,17.64-25.87s24.8-33.5,34.18-54.36L160.5,137.14l-97.26,55.22"/>
	<polygon class="st1" points="130.09,131.27 130.09,133.55 151.41,120.25 151.41,118.01 	"/>
	<g>
		<polygon class="st2" points="155.11,191.45 156.26,191.83 176.51,178.54 189.9,184.14 191.36,184.34 191.24,184.95 169.11,198.62 
			155.11,192.25 		"/>
		<g>
			<polygon class="st3" points="176.8,177.93 191.36,184.34 169.16,197.85 155.11,191.45 			"/>
		</g>
	</g>
	
		<linearGradient id="SVGID_2_" gradientUnits="userSpaceOnUse" x1="166.9264" y1="194.5257" x2="181.4452" y2="205.9131" gradientTransform="matrix(0.9974 0.0715 -0.0715 0.9974 14.6288 -11.8443)">
		<stop  offset="0.1677" style="stop-color:#231F20;stop-opacity:0.4"/>
		<stop  offset="0.2423" style="stop-color:#231F20;stop-opacity:0.3641"/>
		<stop  offset="1" style="stop-color:#231F20;stop-opacity:0"/>
	</linearGradient>
	<polygon class="st4" points="178.31,181.04 189.65,186.76 151.98,208.74 159.93,212.51 160.56,215.5 164.78,212.91 193.6,189.58 	
		"/>
	<g>
		<g>
			<g>
				<g>
					<g>
						<path class="st5" d="M230.77,168.45l-0.03,4.11c0,0-0.35,0.79-1.5,1.5l-82.5,49.76c0,0-6.71,5.11-15.15,2.05L62.87,194.8
							l0.37-2.44l98.04-52.73l66.65,28.89C227.94,168.53,229.7,167.54,230.77,168.45"/>
					</g>
				</g>
				<g>
					<g>
						
							<linearGradient id="SVGID_3_" gradientUnits="userSpaceOnUse" x1="21.6825" y1="151.9393" x2="192.7975" y2="151.9393" gradientTransform="matrix(-0.9423 0.2478 0.3806 1.1022 190.4393 -12.7035)">
							<stop  offset="0" style="stop-color:#A7A9AC"/>
							<stop  offset="0.12" style="stop-color:#808184"/>
							<stop  offset="0.2293" style="stop-color:#6E6F71"/>
							<stop  offset="0.3688" style="stop-color:#56585A"/>
							<stop  offset="0.8085" style="stop-color:#3D3C3C"/>
							<stop  offset="1" style="stop-color:#373636"/>
						</linearGradient>
						<path class="st6" d="M229.05,171.27l-83.1,50.06c0,0-6.71,5.11-15.15,2.05l-67.7-30.96l97.4-55.28l66.65,28.89
							C227.14,166.04,233.86,167.89,229.05,171.27z"/>
					</g>
					<g>
						
							<radialGradient id="SVGID_4_" cx="-7.9593" cy="174.7773" r="173.4621" gradientTransform="matrix(-0.9425 0.2758 0.38 1.1888 190.4237 -32.2542)" gradientUnits="userSpaceOnUse">
							<stop  offset="0" style="stop-color:#F2F2F2;stop-opacity:0.7727"/>
							<stop  offset="1" style="stop-color:#F2F2F2"/>
						</radialGradient>
						<path class="st7" d="M229.05,171.27l-83.1,50.06c0,0-6.71,5.11-15.15,2.05l-67.7-30.96l97.4-55.28l66.65,28.89
							C227.14,166.04,233.86,167.89,229.05,171.27z"/>
					</g>
				</g>
			</g>
			<g>
				<path class="st8" d="M61.63,112.07l-0.55,81.08l1.34-0.05l98.22-56.59l1.08-81.49l-3.87-1.86L67.6,103.8
					C67.6,103.8,61.93,106.72,61.63,112.07z"/>
				
					<linearGradient id="SVGID_5_" gradientUnits="userSpaceOnUse" x1="213.9906" y1="116.7456" x2="313.0688" y2="116.7456" gradientTransform="matrix(-1.0004 -0.1003 -6.802864e-03 0.9994 377.283 33.6059)">
					<stop  offset="0" style="stop-color:#6E6F71"/>
					<stop  offset="0.4761" style="stop-color:#3D3C3C"/>
					<stop  offset="1" style="stop-color:#231F20"/>
				</linearGradient>
				<path class="st9" d="M162.88,58.94l-0.54,79.07l-99.55,55.02l0.54-79.11c0.14-5.72,5.49-8.58,5.49-8.58l89.91-50.97
					C158.72,54.37,163.14,53.58,162.88,58.94z"/>
				<polygon class="st10" points="65.56,188.84 65.87,115.91 160.5,62.69 159.94,136.06 				"/>
				<path class="st11" d="M65.11,115.47l-0.45,74.77l96.23-53.49l0.51-75.34L65.11,115.47z M66.38,115.9l94.05-52.75l-0.63,72.76
					l-93.98,52.75L66.38,115.9z"/>
			</g>
			<g>
				<polygon class="st2" points="152.44,191.18 153.6,191.61 173.35,179.85 186.86,186.11 188.32,186.39 188.22,186.98 
					166.61,199.01 152.47,191.96 				"/>
				<g>
					<polygon class="st3" points="173.62,179.27 188.32,186.39 166.63,198.25 152.44,191.18 					"/>
				</g>
			</g>
			<g>
				<g>
					<g>
						<polygon class="st12" points="89.8,186.8 90.24,186.97 94.05,184.88 99.1,187.28 99.65,187.4 99.61,187.61 95.09,189.78 
							89.81,187.09 						"/>
						<g>
							<polygon class="st12" points="94.16,184.67 99.65,187.4 95.11,189.51 89.8,186.8 							"/>
						</g>
					</g>
					<g>
						<polygon class="st12" points="94.99,183.91 95.42,184.08 99.23,181.99 104.28,184.4 104.83,184.51 104.79,184.72 
							100.28,186.9 94.99,184.2 						"/>
						<g>
							<polygon class="st12" points="99.34,181.78 104.83,184.51 100.29,186.62 94.99,183.91 							"/>
						</g>
					</g>
					<g>
						<polygon class="st12" points="100.17,181.03 100.61,181.19 104.42,179.1 109.47,181.51 110.02,181.62 109.98,181.84 
							105.46,184.01 100.18,181.31 						"/>
						<g>
							<polygon class="st12" points="104.53,178.89 110.02,181.62 105.48,183.73 100.17,181.03 							"/>
						</g>
					</g>
					<g>
						<polygon class="st12" points="105.36,178.14 105.79,178.31 109.6,176.21 114.65,178.62 115.2,178.73 115.16,178.95 
							110.65,181.12 105.36,178.42 						"/>
						<g>
							<polygon class="st12" points="109.71,176.01 115.2,178.73 110.66,180.84 105.36,178.14 							"/>
						</g>
					</g>
					<g>
						<polygon class="st12" points="110.54,175.25 110.98,175.42 114.79,173.33 119.84,175.73 120.39,175.85 120.35,176.06 
							115.83,178.23 110.55,175.53 						"/>
						<g>
							<polygon class="st12" points="114.9,173.12 120.39,175.85 115.85,177.96 110.54,175.25 							"/>
						</g>
					</g>
					<g>
						<polygon class="st12" points="115.73,172.36 116.16,172.53 119.97,170.44 125.02,172.84 125.57,172.96 125.53,173.17 
							121.02,175.34 115.73,172.65 						"/>
						<g>
							<polygon class="st12" points="120.08,170.23 125.57,172.96 121.03,175.07 115.73,172.36 							"/>
						</g>
					</g>
					<g>
						<polygon class="st12" points="120.91,169.47 121.35,169.64 125.16,167.55 130.21,169.95 130.76,170.07 130.72,170.28 
							126.2,172.45 120.92,169.76 						"/>
						<g>
							<polygon class="st12" points="125.26,167.34 130.76,170.07 126.22,172.18 120.91,169.47 							"/>
						</g>
					</g>
					<g>
						<polygon class="st12" points="126.1,166.58 126.53,166.75 130.34,164.66 135.39,167.07 135.94,167.18 135.9,167.39 
							131.39,169.57 126.1,166.87 						"/>
						<g>
							<polygon class="st12" points="130.45,164.45 135.94,167.18 131.4,169.29 126.1,166.58 							"/>
						</g>
					</g>
					<g>
						<polygon class="st12" points="131.28,163.7 131.72,163.86 135.53,161.77 140.58,164.18 141.13,164.29 141.08,164.51 
							136.57,166.68 131.29,163.98 						"/>
						<g>
							<polygon class="st12" points="135.63,161.56 141.13,164.29 136.59,166.4 131.28,163.7 							"/>
						</g>
					</g>
					<g>
						<polygon class="st12" points="136.47,160.81 136.9,160.98 140.71,158.88 145.76,161.29 146.31,161.4 146.27,161.62 
							141.76,163.79 136.47,161.09 						"/>
						<g>
							<polygon class="st12" points="140.82,158.68 146.31,161.4 141.77,163.51 136.47,160.81 							"/>
						</g>
					</g>
					<g>
						<polygon class="st12" points="141.65,157.92 142.08,158.09 145.9,156 150.95,158.4 151.5,158.52 151.45,158.73 146.94,160.9 
							141.66,158.2 						"/>
						<g>
							<polygon class="st12" points="146,155.79 151.5,158.52 146.95,160.63 141.65,157.92 							"/>
						</g>
					</g>
					<g>
						<polygon class="st12" points="146.84,155.03 147.27,155.2 151.08,153.11 156.13,155.51 156.68,155.63 156.64,155.84 
							152.12,158.01 146.84,155.32 						"/>
						<g>
							<polygon class="st12" points="151.19,152.9 156.68,155.63 152.14,157.74 146.84,155.03 							"/>
						</g>
					</g>
					<g>
						<polygon class="st12" points="152.02,152.14 152.45,152.31 156.27,150.22 161.32,152.62 161.86,152.74 161.82,152.95 
							157.31,155.12 152.02,152.43 						"/>
						<g>
							<polygon class="st12" points="156.37,150.01 161.86,152.74 157.32,154.85 152.02,152.14 							"/>
						</g>
					</g>
					<g>
						<polygon class="st12" points="157.21,149.25 157.64,149.42 161.45,147.33 166.5,149.74 167.05,149.85 167.01,150.06 
							162.49,152.24 157.21,149.54 						"/>
						<g>
							<polygon class="st12" points="161.56,147.12 167.05,149.85 162.51,151.96 157.21,149.25 							"/>
						</g>
					</g>
				</g>
				<g>
					<g>
						<polygon class="st12" points="97.51,190.02 97.94,190.18 101.75,188.09 106.8,190.5 107.35,190.61 107.31,190.83 102.79,193 
							97.51,190.3 						"/>
						<g>
							<polygon class="st12" points="101.86,187.88 107.35,190.61 102.81,192.72 97.51,190.02 							"/>
						</g>
					</g>
					<g>
						<polygon class="st12" points="102.69,187.13 103.12,187.3 106.94,185.2 111.98,187.61 112.53,187.72 112.49,187.94 
							107.98,190.11 102.69,187.41 						"/>
						<g>
							<polygon class="st12" points="107.04,184.99 112.53,187.72 107.99,189.83 102.69,187.13 							"/>
						</g>
					</g>
					<g>
						<polygon class="st12" points="107.88,184.24 108.31,184.41 112.12,182.31 117.17,184.72 117.72,184.83 117.68,185.05 
							113.16,187.22 107.88,184.52 						"/>
						<g>
							<polygon class="st12" points="112.23,182.11 117.72,184.83 113.18,186.95 107.88,184.24 							"/>
						</g>
					</g>
					<g>
						<polygon class="st12" points="113.06,181.35 113.49,181.52 117.3,179.43 122.35,181.83 122.9,181.95 122.86,182.16 
							118.35,184.33 113.06,181.64 						"/>
						<g>
							<polygon class="st12" points="117.41,179.22 122.9,181.95 118.36,184.06 113.06,181.35 							"/>
						</g>
					</g>
					<g>
						<polygon class="st12" points="118.24,178.46 118.68,178.63 122.49,176.54 127.54,178.94 128.09,179.06 128.05,179.27 
							123.53,181.44 118.25,178.75 						"/>
						<g>
							<polygon class="st12" points="122.6,176.33 128.09,179.06 123.55,181.17 118.24,178.46 							"/>
						</g>
					</g>
					<g>
						<polygon class="st12" points="123.43,175.57 123.86,175.74 127.67,173.65 132.72,176.06 133.27,176.17 133.23,176.38 
							128.72,178.56 123.43,175.86 						"/>
						<g>
							<polygon class="st12" points="127.78,173.44 133.27,176.17 128.73,178.28 123.43,175.57 							"/>
						</g>
					</g>
					<g>
						<polygon class="st12" points="128.61,172.69 129.05,172.85 132.86,170.76 137.91,173.17 138.46,173.28 138.42,173.5 
							133.9,175.67 128.62,172.97 						"/>
						<g>
							<polygon class="st12" points="132.97,170.55 138.46,173.28 133.92,175.39 128.61,172.69 							"/>
						</g>
					</g>
					<g>
						<polygon class="st12" points="133.8,169.8 134.23,169.97 138.04,167.87 143.09,170.28 143.64,170.39 143.6,170.61 
							139.09,172.78 133.8,170.08 						"/>
						<g>
							<polygon class="st12" points="138.15,167.66 143.64,170.39 139.1,172.5 133.8,169.8 							"/>
						</g>
					</g>
					<g>
						<polygon class="st12" points="138.98,166.91 139.42,167.08 143.23,164.99 148.28,167.39 148.83,167.5 148.79,167.72 
							144.27,169.89 138.99,167.19 						"/>
						<g>
							<polygon class="st12" points="143.34,164.78 148.83,167.5 144.29,169.62 138.98,166.91 							"/>
						</g>
					</g>
					<g>
						<polygon class="st12" points="144.17,164.02 144.6,164.19 148.41,162.1 153.46,164.5 154.01,164.62 153.97,164.83 149.46,167 
							144.17,164.31 						"/>
						<g>
							<polygon class="st12" points="148.52,161.89 154.01,164.62 149.47,166.73 144.17,164.02 							"/>
						</g>
					</g>
					<g>
						<polygon class="st12" points="149.35,161.13 149.79,161.3 153.6,159.21 158.65,161.61 159.2,161.73 159.16,161.94 
							154.64,164.11 149.36,161.42 						"/>
						<g>
							<polygon class="st12" points="153.7,159 159.2,161.73 154.66,163.84 149.35,161.13 							"/>
						</g>
					</g>
					<g>
						<polygon class="st12" points="154.54,158.24 154.97,158.41 158.78,156.32 163.83,158.73 164.38,158.84 164.34,159.05 
							159.83,161.23 154.54,158.53 						"/>
						<g>
							<polygon class="st12" points="158.89,156.11 164.38,158.84 159.84,160.95 154.54,158.24 							"/>
						</g>
					</g>
					<g>
						<polygon class="st12" points="159.72,155.36 160.16,155.52 163.97,153.43 169.02,155.84 169.57,155.95 169.52,156.17 
							165.01,158.34 159.73,155.64 						"/>
						<g>
							<polygon class="st12" points="164.07,153.22 169.57,155.95 165.03,158.06 159.72,155.36 							"/>
						</g>
					</g>
					<g>
						<polygon class="st12" points="164.91,152.47 165.34,152.64 169.15,150.54 174.2,152.95 174.75,153.06 174.71,153.28 
							170.2,155.45 164.91,152.75 						"/>
						<g>
							<polygon class="st12" points="169.26,150.33 174.75,153.06 170.21,155.17 164.91,152.47 							"/>
						</g>
					</g>
				</g>
				<g>
					<g>
						<polygon class="st12" points="105.21,193.23 105.64,193.4 109.45,191.3 114.5,193.71 115.05,193.82 115.01,194.04 
							110.49,196.21 105.21,193.51 						"/>
						<g>
							<polygon class="st12" points="109.56,191.09 115.05,193.82 110.51,195.93 105.21,193.23 							"/>
						</g>
					</g>
					<g>
						<polygon class="st12" points="110.39,190.34 110.82,190.51 114.64,188.42 119.69,190.82 120.23,190.94 120.19,191.15 
							115.68,193.32 110.39,190.62 						"/>
						<g>
							<polygon class="st12" points="114.74,188.21 120.23,190.94 115.69,193.05 110.39,190.34 							"/>
						</g>
					</g>
					<g>
						<polygon class="st12" points="115.58,187.45 116.01,187.62 119.82,185.53 124.87,187.93 125.42,188.05 125.38,188.26 
							120.86,190.43 115.58,187.74 						"/>
						<g>
							<polygon class="st12" points="119.93,185.32 125.42,188.05 120.88,190.16 115.58,187.45 							"/>
						</g>
					</g>
					<g>
						<polygon class="st12" points="120.76,184.56 121.19,184.73 125.01,182.64 130.06,185.04 130.6,185.16 130.56,185.37 
							126.05,187.54 120.76,184.85 						"/>
						<g>
							<polygon class="st12" points="125.11,182.43 130.6,185.16 126.06,187.27 120.76,184.56 							"/>
						</g>
					</g>
					<g>
						<polygon class="st12" points="125.95,181.67 126.38,181.84 130.19,179.75 135.24,182.16 135.79,182.27 135.75,182.48 
							131.23,184.66 125.95,181.96 						"/>
						<g>
							<polygon class="st12" points="130.3,179.54 135.79,182.27 131.25,184.38 125.95,181.67 							"/>
						</g>
					</g>
					<g>
						<polygon class="st12" points="131.13,178.79 131.56,178.95 135.38,176.86 140.43,179.27 140.97,179.38 140.93,179.6 
							136.42,181.77 131.13,179.07 						"/>
						<g>
							<polygon class="st12" points="135.48,176.65 140.97,179.38 136.43,181.49 131.13,178.79 							"/>
						</g>
					</g>
					<g>
						<polygon class="st12" points="136.32,175.9 136.75,176.07 140.56,173.97 145.61,176.38 146.16,176.49 146.12,176.71 
							141.6,178.88 136.32,176.18 						"/>
						<g>
							<polygon class="st12" points="140.67,173.76 146.16,176.49 141.62,178.6 136.32,175.9 							"/>
						</g>
					</g>
					<g>
						<polygon class="st12" points="141.5,173.01 141.93,173.18 145.74,171.09 150.79,173.49 151.34,173.61 151.3,173.82 
							146.79,175.99 141.5,173.29 						"/>
						<g>
							<polygon class="st12" points="145.85,170.88 151.34,173.61 146.8,175.72 141.5,173.01 							"/>
						</g>
					</g>
					<g>
						<polygon class="st12" points="146.68,170.12 147.12,170.29 150.93,168.2 155.98,170.6 156.53,170.72 156.49,170.93 
							151.97,173.1 146.69,170.41 						"/>
						<g>
							<polygon class="st12" points="151.04,167.99 156.53,170.72 151.99,172.83 146.68,170.12 							"/>
						</g>
					</g>
					<g>
						<polygon class="st12" points="151.87,167.23 152.3,167.4 156.11,165.31 161.16,167.71 161.71,167.83 161.67,168.04 
							157.16,170.21 151.87,167.52 						"/>
						<g>
							<polygon class="st12" points="156.22,165.1 161.71,167.83 157.17,169.94 151.87,167.23 							"/>
						</g>
					</g>
					<g>
						<polygon class="st12" points="157.05,164.34 157.49,164.51 161.3,162.42 166.35,164.83 166.9,164.94 166.86,165.15 
							162.34,167.33 157.06,164.63 						"/>
						<g>
							<polygon class="st12" points="161.41,162.21 166.9,164.94 162.36,167.05 157.05,164.34 							"/>
						</g>
					</g>
					<g>
						<polygon class="st12" points="162.24,161.46 162.67,161.62 166.48,159.53 171.53,161.94 172.08,162.05 172.04,162.27 
							167.53,164.44 162.24,161.74 						"/>
						<g>
							<polygon class="st12" points="166.59,159.32 172.08,162.05 167.54,164.16 162.24,161.46 							"/>
						</g>
					</g>
					<g>
						<polygon class="st12" points="167.42,158.57 167.86,158.74 171.67,156.64 176.72,159.05 177.27,159.16 177.23,159.38 
							172.71,161.55 167.43,158.85 						"/>
						<g>
							<polygon class="st12" points="171.78,156.44 177.27,159.16 172.73,161.27 167.42,158.57 							"/>
						</g>
					</g>
					<g>
						<polygon class="st12" points="172.61,155.68 173.04,155.85 176.85,153.76 181.9,156.16 182.45,156.28 182.41,156.49 
							177.9,158.66 172.61,155.96 						"/>
						<g>
							<polygon class="st12" points="176.96,153.55 182.45,156.28 177.91,158.39 172.61,155.68 							"/>
						</g>
					</g>
				</g>
				<g>
					<g>
						<polygon class="st12" points="112.91,196.44 113.34,196.61 117.15,194.52 122.2,196.92 122.75,197.04 122.71,197.25 
							118.2,199.42 112.91,196.73 						"/>
						<g>
							<polygon class="st12" points="117.26,194.31 122.75,197.04 118.21,199.15 112.91,196.44 							"/>
						</g>
					</g>
					<g>
						<polygon class="st12" points="118.09,193.55 118.53,193.72 122.34,191.63 127.39,194.03 127.94,194.15 127.89,194.36 
							123.38,196.53 118.1,193.84 						"/>
						<g>
							<polygon class="st12" points="122.44,191.42 127.94,194.15 123.4,196.26 118.09,193.55 							"/>
						</g>
					</g>
					<g>
						<polygon class="st12" points="123.28,190.66 123.71,190.83 127.52,188.74 132.57,191.14 133.12,191.26 133.08,191.47 
							128.57,193.64 123.28,190.95 						"/>
						<g>
							<polygon class="st12" points="127.63,188.53 133.12,191.26 128.58,193.37 123.28,190.66 							"/>
						</g>
					</g>
					<g>
						<polygon class="st12" points="128.46,187.78 128.89,187.94 132.71,185.85 137.76,188.26 138.31,188.37 138.26,188.58 
							133.75,190.76 128.47,188.06 						"/>
						<g>
							<polygon class="st12" points="132.81,185.64 138.31,188.37 133.76,190.48 128.46,187.78 							"/>
						</g>
					</g>
					<g>
						<polygon class="st12" points="133.65,184.89 134.08,185.06 137.89,182.96 142.94,185.37 143.49,185.48 143.45,185.7 
							138.93,187.87 133.65,185.17 						"/>
						<g>
							<polygon class="st12" points="138,182.75 143.49,185.48 138.95,187.59 133.65,184.89 							"/>
						</g>
					</g>
					<g>
						<polygon class="st12" points="138.83,182 139.26,182.17 143.08,180.07 148.13,182.48 148.67,182.59 148.63,182.81 
							144.12,184.98 138.83,182.28 						"/>
						<g>
							<polygon class="st12" points="143.18,179.87 148.67,182.59 144.13,184.71 138.83,182 							"/>
						</g>
					</g>
					<g>
						<polygon class="st12" points="144.02,179.11 144.45,179.28 148.26,177.19 153.31,179.59 153.86,179.71 153.82,179.92 
							149.3,182.09 144.02,179.4 						"/>
						<g>
							<polygon class="st12" points="148.37,176.98 153.86,179.71 149.32,181.82 144.02,179.11 							"/>
						</g>
					</g>
					<g>
						<polygon class="st12" points="149.2,176.22 149.63,176.39 153.45,174.3 158.5,176.7 159.04,176.82 159,177.03 154.49,179.2 
							149.2,176.51 						"/>
						<g>
							<polygon class="st12" points="153.55,174.09 159.04,176.82 154.5,178.93 149.2,176.22 							"/>
						</g>
					</g>
					<g>
						<polygon class="st12" points="154.39,173.33 154.82,173.5 158.63,171.41 163.68,173.82 164.23,173.93 164.19,174.14 
							159.67,176.32 154.39,173.62 						"/>
						<g>
							<polygon class="st12" points="158.74,171.2 164.23,173.93 159.69,176.04 154.39,173.33 							"/>
						</g>
					</g>
					<g>
						<polygon class="st12" points="159.57,170.45 160,170.61 163.82,168.52 168.86,170.93 169.41,171.04 169.37,171.26 
							164.86,173.43 159.57,170.73 						"/>
						<g>
							<polygon class="st12" points="163.92,168.31 169.41,171.04 164.87,173.15 159.57,170.45 							"/>
						</g>
					</g>
					<g>
						<polygon class="st12" points="164.76,167.56 165.19,167.73 169,165.63 174.05,168.04 174.6,168.15 174.56,168.37 
							170.04,170.54 164.76,167.84 						"/>
						<g>
							<polygon class="st12" points="169.11,165.42 174.6,168.15 170.06,170.26 164.76,167.56 							"/>
						</g>
					</g>
					<g>
						<polygon class="st12" points="169.94,164.67 170.37,164.84 174.18,162.74 179.23,165.15 179.78,165.26 179.74,165.48 
							175.23,167.65 169.94,164.95 						"/>
						<g>
							<polygon class="st12" points="174.29,162.54 179.78,165.26 175.24,167.38 169.94,164.67 							"/>
						</g>
					</g>
					<g>
						<polygon class="st12" points="175.12,161.78 175.56,161.95 179.37,159.86 184.42,162.26 184.97,162.38 184.93,162.59 
							180.41,164.76 175.13,162.06 						"/>
						<g>
							<polygon class="st12" points="179.48,159.65 184.97,162.38 180.43,164.49 175.12,161.78 							"/>
						</g>
					</g>
					<g>
						<polygon class="st12" points="180.31,158.89 180.74,159.06 184.55,156.97 189.6,159.37 190.15,159.49 190.11,159.7 
							185.6,161.87 180.31,159.18 						"/>
						<g>
							<polygon class="st12" points="184.66,156.76 190.15,159.49 185.61,161.6 180.31,158.89 							"/>
						</g>
					</g>
				</g>
			</g>
			<g>
				<polygon class="st13" points="102.19,144.4 80.42,155.97 80.42,158.03 102.19,146.41 				"/>
				<polygon class="st13" points="102.19,148.79 80.42,160.36 80.42,162.42 102.19,150.8 				"/>
				<polygon class="st13" points="102.19,153.18 80.42,164.75 80.42,166.8 102.19,155.19 				"/>
				<polygon class="st13" points="102.19,157.57 80.42,169.14 80.42,171.19 102.19,159.58 				"/>
				<g>
					<polygon class="st13" points="106.38,142.17 106.38,144.17 124.99,134.24 124.99,132.27 					"/>
					<polygon class="st13" points="106.38,146.56 106.38,148.56 124.99,138.63 124.99,136.66 					"/>
					<polygon class="st13" points="106.38,150.95 106.38,152.95 124.99,143.02 124.99,141.05 					"/>
					<polygon class="st13" points="106.38,155.34 106.38,157.34 124.99,147.41 124.99,145.44 					"/>
				</g>
				<g>
					<polygon class="st13" points="128.82,130.73 128.82,132.73 147.43,122.8 147.43,120.84 					"/>
					<polygon class="st13" points="128.82,135.12 128.82,137.12 147.43,127.19 147.43,125.23 					"/>
					<polygon class="st13" points="128.82,139.51 128.82,141.51 147.43,131.58 147.43,129.62 					"/>
					<polygon class="st13" points="128.82,143.9 128.82,145.9 147.43,135.97 147.43,134 					"/>
				</g>
			</g>
		</g>
		<polygon class="st14" points="85.33,111.46 156.44,134.58 156.44,71.12 		"/>
	</g>
</g>
</svg>
