<?xml version="1.0" encoding="utf-8"?>
<!-- Generator: Adobe Illustrator 25.3.1, SVG Export Plug-In . SVG Version: 6.00 Build 0)  -->
<svg version="1.1" id="Layer_1" xmlns="http://www.w3.org/2000/svg" xmlns:xlink="http://www.w3.org/1999/xlink" x="0px" y="0px"
	 viewBox="0 0 300 300" style="enable-background:new 0 0 300 300;" xml:space="preserve">
<style type="text/css">
	.st0{fill:#666666;}
	.st1{fill:#999999;}
	.st2{fill:#808080;}
	.st3{fill:#4D4D4D;}
	.st4{fill:#C6AF6E;}
</style>
<g>
	<path class="st0" d="M106.62,255.05h-9.15h0l-5.41-4.08l0,0l-0.83,0.66l0,0l-3.72-2.81l0.43-0.98l-5.33-4.03l0,0l-1.32,0.29
		l-0.01,0l-4.36-3.29l17.38-13.94l24.44,18.47l-0.01,0.01L106.62,255.05L106.62,255.05z M104.24,252.2l1.17-0.95l-4.42-3.33
		l-1.19,0.93L104.24,252.2z M94.41,229.07l-13.13,10.43l13,9.8l13.13-10.43L94.41,229.07z M114.94,244.48l-4.89-3.68l-1.18,0.93
		l4.88,3.68L114.94,244.48z M113.69,246.34l-5.45-4.1l-1.19,0.93l5.45,4.1L113.69,246.34z M111.25,247.37l-4.87-3.67l-1.18,0.93
		l4.87,3.67L111.25,247.37z M110.02,249.22l-5.45-4.1l-1.19,0.93l5.45,4.1L110.02,249.22z M108.22,250.64l-5.45-4.1l-1.18,0.93
		l5.45,4.1L108.22,250.64z"/>
	<polygon class="st1" points="106.62,255.05 118.71,245.35 118.73,245.36 118.73,247.17 106.62,256.88 106.62,256.88 106.62,255.05 
			"/>
	<rect x="97.47" y="255.05" class="st2" width="9.15" height="1.83"/>
	<polygon class="st3" points="92.05,250.97 92.05,250.97 97.47,255.05 97.47,255.05 97.47,256.88 97.47,256.88 92.05,252.79 
		92.05,252.8 	"/>
	<polygon class="st2" points="91.23,251.63 91.23,251.63 92.05,250.97 92.05,252.8 91.23,253.46 91.23,253.46 	"/>
	<polygon class="st2" points="81.28,239.51 94.41,229.07 107.41,238.87 94.29,249.31 	"/>
	<polygon class="st4" points="108.24,242.24 113.69,246.34 112.5,247.28 107.06,243.17 	"/>
	<polygon class="st4" points="104.57,245.12 110.02,249.22 108.83,250.15 103.38,246.05 	"/>
	<polygon class="st4" points="102.78,246.53 108.22,250.64 107.04,251.57 101.59,247.46 	"/>
	<polygon class="st4" points="110.05,240.8 114.94,244.48 113.75,245.42 108.87,241.73 	"/>
	<polygon class="st4" points="106.38,243.7 111.25,247.37 110.07,248.3 105.2,244.63 	"/>
	<polygon class="st4" points="105.4,251.26 104.24,252.2 99.8,248.86 100.98,247.93 	"/>
	<polygon class="st3" points="82.6,243.81 82.6,243.81 87.93,247.84 87.5,248.82 91.23,251.63 91.23,253.46 87.5,250.64 
		87.5,249.34 82.6,245.64 82.6,245.64 	"/>
	<polygon class="st2" points="81.28,244.1 82.6,243.81 82.6,245.64 81.28,245.93 	"/>
	<polygon class="st3" points="81.27,244.1 81.28,244.1 81.28,245.93 81.27,245.93 76.91,242.64 76.91,240.81 	"/>
</g>
</svg>
