<?xml version="1.0" encoding="utf-8"?>
<!-- Generator: Adobe Illustrator 25.3.1, SVG Export Plug-In . SVG Version: 6.00 Build 0)  -->
<svg version="1.1" id="Layer_1" xmlns="http://www.w3.org/2000/svg" xmlns:xlink="http://www.w3.org/1999/xlink" x="0px" y="0px"
	 viewBox="0 0 300 300" style="enable-background:new 0 0 300 300;" xml:space="preserve">
<style type="text/css">
	.st0{fill:#3F4D76;}
	.st1{fill:#435472;}
	.st2{enable-background:new    ;}
	.st3{fill:#FFFEF5;}
	.st4{fill:#949DAE;}
	.st5{fill:#697B94;}
	.st6{fill:#5E6F74;}
	.st7{fill:#EBEEDD;}
	.st8{fill:#C0C7DE;}
	.st9{fill:#98A992;}
	.st10{fill:#FFFEF6;}
	.st11{fill:#617577;}
	.st12{fill:none;stroke:#EBEEDD;stroke-width:2.2958;stroke-linecap:round;stroke-linejoin:round;stroke-miterlimit:10;}
	.st13{opacity:0.2;}
	.st14{fill:#899C9D;}
	.st15{fill:#788A88;}
</style>
<g>
	<path class="st0" d="M242.89,79.05l-2.55,10.18c-0.77,3.06-3.02,5.37-5.81,6.37c-1.65,0.59-3.49,0.71-5.31,0.26
		c-1.83-0.45-3.39-1.42-4.57-2.71c-2-2.17-2.9-5.26-2.13-8.33l2.55-10.18L242.89,79.05z"/>
	<path class="st1" d="M255.36,78.54c-5.14-6.26-0.81-10.17-0.81-10.17c4.33-7.24,20.31-10.76,20.31-10.76l-4.35-6.06
		c-18.54,7.04-30.98,3.13-30.98,3.13s-12.83-2.35-25.88-17.22l-6.7,3.33c0,0,12.45,10.56,12.86,18.98c0,0,1.98,5.48-5.51,8.61
		l-24.65,11.35l2.38,7.24c0,0,29.16-10.55,40.1-7.62c0.77,0.21,1.54,0.4,2.32,0.58c11.04,2.51,31.81,25.44,31.81,25.44l5.52-5.28
		L255.36,78.54z"/>
	<g>
		<g class="st2">
			<g>
				<path class="st1" d="M199.2,82.51l-0.99,3.9c-0.23,0.9-1.05,1.64-2.4,2.03c-2.74,0.78-6.62-0.18-8.68-2.15
					c-1.04-0.99-1.41-2.05-1.18-2.96l0.99-3.9c-0.23,0.91,0.15,1.97,1.18,2.96c2.06,1.97,5.95,2.94,8.68,2.15
					C198.15,84.15,198.97,83.41,199.2,82.51z"/>
			</g>
			<g>
				<path class="st1" d="M198.01,79.55c2.06,1.97,1.51,4.21-1.22,4.99c-2.74,0.78-6.62-0.18-8.68-2.15
					c-2.06-1.97-1.51-4.21,1.22-4.99S195.95,77.58,198.01,79.55z"/>
			</g>
		</g>
	</g>
	<g>
		<g class="st2">
			<g>
				<path class="st1" d="M281.44,52.19l-0.99,3.9c-0.23,0.9-1.05,1.64-2.4,2.03c-2.74,0.78-6.62-0.18-8.68-2.15
					c-1.04-0.99-1.41-2.05-1.18-2.96l0.99-3.91c-0.23,0.91,0.15,1.97,1.18,2.96c2.06,1.97,5.95,2.94,8.68,2.15
					C280.4,53.83,281.21,53.09,281.44,52.19z"/>
			</g>
			<g>
				<path class="st1" d="M280.26,49.23c2.06,1.97,1.51,4.21-1.22,4.99c-2.73,0.78-6.62-0.18-8.68-2.15
					c-2.06-1.97-1.51-4.21,1.22-4.99C274.31,46.3,278.2,47.26,280.26,49.23z"/>
			</g>
		</g>
	</g>
	<g>
		<g class="st2">
			<g>
				<path class="st1" d="M215.11,35.76l-0.99,3.91c-0.23,0.9-1.05,1.64-2.4,2.03c-2.74,0.78-6.62-0.18-8.68-2.15
					c-1.04-0.99-1.41-2.05-1.18-2.96l0.99-3.9c-0.23,0.91,0.15,1.97,1.18,2.96c2.06,1.97,5.95,2.94,8.68,2.15
					C214.06,37.4,214.88,36.65,215.11,35.76z"/>
			</g>
			<g>
				<path class="st1" d="M213.92,32.8c2.06,1.97,1.52,4.21-1.22,4.99c-2.74,0.78-6.62-0.18-8.68-2.15
					c-2.06-1.97-1.51-4.21,1.22-4.99C207.98,29.86,211.86,30.82,213.92,32.8z"/>
			</g>
		</g>
	</g>
	<g>
		<g class="st2">
			<g>
				<path class="st1" d="M276.58,101.69l-0.99,3.9c-0.23,0.9-1.05,1.64-2.4,2.03c-2.74,0.78-6.62-0.18-8.68-2.15
					c-1.04-0.99-1.41-2.05-1.18-2.96l0.99-3.9c-0.23,0.91,0.15,1.97,1.18,2.96c2.06,1.97,5.95,2.94,8.68,2.15
					C275.54,103.33,276.36,102.58,276.58,101.69z"/>
			</g>
			<g>
				<path class="st1" d="M275.4,98.73c2.06,1.97,1.51,4.21-1.22,4.99c-2.74,0.78-6.62-0.18-8.68-2.15
					c-2.06-1.97-1.51-4.21,1.22-4.99C269.45,95.79,273.34,96.75,275.4,98.73z"/>
			</g>
		</g>
	</g>
	<g>
		<g>
			<path class="st3" d="M248.97,62.85c4.97,4.76,3.66,10.16-2.94,12.05c-6.6,1.89-15.99-0.43-20.96-5.19
				c-4.97-4.76-3.65-10.15,2.95-12.05C234.61,55.76,243.99,58.09,248.97,62.85z"/>
		</g>
		<path class="st4" d="M250.59,68.67l0.45-1.78l-0.39-0.1c-0.23-1.47-1.09-3.02-2.64-4.5c-4.48-4.29-12.93-6.38-18.87-4.68
			c-2.15,0.62-3.67,1.65-4.54,2.92l-0.3-0.07l-0.4,1.61l0,0c-0.48,1.96,0.34,4.25,2.58,6.39c4.48,4.29,12.93,6.38,18.87,4.68
			C248.33,72.29,250.11,70.64,250.59,68.67z"/>
		<g>
			<path class="st1" d="M248.43,60.57c4.48,4.29,3.29,9.14-2.65,10.85s-14.39-0.39-18.87-4.68c-4.48-4.29-3.29-9.14,2.65-10.85
				C235.51,54.19,243.96,56.28,248.43,60.57z"/>
		</g>
		<g>
			<path class="st5" d="M247.49,59.63c3.95,3.78,2.9,8.06-2.34,9.56s-12.69-0.34-16.64-4.12c-3.95-3.78-2.9-8.06,2.34-9.56
				C236.09,54.01,243.54,55.85,247.49,59.63z"/>
		</g>
		<g>
			<path class="st6" d="M237.79,66.38c0.36,0.34,0.26,0.73-0.21,0.87c-0.47,0.14-1.15-0.03-1.51-0.37s-0.26-0.73,0.21-0.87
				C236.75,65.87,237.43,66.04,237.79,66.38z"/>
		</g>
	</g>
	<g class="st2">
		<g>
			<path class="st7" d="M273.75,99.2c1.37,1.32,1.01,2.81-0.81,3.33c-1.82,0.52-4.42-0.12-5.79-1.44c-1.37-1.32-1.01-2.81,0.81-3.33
				S272.38,97.88,273.75,99.2z"/>
		</g>
		<g>
			<path class="st8" d="M270.1,88.37l-2.67,10.68c-0.11,0.45,0.07,0.98,0.59,1.47c1.03,1,3,1.48,4.39,1.09
				c0.7-0.2,1.12-0.58,1.23-1.04l2.67-10.68c-0.11,0.46-0.53,0.84-1.23,1.04c-1.39,0.39-3.36-0.09-4.39-1.09
				C270.18,89.35,269.99,88.82,270.1,88.37z"/>
		</g>
		<g>
			<path class="st9" d="M271.34,87.33c-1.39,0.39-1.68,1.52-0.65,2.52c1.03,1,3,1.48,4.39,1.09c1.39-0.39,1.68-1.52,0.65-2.52
				C274.69,87.42,272.73,86.93,271.34,87.33z"/>
		</g>
	</g>
	<g class="st2">
		<g>
			<path class="st7" d="M278.71,49.31c1.37,1.32,1.01,2.81-0.81,3.33c-1.82,0.52-4.42-0.12-5.79-1.44
				c-1.37-1.32-1.01-2.81,0.81-3.33C274.74,47.35,277.33,47.99,278.71,49.31z"/>
		</g>
		<g>
			<path class="st8" d="M275.06,38.48l-2.67,10.68c-0.11,0.45,0.07,0.98,0.59,1.47c1.03,1,3,1.48,4.39,1.09
				c0.7-0.2,1.12-0.58,1.23-1.04L281.27,40c-0.11,0.46-0.53,0.84-1.23,1.04c-1.39,0.39-3.36-0.09-4.39-1.09
				C275.13,39.46,274.94,38.93,275.06,38.48z"/>
		</g>
		<g>
			<path class="st9" d="M276.29,37.44c-1.39,0.39-1.68,1.52-0.65,2.52c1.03,1,3,1.48,4.39,1.09c1.39-0.39,1.68-1.52,0.65-2.52
				C279.65,37.53,277.68,37.04,276.29,37.44z"/>
		</g>
	</g>
	<g class="st2">
		<g>
			<path class="st7" d="M212.27,33.3c1.37,1.32,1.01,2.81-0.81,3.33c-1.82,0.52-4.42-0.12-5.79-1.44c-1.37-1.32-1.01-2.81,0.81-3.33
				C208.3,31.35,210.89,31.99,212.27,33.3z"/>
		</g>
		<g>
			<path class="st8" d="M208.61,22.48l-2.67,10.68c-0.11,0.45,0.07,0.98,0.59,1.47c1.03,1,3,1.48,4.39,1.09
				c0.7-0.2,1.12-0.58,1.23-1.04L214.83,24c-0.11,0.46-0.53,0.84-1.23,1.04c-1.39,0.39-3.36-0.09-4.39-1.09
				C208.69,23.46,208.5,22.93,208.61,22.48z"/>
		</g>
		<g>
			<path class="st9" d="M209.85,21.43c-1.39,0.39-1.68,1.52-0.65,2.52c1.03,1,3,1.48,4.39,1.09c1.39-0.39,1.68-1.52,0.65-2.52
				C213.21,21.53,211.24,21.04,209.85,21.43z"/>
		</g>
	</g>
	<g class="st2">
		<g>
			<path class="st7" d="M196.39,79.89c1.37,1.32,1.01,2.81-0.81,3.33c-1.82,0.52-4.42-0.12-5.79-1.44
				c-1.37-1.32-1.01-2.81,0.81-3.33C192.43,77.94,195.02,78.58,196.39,79.89z"/>
		</g>
		<g>
			<path class="st8" d="M192.74,69.07l-2.67,10.68c-0.11,0.45,0.07,0.98,0.59,1.47c1.03,1,3,1.48,4.39,1.09
				c0.7-0.2,1.12-0.58,1.23-1.04l2.67-10.68c-0.11,0.46-0.53,0.84-1.23,1.04c-1.39,0.39-3.36-0.09-4.39-1.09
				C192.82,70.05,192.63,69.52,192.74,69.07z"/>
		</g>
		<g>
			<path class="st9" d="M193.98,68.02c-1.39,0.39-1.68,1.52-0.65,2.52c1.03,1,3,1.48,4.39,1.09c1.39-0.39,1.68-1.52,0.65-2.52
				C197.33,68.12,195.37,67.63,193.98,68.02z"/>
		</g>
	</g>
	<g>
		<g class="st2">
			<g>
				<path class="st10" d="M275.2,88.16c-0.42-0.41-1.06-0.69-1.71-0.8l0.22-0.88c0.65,0.11,1.29,0.4,1.71,0.8
					C275.34,87.58,275.27,87.87,275.2,88.16z"/>
			</g>
			<g>
				<path class="st10" d="M271.32,88.04c-0.01,0.03-0.02,0.05-0.03,0.08l0.22-0.88c0.01-0.03,0.02-0.06,0.03-0.08
					C271.47,87.43,271.4,87.78,271.32,88.04z"/>
			</g>
			<g>
				<path class="st10" d="M275.61,89.21c0.08-0.32-0.05-0.69-0.42-1.05c0.07-0.29,0.15-0.58,0.22-0.88c0.37,0.35,0.5,0.72,0.42,1.05
					C275.77,88.6,275.68,88.95,275.61,89.21z"/>
			</g>
			<g>
				<path class="st10" d="M288.31,83.59c0.37,0.35,0.32,0.76-0.12,0.94l-6.54,2.76c-1.72,0.64-3.71,1.05-5.87,1.19
					c0.17-0.35,0.06-0.78-0.37-1.19c-0.42-0.41-1.06-0.69-1.71-0.8c1.39-0.88,3.11-1.54,5.07-1.95l7.96-1.4
					C287.27,83.04,287.94,83.24,288.31,83.59z"/>
			</g>
			<path class="st3" d="M288.19,84.53l-6.54,2.76c-1.72,0.64-3.71,1.05-5.87,1.19l-0.22,0.88c2.16-0.14,4.15-0.54,5.87-1.19
				c0.03-0.13,0.07-0.29,0.11-0.44l-0.11,0.44l6.54-2.76c0.2-0.08,0.31-0.21,0.35-0.36l0.22-0.88
				C288.51,84.32,288.39,84.45,288.19,84.53z"/>
			<g>
				<path class="st7" d="M275.84,88.33l-0.22,0.88c-0.01,0.05-0.03,0.1-0.05,0.14c-0.12,0.25-0.39,0.46-0.79,0.57
					c-0.44,0.13-0.96,0.12-1.46,0.02c-0.61-0.13-1.2-0.4-1.59-0.78c-0.37-0.35-0.5-0.72-0.42-1.04l0.22-0.88
					c-0.08,0.32,0.05,0.69,0.42,1.04c0.4,0.38,0.99,0.65,1.59,0.78c0.51,0.1,1.03,0.11,1.47-0.02c0.4-0.12,0.67-0.32,0.79-0.57
					C275.81,88.43,275.82,88.38,275.84,88.33z"/>
			</g>
			<g>
				<path class="st11" d="M275.42,87.29c0.42,0.4,0.54,0.84,0.37,1.19c-0.12,0.25-0.39,0.46-0.79,0.57
					c-0.44,0.13-0.96,0.12-1.47,0.02c-0.61-0.13-1.2-0.4-1.59-0.78c-0.4-0.38-0.52-0.79-0.39-1.12c0.11-0.28,0.38-0.51,0.82-0.63
					c0.4-0.12,0.88-0.12,1.34-0.04C274.35,86.6,275,86.88,275.42,87.29z"/>
			</g>
			<path class="st3" d="M268.3,91.12l-7.96,1.4c-0.53,0.09-1.21-0.1-1.58-0.45c-0.2-0.19-0.28-0.4-0.23-0.58l-0.22,0.88
				c-0.05,0.18,0.03,0.39,0.23,0.58c0.37,0.35,1.05,0.55,1.58,0.45l7.96-1.4c2.04-0.43,3.81-1.12,5.23-2.05v0l0.22-0.88
				C272.11,89.99,270.34,90.69,268.3,91.12z"/>
			<g>
				<path class="st10" d="M271.54,87.16c-0.13,0.34-0.01,0.74,0.39,1.12c0.4,0.38,0.99,0.65,1.59,0.78
					c-1.41,0.93-3.19,1.62-5.23,2.05l-7.96,1.4c-0.53,0.09-1.21-0.1-1.58-0.45c-0.37-0.35-0.31-0.75,0.12-0.94l6.54-2.76
					C267.21,87.69,269.29,87.29,271.54,87.16z"/>
			</g>
		</g>
	</g>
	<g>
		<g class="st2">
			<g>
				<path class="st10" d="M213.61,22.65c-0.42-0.41-1.06-0.69-1.71-0.8l0.22-0.88c0.65,0.11,1.29,0.4,1.71,0.8
					C213.76,22.07,213.69,22.36,213.61,22.65z"/>
			</g>
			<g>
				<path class="st10" d="M209.74,22.53c-0.01,0.03-0.02,0.05-0.03,0.08l0.22-0.88c0.01-0.03,0.02-0.06,0.03-0.08
					C209.89,21.91,209.82,22.27,209.74,22.53z"/>
			</g>
			<g>
				<path class="st10" d="M214.03,23.7c0.08-0.32-0.05-0.69-0.42-1.05c0.07-0.29,0.15-0.58,0.22-0.88c0.37,0.35,0.5,0.72,0.42,1.05
					C214.19,23.08,214.1,23.43,214.03,23.7z"/>
			</g>
			<g>
				<path class="st10" d="M226.73,18.08c0.37,0.35,0.32,0.76-0.12,0.94l-6.54,2.76c-1.72,0.64-3.71,1.05-5.87,1.19
					c0.17-0.35,0.06-0.78-0.37-1.19c-0.42-0.41-1.06-0.69-1.71-0.8c1.39-0.88,3.11-1.54,5.07-1.95l7.96-1.4
					C225.69,17.53,226.36,17.73,226.73,18.08z"/>
			</g>
			<path class="st3" d="M226.61,19.02l-6.54,2.76c-1.72,0.64-3.71,1.05-5.87,1.19l-0.22,0.88c2.16-0.14,4.15-0.54,5.87-1.19
				c0.03-0.13,0.07-0.29,0.11-0.44l-0.11,0.44l6.54-2.76c0.2-0.08,0.31-0.21,0.35-0.36l0.22-0.88
				C226.93,18.81,226.81,18.94,226.61,19.02z"/>
			<g>
				<path class="st7" d="M214.25,22.82l-0.22,0.88c-0.01,0.05-0.03,0.1-0.05,0.14c-0.12,0.25-0.39,0.46-0.79,0.57
					c-0.44,0.13-0.96,0.12-1.47,0.02c-0.61-0.13-1.2-0.4-1.59-0.78c-0.37-0.35-0.5-0.72-0.42-1.04l0.22-0.88
					c-0.08,0.32,0.05,0.69,0.42,1.04c0.4,0.38,0.99,0.65,1.59,0.78c0.51,0.1,1.03,0.11,1.46-0.02c0.4-0.12,0.67-0.32,0.79-0.57
					C214.22,22.92,214.24,22.87,214.25,22.82z"/>
			</g>
			<g>
				<path class="st11" d="M213.84,21.77c0.42,0.4,0.54,0.84,0.37,1.19c-0.12,0.25-0.39,0.46-0.79,0.57
					c-0.44,0.13-0.96,0.12-1.46,0.02c-0.61-0.13-1.2-0.4-1.59-0.78c-0.4-0.38-0.52-0.79-0.39-1.12c0.11-0.28,0.38-0.51,0.82-0.63
					c0.4-0.12,0.88-0.12,1.34-0.04C212.77,21.09,213.41,21.37,213.84,21.77z"/>
			</g>
			<path class="st3" d="M206.72,25.6l-7.96,1.4c-0.53,0.09-1.21-0.1-1.58-0.45c-0.2-0.19-0.28-0.4-0.23-0.58l-0.22,0.88
				c-0.05,0.18,0.03,0.39,0.23,0.58c0.37,0.35,1.05,0.55,1.58,0.45l7.96-1.4c2.04-0.43,3.81-1.12,5.23-2.05l0,0l0.22-0.88
				C210.53,24.48,208.76,25.18,206.72,25.6z"/>
			<g>
				<path class="st10" d="M209.96,21.65c-0.13,0.34-0.01,0.74,0.39,1.12c0.4,0.38,0.99,0.65,1.59,0.78
					c-1.41,0.93-3.19,1.62-5.23,2.05l-7.96,1.4c-0.53,0.09-1.21-0.1-1.58-0.45c-0.37-0.35-0.31-0.75,0.12-0.94l6.54-2.76
					C205.63,22.18,207.7,21.77,209.96,21.65z"/>
			</g>
		</g>
	</g>
	<g>
		<line class="st12" x1="206.62" y1="77.75" x2="206.15" y2="76.41"/>
		<line class="st12" x1="208.95" y1="76.88" x2="208.48" y2="75.55"/>
		<line class="st12" x1="211.28" y1="76.01" x2="210.81" y2="74.68"/>
		<line class="st12" x1="213.62" y1="75.14" x2="213.14" y2="73.81"/>
	</g>
	<g>
		<line class="st12" x1="257.63" y1="90.38" x2="258.67" y2="89.43"/>
		<line class="st12" x1="255.98" y1="88.53" x2="257.02" y2="87.57"/>
		<line class="st12" x1="254.33" y1="86.68" x2="255.37" y2="85.72"/>
		<line class="st12" x1="252.68" y1="84.82" x2="253.73" y2="83.86"/>
	</g>
	<g>
		<g class="st2">
			<g>
				<path class="st10" d="M276.99,37.9c0.56-0.16,1.26-0.11,1.89,0.09l0.22-0.88c-0.63-0.21-1.33-0.25-1.89-0.09
					C277.14,37.31,277.06,37.61,276.99,37.9z"/>
			</g>
			<g>
				<path class="st10" d="M280.47,39.6c0,0.03-0.01,0.06-0.02,0.08l0.22-0.88c0.01-0.03,0.01-0.06,0.02-0.08
					C280.63,38.98,280.52,39.33,280.47,39.6z"/>
			</g>
			<g>
				<path class="st10" d="M276.13,38.63c0.08-0.32,0.37-0.59,0.86-0.73c0.07-0.29,0.14-0.58,0.22-0.88
					c-0.49,0.14-0.78,0.41-0.86,0.73C276.28,38.01,276.19,38.36,276.13,38.63z"/>
			</g>
			<g>
				<path class="st10" d="M267.57,27.74c-0.49,0.14-0.64,0.52-0.34,0.89l4.48,5.49c1.21,1.37,2.78,2.65,4.62,3.78
					c0.02-0.39,0.32-0.72,0.88-0.88c0.56-0.16,1.26-0.11,1.89,0.09c-0.81-1.42-2.02-2.81-3.56-4.09l-6.37-4.95
					C268.74,27.75,268.06,27.6,267.57,27.74z"/>
			</g>
			<path class="st3" d="M267.23,28.63l4.48,5.49c1.21,1.37,2.78,2.65,4.62,3.78l-0.22,0.88c-1.84-1.13-3.41-2.41-4.62-3.78
				c0.03-0.13,0.07-0.29,0.11-0.44l-0.11,0.44l-4.48-5.49c-0.13-0.16-0.18-0.33-0.14-0.48l0.22-0.88
				C267.05,28.3,267.09,28.46,267.23,28.63z"/>
			<g>
				<path class="st7" d="M276.34,37.75l-0.22,0.88c-0.01,0.05-0.02,0.1-0.02,0.15c-0.01,0.28,0.13,0.58,0.43,0.88
					c0.33,0.31,0.79,0.56,1.28,0.7c0.6,0.17,1.25,0.21,1.78,0.06c0.49-0.14,0.78-0.41,0.86-0.73l0.22-0.88
					c-0.08,0.32-0.37,0.59-0.86,0.73c-0.53,0.15-1.18,0.12-1.78-0.06c-0.5-0.14-0.96-0.39-1.28-0.7c-0.3-0.29-0.44-0.6-0.43-0.87
					C276.33,37.85,276.33,37.8,276.34,37.75z"/>
			</g>
			<g>
				<path class="st11" d="M277.21,37.02c-0.56,0.16-0.87,0.49-0.88,0.88c-0.01,0.28,0.13,0.58,0.43,0.87
					c0.33,0.31,0.79,0.56,1.28,0.7c0.6,0.17,1.25,0.21,1.78,0.06c0.53-0.15,0.83-0.45,0.88-0.81c0.04-0.3-0.1-0.63-0.43-0.94
					c-0.3-0.29-0.71-0.52-1.16-0.66C278.47,36.91,277.77,36.86,277.21,37.02z"/>
			</g>
			<path class="st3" d="M281.69,43.72l6.37,4.95c0.43,0.33,1.11,0.48,1.61,0.34c0.27-0.08,0.43-0.23,0.48-0.4l-0.22,0.88
				c-0.04,0.18-0.21,0.33-0.48,0.4c-0.49,0.14-1.18-0.01-1.61-0.34l-6.37-4.95c-1.6-1.33-2.84-2.77-3.65-4.25v0l0.22-0.88
				C278.85,40.95,280.09,42.4,281.69,43.72z"/>
			<g>
				<path class="st10" d="M280.69,38.72c-0.05,0.36-0.35,0.66-0.88,0.81c-0.53,0.15-1.18,0.12-1.78-0.06
					c0.81,1.48,2.05,2.92,3.65,4.25l6.37,4.95c0.43,0.33,1.11,0.48,1.61,0.34c0.49-0.14,0.63-0.52,0.33-0.89l-4.47-5.49
					C284.26,41.21,282.62,39.88,280.69,38.72z"/>
			</g>
		</g>
	</g>
	<g>
		<g class="st2">
			<g>
				<path class="st10" d="M194.55,68.06c0.56-0.16,1.26-0.11,1.89,0.09l0.22-0.88c-0.63-0.21-1.33-0.25-1.89-0.09
					C194.7,67.47,194.63,67.76,194.55,68.06z"/>
			</g>
			<g>
				<path class="st10" d="M198.04,69.76c0,0.03-0.01,0.06-0.02,0.08l0.22-0.88c0.01-0.03,0.01-0.06,0.02-0.08
					C198.19,69.14,198.09,69.49,198.04,69.76z"/>
			</g>
			<g>
				<path class="st10" d="M193.69,68.78c0.08-0.32,0.37-0.59,0.86-0.73c0.07-0.29,0.14-0.58,0.22-0.88
					c-0.49,0.14-0.78,0.41-0.86,0.73C193.84,68.17,193.76,68.52,193.69,68.78z"/>
			</g>
			<g>
				<path class="st10" d="M185.13,57.9c-0.49,0.14-0.64,0.52-0.34,0.89l4.48,5.49c1.21,1.37,2.78,2.65,4.62,3.78
					c0.02-0.39,0.32-0.72,0.88-0.88c0.56-0.16,1.26-0.11,1.89,0.09c-0.81-1.42-2.02-2.81-3.56-4.09l-6.37-4.95
					C186.31,57.9,185.62,57.76,185.13,57.9z"/>
			</g>
			<path class="st3" d="M184.79,58.78l4.48,5.49c1.21,1.37,2.78,2.65,4.62,3.78l-0.22,0.88c-1.84-1.13-3.41-2.41-4.62-3.78
				c0.03-0.13,0.07-0.29,0.11-0.44l-0.11,0.44l-4.48-5.49c-0.13-0.16-0.18-0.33-0.14-0.48l0.22-0.88
				C184.61,58.45,184.65,58.62,184.79,58.78z"/>
			<g>
				<path class="st7" d="M193.91,67.91l-0.22,0.88c-0.01,0.05-0.02,0.1-0.02,0.15c-0.01,0.28,0.13,0.58,0.43,0.87
					c0.33,0.31,0.79,0.56,1.28,0.7c0.6,0.17,1.25,0.21,1.78,0.06c0.49-0.14,0.78-0.41,0.86-0.73l0.22-0.88
					c-0.08,0.32-0.37,0.59-0.86,0.73c-0.53,0.15-1.18,0.12-1.78-0.06c-0.5-0.14-0.96-0.39-1.28-0.7c-0.3-0.29-0.44-0.6-0.43-0.88
					C193.89,68.01,193.9,67.96,193.91,67.91z"/>
			</g>
			<g>
				<path class="st11" d="M194.77,67.18c-0.56,0.16-0.87,0.49-0.88,0.88c-0.01,0.28,0.13,0.58,0.43,0.88
					c0.33,0.31,0.79,0.56,1.28,0.7c0.6,0.17,1.25,0.21,1.78,0.06c0.53-0.15,0.83-0.45,0.88-0.81c0.04-0.3-0.1-0.63-0.43-0.94
					c-0.3-0.29-0.71-0.52-1.16-0.66C196.03,67.07,195.34,67.02,194.77,67.18z"/>
			</g>
			<path class="st3" d="M199.25,73.88l6.37,4.95c0.43,0.33,1.11,0.48,1.61,0.34c0.27-0.08,0.43-0.23,0.48-0.4l-0.22,0.88
				c-0.04,0.18-0.21,0.33-0.48,0.4c-0.49,0.14-1.18-0.01-1.61-0.34l-6.37-4.95c-1.6-1.33-2.84-2.77-3.65-4.25v0l0.22-0.88
				C196.41,71.11,197.65,72.55,199.25,73.88z"/>
			<g>
				<path class="st10" d="M198.25,68.88c-0.05,0.36-0.35,0.66-0.88,0.81c-0.53,0.15-1.18,0.12-1.78-0.06
					c0.81,1.48,2.05,2.92,3.65,4.25l6.37,4.95c0.43,0.33,1.11,0.48,1.61,0.34c0.49-0.14,0.63-0.52,0.33-0.89l-4.47-5.49
					C201.83,71.37,200.19,70.04,198.25,68.88z"/>
			</g>
		</g>
	</g>
	<g>
		<line class="st12" x1="215.46" y1="42.5" x2="214.41" y2="43.46"/>
		<line class="st12" x1="217.1" y1="44.35" x2="216.06" y2="45.31"/>
		<line class="st12" x1="218.75" y1="46.21" x2="217.71" y2="47.16"/>
		<line class="st12" x1="220.4" y1="48.06" x2="219.36" y2="49.02"/>
	</g>
	<g>
		<line class="st12" x1="266.46" y1="55.14" x2="266.93" y2="56.47"/>
		<line class="st12" x1="264.13" y1="56.01" x2="264.6" y2="57.34"/>
		<line class="st12" x1="261.8" y1="56.87" x2="262.27" y2="58.21"/>
		<line class="st12" x1="259.47" y1="57.74" x2="259.94" y2="59.07"/>
	</g>
	<g class="st13">
		<path class="st10" d="M226.63,18.25c6.07,5.81,4.46,12.39-3.59,14.7c-8.05,2.31-19.51-0.53-25.57-6.34
			c-6.07-5.81-4.46-12.39,3.6-14.7C209.12,9.6,220.57,12.44,226.63,18.25z"/>
	</g>
	<g class="st13">
		<path class="st10" d="M292.95,34.23c6.07,5.81,4.46,12.39-3.59,14.7c-8.05,2.31-19.51-0.53-25.57-6.34
			c-6.07-5.81-4.46-12.39,3.6-14.7C275.44,25.58,286.88,28.42,292.95,34.23z"/>
	</g>
	<g class="st13">
		<path class="st10" d="M212.03,63.79c6.07,5.81,4.46,12.39-3.59,14.7c-8.05,2.31-19.5-0.53-25.57-6.34
			c-6.07-5.81-4.46-12.39,3.6-14.7C194.51,55.14,205.96,57.98,212.03,63.79z"/>
	</g>
	<g class="st13">
		<path class="st10" d="M287.17,83.33c6.07,5.81,4.46,12.39-3.59,14.7c-8.05,2.31-19.51-0.53-25.57-6.34
			c-6.07-5.81-4.46-12.39,3.6-14.7C269.65,74.69,281.1,77.53,287.17,83.33z"/>
	</g>
	<path class="st1" d="M235.95,89.91l-1.43,5.69c-1.65,0.59-3.49,0.71-5.31,0.26c-1.83-0.45-3.39-1.42-4.57-2.71l1.43-5.69
		c0.68-2.7,3.44-4.35,6.17-3.67c1.37,0.34,2.46,1.19,3.13,2.3C236.04,87.2,236.29,88.57,235.95,89.91z"/>
	
		<ellipse transform="matrix(0.0902 -0.9959 0.9959 0.0902 122.2533 310.5278)" class="st14" cx="231.09" cy="88.35" rx="3.79" ry="3.82"/>
	<path class="st15" d="M233.51,88.95c-0.33,1.32-1.68,2.13-3.02,1.8c-1.34-0.33-2.15-1.67-1.82-3c0.33-1.32,1.68-2.13,3.02-1.8
		C233.03,86.28,233.84,87.62,233.51,88.95z"/>
</g>
</svg>
