<?xml version="1.0" encoding="utf-8"?>
<!-- Generator: Adobe Illustrator 25.3.1, SVG Export Plug-In . SVG Version: 6.00 Build 0)  -->
<svg version="1.1" id="Layer_1" xmlns="http://www.w3.org/2000/svg" xmlns:xlink="http://www.w3.org/1999/xlink" x="0px" y="0px"
	 viewBox="0 0 300 300" style="enable-background:new 0 0 300 300;" xml:space="preserve">
<style type="text/css">
	.st0{enable-background:new    ;}
	.st1{fill:#374555;}
	.st2{fill:#27323E;}
	.st3{fill:#374547;}
	.st4{fill:#4B5E61;}
	.st5{fill:#717F82;}
	.st6{fill:#273233;}
	.st7{fill:#ADB0B1;}
	.st8{fill:#333333;}
	.st9{fill:#2C393B;}
	.st10{fill:#3C5159;}
	.st11{fill:#CCCBCB;}
	.st12{clip-path:url(#SVGID_2_);}
	.st13{fill:#65767B;}
	.st14{fill:#B5B5CC;}
	.st15{fill:#4F5362;}
	.st16{fill:#22273A;}
	.st17{fill:#1F282A;}
	.st18{clip-path:url(#SVGID_4_);}
	.st19{fill:#8F999B;}
	.st20{fill:#4B5152;}
	.st21{fill:#D6D8D8;}
	.st22{fill:#6E7677;}
	.st23{fill:#7B8385;}
</style>
<g>
	<g class="st0">
		<g>
			<path class="st1" d="M144.46,87.28l0.25,91.43l14.53-8.75c7.35-4.42,13.29-15.15,13.27-23.96l-0.14-51.08
				c-0.04-13.48-9.19-18.92-20.44-12.15L144.46,87.28z"/>
		</g>
		<g>
			<polygon class="st1" points="144.46,87.28 118.25,71.41 118.5,162.84 144.71,178.72 			"/>
		</g>
		<path class="st2" d="M125.72,66.91c5.66-3.41,10.79-3.72,14.49-1.48l26.2,15.88c-3.7-2.24-8.83-1.93-14.49,1.48l-7.47,4.5
			l-26.2-15.88L125.72,66.91z"/>
	</g>
	<g class="st0">
		<g>
			<path class="st3" d="M35.8,209.44L62,225.32c-1.6-0.97-2.6-3.04-2.61-5.98l-26.2-15.88C33.2,206.41,34.19,208.47,35.8,209.44z"/>
		</g>
		<g>
			<polygon class="st3" points="59.22,156.75 33.02,140.88 33.19,203.47 59.39,219.34 			"/>
		</g>
		<g>
			<polygon class="st3" points="144.46,87.28 118.25,71.41 48.11,113.63 74.31,129.51 			"/>
		</g>
		<g>
			<path class="st4" d="M74.31,129.51c-8.36,5.03-15.12,17.23-15.09,27.25l0.17,62.59c0.02,5.92,4.03,8.3,8.97,5.33l76.35-45.96
				l-0.25-91.43L74.31,129.51z"/>
		</g>
		<g>
			<path class="st3" d="M74.31,129.51l-26.2-15.88c-8.36,5.03-15.12,17.23-15.09,27.25l26.2,15.88
				C59.2,146.74,65.95,134.54,74.31,129.51z"/>
		</g>
		<g>
			<polygon class="st5" points="118.02,85.73 96.82,73.44 63.9,93.26 85.09,105.55 			"/>
		</g>
		<polygon class="st4" points="85.09,105.55 82.36,124.66 127.44,97.52 118.02,85.73 		"/>
		<polygon class="st6" points="63.9,93.26 56.17,108.78 82.36,124.66 85.09,105.55 		"/>
		<g>
			<g class="st0">
				<g>
					<polygon class="st6" points="72.98,85.73 86.89,94.16 100.9,85.73 86.99,77.3 					"/>
				</g>
				<g>
					<polygon class="st3" points="72.98,85.73 73.02,87.79 86.93,96.21 86.89,94.16 					"/>
				</g>
				<g>
					<polygon class="st3" points="72.98,83.82 73.02,85.88 86.93,94.31 86.89,92.25 					"/>
				</g>
				<g>
					<polygon class="st4" points="86.89,94.16 86.93,96.21 100.93,87.79 100.9,85.73 					"/>
				</g>
				<polygon class="st7" points="75.01,82.59 72.98,83.82 86.89,92.25 89,90.97 				"/>
				<g>
					<polygon class="st3" points="86.93,75.24 86.96,77.3 100.87,85.73 100.84,83.67 					"/>
				</g>
				<polygon class="st7" points="86.93,75.24 84.9,76.47 98.73,84.95 100.83,83.67 				"/>
			</g>
		</g>
	</g>
	<g>
		<g>
			<g>
				<g class="st0">
					<g>
						<path class="st8" d="M116.01,119.81c19.03-11.46,38.74,0.6,38.8,23.4c0.06,22.78-14.85,50.57-33.88,62.02
							c-19.02,11.45-39.18-0.64-39.25-23.42C81.63,159.01,97,131.26,116.01,119.81z"/>
					</g>
				</g>
			</g>
			<g>
				<g class="st0">
					<g>
						<path class="st9" d="M152.32,143.31c19.03-11.46,34.5-2.26,34.56,20.53c0.06,22.78-15.31,50.54-34.34,61.99
							c-19.02,11.45-34.49,2.26-34.55-20.53C117.93,182.51,133.3,154.75,152.32,143.31z"/>
					</g>
					<g>
						<path class="st10" d="M117.62,120.96c9.58-5.76,18.25-6.3,24.51-2.51l34.7,22.35c-6.26-3.79-14.94-3.26-24.51,2.51
							c-19.02,11.45-34.38,39.2-34.32,62c0.03,10.89,3.58,18.67,9.35,22.58l-34.01-21.9c-6.18-3.75-10.01-11.71-10.05-23.03
							C83.23,160.16,98.6,132.41,117.62,120.96z"/>
						<path class="st11" d="M127.35,227.89l0.69,0.45C127.81,228.19,127.58,228.04,127.35,227.89z"/>
					</g>
					<g>
						<defs>
							<path id="SVGID_1_" d="M117.62,120.96c9.58-5.76,18.25-6.3,24.51-2.51l34.7,22.35c-6.26-3.79-14.94-3.26-24.51,2.51
								c-19.02,11.45-34.38,39.2-34.32,62c0.03,10.89,3.58,18.67,9.35,22.58l-34.01-21.9c-6.18-3.75-10.01-11.71-10.05-23.03
								C83.23,160.16,98.6,132.41,117.62,120.96z"/>
						</defs>
						<clipPath id="SVGID_2_">
							<use xlink:href="#SVGID_1_"  style="overflow:visible;"/>
						</clipPath>
						<g class="st12">
							<g>
								<polygon class="st13" points="184.95,149.98 185.81,148.51 112.28,101.56 111.42,103.03 								"/>
							</g>
							<g>
								<polygon class="st13" points="182.47,153.85 183.34,152.38 109.8,105.43 108.94,106.9 								"/>
							</g>
							<g>
								<polygon class="st13" points="179.99,157.73 180.86,156.26 107.32,109.31 106.46,110.78 								"/>
							</g>
							<g>
								<polygon class="st13" points="177.52,161.61 178.38,160.14 104.84,113.19 103.98,114.66 								"/>
							</g>
							<g>
								<polygon class="st13" points="175.04,165.48 175.9,164.01 102.36,117.06 101.5,118.53 								"/>
							</g>
							<g>
								<polygon class="st13" points="172.56,169.36 173.42,167.89 99.89,120.94 99.02,122.41 								"/>
							</g>
							<g>
								<polygon class="st13" points="170.08,173.24 170.94,171.77 97.41,124.82 96.54,126.29 								"/>
							</g>
							<g>
								<polygon class="st13" points="167.6,177.11 168.46,175.64 94.93,128.69 94.07,130.16 								"/>
							</g>
							<g>
								<polygon class="st13" points="165.12,180.99 165.99,179.52 92.45,132.57 91.59,134.04 								"/>
							</g>
							<g>
								<polygon class="st13" points="162.64,184.86 163.51,183.39 89.97,136.45 89.11,137.92 								"/>
							</g>
							<g>
								<polygon class="st13" points="160.16,188.74 161.03,187.27 87.49,140.32 86.63,141.79 								"/>
							</g>
							<g>
								<polygon class="st13" points="157.69,192.62 158.55,191.15 85.01,144.2 84.15,145.67 								"/>
							</g>
							<g>
								<polygon class="st13" points="155.21,196.49 156.07,195.02 82.53,148.08 81.67,149.55 								"/>
							</g>
							<g>
								<polygon class="st13" points="152.73,200.37 153.59,198.9 80.06,151.95 79.19,153.42 								"/>
							</g>
							<g>
								<polygon class="st13" points="150.25,204.25 151.11,202.78 77.58,155.83 76.71,157.3 								"/>
							</g>
							<g>
								<polygon class="st13" points="147.77,208.12 148.63,206.65 75.1,159.71 74.24,161.17 								"/>
							</g>
							<g>
								<polygon class="st13" points="145.29,212 146.16,210.53 72.62,163.58 71.76,165.05 								"/>
							</g>
							<g>
								<polygon class="st13" points="142.81,215.88 143.68,214.41 70.14,167.46 69.28,168.93 								"/>
							</g>
							<g>
								<polygon class="st13" points="140.33,219.75 141.2,218.28 67.66,171.33 66.8,172.8 								"/>
							</g>
							<g>
								<polygon class="st13" points="137.86,223.63 138.72,222.16 65.18,175.21 64.32,176.68 								"/>
							</g>
							<g>
								<polygon class="st13" points="135.38,227.51 136.24,226.04 62.71,179.09 61.84,180.56 								"/>
							</g>
							<g>
								<polygon class="st13" points="132.9,231.38 133.76,229.91 60.23,182.96 59.36,184.43 								"/>
							</g>
							<g>
								<polygon class="st13" points="130.42,235.26 131.28,233.79 57.75,186.84 56.88,188.31 								"/>
							</g>
						</g>
					</g>
					<path class="st13" d="M157,127.88c-6.26-3.8-14.94-3.26-24.51,2.5c-19.02,11.45-34.38,39.2-34.32,62
						c0.03,10.77,3.5,18.49,9.16,22.44l5.56,3.58c-5.78-3.91-9.32-11.69-9.35-22.58c-0.06-22.8,15.31-50.55,34.32-62
						c9.58-5.76,18.25-6.3,24.51-2.5"/>
				</g>
			</g>
			<g>
				<g>
					<path class="st14" d="M152.68,150.23c15.75-9.48,28.56-1.87,28.61,17c0.05,18.86-12.67,41.83-28.42,51.31
						c-15.74,9.48-28.55,1.87-28.6-16.99C124.22,182.68,136.94,159.71,152.68,150.23z"/>
				</g>
				<g>
					<path class="st15" d="M152.69,154.04c14-8.43,25.38-1.67,25.42,15.1c0.05,16.76-11.26,37.17-25.26,45.6
						c-13.99,8.42-25.37,1.66-25.41-15.1C127.4,182.87,138.7,162.46,152.69,154.04z"/>
				</g>
				<g>
					<path class="st16" d="M155.44,158.23c10.13-6.51,18.76-3.91,22.18,5.35c-2.31-12.6-12.6-16.96-24.93-9.54
						c-13.99,8.42-25.29,28.83-25.25,45.6c0.02,8.37,2.87,14.25,7.46,16.98c-1.94-3.14-3.06-7.48-3.08-12.86
						C131.79,187.01,142.36,166.64,155.44,158.23z"/>
				</g>
			</g>
		</g>
		<g>
			<g>
				<g class="st0">
					<g>
						<path class="st17" d="M153.25,146.61c17.68-10.65,27.74-4.61,27.79,16.58c0.06,21.17-13.8,46.99-31.48,57.64
							c-17.67,10.64-28.15,4.57-28.21-16.6C121.29,183.04,135.57,157.25,153.25,146.61z"/>
					</g>
				</g>
			</g>
			<g>
				<g class="st0">
					<g>
						<path class="st9" d="M178.72,163.27c17.68-10.65,32.06-2.1,32.12,19.08c0.06,21.17-14.22,46.96-31.91,57.61
							c-17.67,10.64-32.05,2.1-32.1-19.07C146.77,199.7,161.05,173.91,178.72,163.27z"/>
					</g>
					<g>
						<path class="st10" d="M154.74,147.67c8.9-5.36,16.96-5.86,22.78-2.33l23.98,15.6c-5.82-3.53-13.88-3.03-22.78,2.33
							c-17.67,10.64-31.95,36.43-31.9,57.62c0.03,10.12,3.33,17.35,8.69,20.98l-23.34-15.19c-5.74-3.48-9.31-10.88-9.34-21.4
							C122.78,184.1,137.07,158.31,154.74,147.67z"/>
						<path class="st11" d="M155.52,241.87l0.64,0.41C155.94,242.16,155.73,242.02,155.52,241.87z"/>
						<g>
							<defs>
								<path id="SVGID_3_" d="M154.75,147.79c8.89-5.35,16.94-5.85,22.75-2.33l23.95,15.58c-5.81-3.52-13.87-3.02-22.75,2.33
									c-17.65,10.63-31.92,36.39-31.86,57.55c0.03,10.11,3.32,17.33,8.68,20.96l-23.31-15.16c-5.74-3.48-9.3-10.87-9.32-21.37
									C122.83,184.17,137.1,158.41,154.75,147.79z"/>
							</defs>
							<clipPath id="SVGID_4_">
								<use xlink:href="#SVGID_3_"  style="overflow:visible;"/>
							</clipPath>
							<g class="st18">
								<g>
									<polygon class="st13" points="208.99,169.55 209.79,168.19 149.79,129.78 148.99,131.14 									"/>
								</g>
								<g>
									<polygon class="st13" points="206.69,173.15 207.49,171.79 147.49,133.38 146.69,134.74 									"/>
								</g>
								<g>
									<polygon class="st13" points="204.39,176.75 205.19,175.39 145.19,136.97 144.39,138.34 									"/>
								</g>
								<g>
									<polygon class="st13" points="202.09,180.35 202.89,178.98 142.89,140.57 142.09,141.94 									"/>
								</g>
								<g>
									<polygon class="st13" points="199.78,183.95 200.59,182.58 140.59,144.17 139.79,145.54 									"/>
								</g>
								<g>
									<polygon class="st13" points="197.48,187.54 198.28,186.18 138.29,147.77 137.49,149.13 									"/>
								</g>
								<g>
									<polygon class="st13" points="195.18,191.14 195.98,189.78 135.99,151.37 135.19,152.73 									"/>
								</g>
								<g>
									<polygon class="st13" points="192.88,194.74 193.68,193.38 133.69,154.97 132.89,156.33 									"/>
								</g>
								<g>
									<polygon class="st13" points="190.58,198.34 191.38,196.98 131.39,158.56 130.58,159.93 									"/>
								</g>
								<g>
									<polygon class="st13" points="188.28,201.94 189.08,200.57 129.09,162.16 128.28,163.53 									"/>
								</g>
								<g>
									<polygon class="st13" points="185.98,205.54 186.78,204.17 126.78,165.76 125.98,167.13 									"/>
								</g>
								<g>
									<polygon class="st13" points="183.68,209.13 184.48,207.77 124.48,169.36 123.68,170.72 									"/>
								</g>
								<g>
									<polygon class="st13" points="181.38,212.73 182.18,211.37 122.18,172.96 121.38,174.32 									"/>
								</g>
								<g>
									<polygon class="st13" points="179.08,216.33 179.88,214.97 119.88,176.56 119.08,177.92 									"/>
								</g>
								<g>
									<polygon class="st13" points="176.78,219.93 177.58,218.56 117.58,180.15 116.78,181.52 									"/>
								</g>
								<g>
									<polygon class="st13" points="174.48,223.53 175.28,222.16 115.28,183.75 114.48,185.12 									"/>
								</g>
								<g>
									<polygon class="st13" points="172.17,227.13 172.98,225.76 112.98,187.35 112.18,188.71 									"/>
								</g>
								<g>
									<polygon class="st13" points="169.87,230.72 170.67,229.36 110.68,190.95 109.88,192.31 									"/>
								</g>
								<g>
									<polygon class="st13" points="167.57,234.32 168.37,232.96 108.38,194.55 107.58,195.91 									"/>
								</g>
								<g>
									<polygon class="st13" points="165.27,237.92 166.07,236.56 106.08,198.15 105.28,199.51 									"/>
								</g>
								<g>
									<polygon class="st13" points="162.97,241.52 163.77,240.15 103.78,201.74 102.97,203.11 									"/>
								</g>
								<g>
									<polygon class="st13" points="160.67,245.12 161.47,243.75 101.48,205.34 100.67,206.71 									"/>
								</g>
								<g>
									<polygon class="st13" points="158.37,248.72 159.17,247.35 99.17,208.94 98.37,210.3 									"/>
								</g>
							</g>
						</g>
					</g>
				</g>
			</g>
			<g>
				<g>
					<path class="st13" d="M179.06,169.71c14.64-8.81,26.54-1.74,26.59,15.8c0.05,17.53-11.77,38.87-26.41,47.69
						c-14.63,8.81-26.53,1.74-26.58-15.79C152.61,199.86,164.43,178.51,179.06,169.71z"/>
				</g>
				<g>
					<path class="st4" d="M179.07,173.24c13.01-7.83,23.58-1.55,23.62,14.04c0.04,15.57-10.46,34.54-23.47,42.37
						c-13,7.82-23.57,1.54-23.62-14.03C155.56,200.04,166.07,181.07,179.07,173.24z"/>
				</g>
				<g>
					<path class="st17" d="M181.62,177.14c9.41-6.05,17.44-3.63,20.61,4.97c-2.15-11.71-11.71-15.76-23.16-8.87
						c-13,7.82-23.5,26.8-23.46,42.38c0.02,7.78,2.67,13.24,6.94,15.78c-1.8-2.92-2.85-6.95-2.86-11.96
						C159.65,203.89,169.47,184.95,181.62,177.14z"/>
				</g>
			</g>
		</g>
	</g>
	<g>
		<g>
			<path class="st19" d="M71.53,126.04c0.91,0,1.82-0.21,2.52-0.63c0.69-0.42,1.07-0.97,1.07-1.57c0-0.59-0.37-1.15-1.06-1.56
				c-1.38-0.84-3.64-0.84-5.03,0c-0.69,0.42-1.07,0.97-1.07,1.57c0,0.59,0.37,1.15,1.06,1.56
				C69.71,125.84,70.62,126.04,71.53,126.04z"/>
		</g>
	</g>
	<g>
		<g>
			<path class="st19" d="M71.53,125.46c0.91,0,1.82-0.21,2.52-0.63c0.69-0.42,1.07-0.97,1.07-1.57c0-0.59-0.37-1.15-1.06-1.56
				c-1.38-0.84-3.64-0.84-5.03,0c-0.69,0.42-1.07,0.97-1.07,1.57c0,0.59,0.37,1.15,1.06,1.56
				C69.71,125.25,70.62,125.46,71.53,125.46z"/>
		</g>
	</g>
	<g>
		<g class="st0">
			<g>
				<polygon class="st20" points="139.39,99.11 139.43,112.2 157.1,101.56 157.07,88.47 				"/>
			</g>
			<g>
				<polygon class="st21" points="140.38,99.74 140.41,110.31 156.26,100.77 156.23,90.2 				"/>
			</g>
			<g>
				<polygon class="st22" points="139.39,99.11 138.04,98.29 138.08,111.38 139.43,112.2 				"/>
			</g>
			<g>
				<polygon class="st23" points="157.07,88.47 155.72,87.65 138.04,98.29 139.39,99.11 				"/>
			</g>
		</g>
	</g>
</g>
</svg>
